%TF.GenerationSoftware,KiCad,Pcbnew,9.0.6*%
%TF.CreationDate,2026-01-01T11:49:18+08:00*%
%TF.ProjectId,soulcore,736f756c-636f-4726-952e-6b696361645f,rev?*%
%TF.SameCoordinates,Original*%
%TF.FileFunction,Copper,L4,Bot*%
%TF.FilePolarity,Positive*%
%FSLAX46Y46*%
G04 Gerber Fmt 4.6, Leading zero omitted, Abs format (unit mm)*
G04 Created by KiCad (PCBNEW 9.0.6) date 2026-01-01 11:49:18*
%MOMM*%
%LPD*%
G01*
G04 APERTURE LIST*
%TA.AperFunction,ComponentPad*%
%ADD10C,4.400000*%
%TD*%
%TA.AperFunction,ComponentPad*%
%ADD11R,1.350000X1.350000*%
%TD*%
%TA.AperFunction,ComponentPad*%
%ADD12C,1.350000*%
%TD*%
%TA.AperFunction,SMDPad,CuDef*%
%ADD13R,2.400000X0.740000*%
%TD*%
%TA.AperFunction,SMDPad,CuDef*%
%ADD14R,0.740000X2.400000*%
%TD*%
%TA.AperFunction,ViaPad*%
%ADD15C,0.500000*%
%TD*%
%TA.AperFunction,Conductor*%
%ADD16C,0.500000*%
%TD*%
%TA.AperFunction,Conductor*%
%ADD17C,0.127500*%
%TD*%
%TA.AperFunction,Conductor*%
%ADD18C,0.160000*%
%TD*%
%TA.AperFunction,Conductor*%
%ADD19C,0.138000*%
%TD*%
%TA.AperFunction,Conductor*%
%ADD20C,0.130000*%
%TD*%
%TA.AperFunction,Conductor*%
%ADD21C,0.360000*%
%TD*%
G04 APERTURE END LIST*
D10*
%TO.P,H4,1,1*%
%TO.N,GND*%
X143500000Y-104000000D03*
%TD*%
%TO.P,H3,1,1*%
%TO.N,GND*%
X143500000Y-136000000D03*
%TD*%
%TO.P,H2,1,1*%
%TO.N,GND*%
X106500000Y-104000000D03*
%TD*%
D11*
%TO.P,J2,1,Pin_1*%
%TO.N,+3V3*%
X145880000Y-131940000D03*
D12*
%TO.P,J2,2,Pin_2*%
%TO.N,IO37{slash}U0TXD*%
X143880000Y-131940000D03*
%TO.P,J2,3,Pin_3*%
%TO.N,IO38{slash}U0RXD*%
X141880000Y-131940000D03*
%TO.P,J2,4,Pin_4*%
%TO.N,CHIP_PU*%
X139880000Y-131940000D03*
%TO.P,J2,5,Pin_5*%
%TO.N,IO35{slash}BOOT*%
X137880000Y-131940000D03*
%TO.P,J2,6,Pin_6*%
%TO.N,GND*%
X135880000Y-131940000D03*
%TD*%
D10*
%TO.P,H1,1,1*%
%TO.N,GND*%
X106500000Y-136000000D03*
%TD*%
D11*
%TO.P,J5,1,Pin_1*%
%TO.N,+3V3*%
X130580000Y-135650000D03*
D12*
%TO.P,J5,2,Pin_2*%
%TO.N,JTAG_D-*%
X132580000Y-135650000D03*
%TO.P,J5,3,Pin_3*%
%TO.N,JTAG_D+*%
X134580000Y-135650000D03*
%TO.P,J5,4,Pin_4*%
%TO.N,GND*%
X136580000Y-135650000D03*
%TD*%
D13*
%TO.P,J3,1,Pin_1*%
%TO.N,+3V3*%
X144450000Y-114285000D03*
%TO.P,J3,2,Pin_2*%
X140550000Y-114285000D03*
%TO.P,J3,3,Pin_3*%
%TO.N,IO29*%
X144450000Y-115555000D03*
%TO.P,J3,4,Pin_4*%
%TO.N,IO28*%
X140550000Y-115555000D03*
%TO.P,J3,5,Pin_5*%
%TO.N,CHIP_PU*%
X144450000Y-116825000D03*
%TO.P,J3,6,Pin_6*%
%TO.N,IO27*%
X140550000Y-116825000D03*
%TO.P,J3,7,Pin_7*%
%TO.N,IO35{slash}BOOT*%
X144450000Y-118095000D03*
%TO.P,J3,8,Pin_8*%
%TO.N,IO26*%
X140550000Y-118095000D03*
%TO.P,J3,9,Pin_9*%
%TO.N,GND*%
X144450000Y-119365000D03*
%TO.P,J3,10,Pin_10*%
%TO.N,JTAG_D+*%
X140550000Y-119365000D03*
%TO.P,J3,11,Pin_11*%
%TO.N,IO38{slash}U0RXD*%
X144450000Y-120635000D03*
%TO.P,J3,12,Pin_12*%
%TO.N,JTAG_D-*%
X140550000Y-120635000D03*
%TO.P,J3,13,Pin_13*%
%TO.N,IO37{slash}U0TXD*%
X144450000Y-121905000D03*
%TO.P,J3,14,Pin_14*%
%TO.N,USB_D+*%
X140550000Y-121905000D03*
%TO.P,J3,15,Pin_15*%
%TO.N,unconnected-(J3-Pin_15-Pad15)*%
X144450000Y-123175000D03*
%TO.P,J3,16,Pin_16*%
%TO.N,USB_D-*%
X140550000Y-123175000D03*
%TO.P,J3,17,Pin_17*%
%TO.N,GND*%
X144450000Y-124445000D03*
%TO.P,J3,18,Pin_18*%
X140550000Y-124445000D03*
%TO.P,J3,19,Pin_19*%
X144450000Y-125715000D03*
%TO.P,J3,20,Pin_20*%
X140550000Y-125715000D03*
%TD*%
%TO.P,J1,1,Pin_1*%
%TO.N,+3V3*%
X109450000Y-114285000D03*
%TO.P,J1,2,Pin_2*%
X105550000Y-114285000D03*
%TO.P,J1,3,Pin_3*%
%TO.N,IO4{slash}TRST*%
X109450000Y-115555000D03*
%TO.P,J1,4,Pin_4*%
%TO.N,GND*%
X105550000Y-115555000D03*
%TO.P,J1,5,Pin_5*%
%TO.N,IO5{slash}TDI*%
X109450000Y-116825000D03*
%TO.P,J1,6,Pin_6*%
%TO.N,IO2*%
X105550000Y-116825000D03*
%TO.P,J1,7,Pin_7*%
%TO.N,IO6{slash}SWDIO*%
X109450000Y-118095000D03*
%TO.P,J1,8,Pin_8*%
%TO.N,IO3*%
X105550000Y-118095000D03*
%TO.P,J1,9,Pin_9*%
%TO.N,IO7{slash}SWCLK*%
X109450000Y-119365000D03*
%TO.P,J1,10,Pin_10*%
%TO.N,IO12*%
X105550000Y-119365000D03*
%TO.P,J1,11,Pin_11*%
%TO.N,IO8{slash}BOOT*%
X109450000Y-120635000D03*
%TO.P,J1,12,Pin_12*%
%TO.N,IO13*%
X105550000Y-120635000D03*
%TO.P,J1,13,Pin_13*%
%TO.N,GND*%
X109450000Y-121905000D03*
%TO.P,J1,14,Pin_14*%
%TO.N,IO14{slash}UART_TX*%
X105550000Y-121905000D03*
%TO.P,J1,15,Pin_15*%
%TO.N,IO9{slash}nRST*%
X109450000Y-123175000D03*
%TO.P,J1,16,Pin_16*%
%TO.N,IO15{slash}UART_RX*%
X105550000Y-123175000D03*
%TO.P,J1,17,Pin_17*%
%TO.N,IO10{slash}TDO*%
X109450000Y-124445000D03*
%TO.P,J1,18,Pin_18*%
%TO.N,IO16*%
X105550000Y-124445000D03*
%TO.P,J1,19,Pin_19*%
%TO.N,IO11{slash}nRST*%
X109450000Y-125715000D03*
%TO.P,J1,20,Pin_20*%
%TO.N,IO17*%
X105550000Y-125715000D03*
%TD*%
D14*
%TO.P,J4,1,Pin_1*%
%TO.N,+3V3*%
X130715000Y-106950000D03*
%TO.P,J4,2,Pin_2*%
X130715000Y-103050000D03*
%TO.P,J4,3,Pin_3*%
%TO.N,IO45{slash}SDDET*%
X129445000Y-106950000D03*
%TO.P,J4,4,Pin_4*%
%TO.N,IO46*%
X129445000Y-103050000D03*
%TO.P,J4,5,Pin_5*%
%TO.N,IO39{slash}SDDAT0*%
X128175000Y-106950000D03*
%TO.P,J4,6,Pin_6*%
%TO.N,IO47*%
X128175000Y-103050000D03*
%TO.P,J4,7,Pin_7*%
%TO.N,IO40{slash}SDDAT1*%
X126905000Y-106950000D03*
%TO.P,J4,8,Pin_8*%
%TO.N,IO48*%
X126905000Y-103050000D03*
%TO.P,J4,9,Pin_9*%
%TO.N,IO41{slash}SDDAT2*%
X125635000Y-106950000D03*
%TO.P,J4,10,Pin_10*%
%TO.N,IO49*%
X125635000Y-103050000D03*
%TO.P,J4,11,Pin_11*%
%TO.N,IO42{slash}SDDAT3*%
X124365000Y-106950000D03*
%TO.P,J4,12,Pin_12*%
%TO.N,IO50*%
X124365000Y-103050000D03*
%TO.P,J4,13,Pin_13*%
%TO.N,IO43{slash}SDCLK*%
X123095000Y-106950000D03*
%TO.P,J4,14,Pin_14*%
%TO.N,IO51*%
X123095000Y-103050000D03*
%TO.P,J4,15,Pin_15*%
%TO.N,IO44{slash}SDCMD*%
X121825000Y-106950000D03*
%TO.P,J4,16,Pin_16*%
%TO.N,IO52*%
X121825000Y-103050000D03*
%TO.P,J4,17,Pin_17*%
%TO.N,GND*%
X120555000Y-106950000D03*
%TO.P,J4,18,Pin_18*%
%TO.N,IO53*%
X120555000Y-103050000D03*
%TO.P,J4,19,Pin_19*%
%TO.N,GND*%
X119285000Y-106950000D03*
%TO.P,J4,20,Pin_20*%
X119285000Y-103050000D03*
%TD*%
D15*
%TO.N,GND*%
X136410000Y-128980000D03*
X130030000Y-132160000D03*
X136300000Y-124100000D03*
X129400000Y-127800000D03*
X126700000Y-127900000D03*
X124000000Y-127900000D03*
%TO.N,+3V3*%
X131800000Y-103075000D03*
%TO.N,GND*%
X134400000Y-101800000D03*
X134600000Y-104200000D03*
X135600000Y-103000000D03*
X118000000Y-103000000D03*
X146600000Y-119400000D03*
X143400000Y-112000000D03*
X144600000Y-113000000D03*
%TO.N,+3V3*%
X142480000Y-113730000D03*
%TO.N,GND*%
X111000000Y-116200000D03*
X111200000Y-117400000D03*
X111200000Y-118800000D03*
X113800000Y-117400000D03*
X115000000Y-118000000D03*
X113500000Y-115500000D03*
X115250000Y-114250000D03*
X121000000Y-112000000D03*
X119250000Y-113750000D03*
X121250000Y-128000000D03*
X121250000Y-125250000D03*
X121250000Y-122500000D03*
X121250000Y-119750000D03*
X126750000Y-119750000D03*
X124250000Y-119750000D03*
X129500000Y-125250000D03*
X126750000Y-125250000D03*
X124000000Y-125250000D03*
X118000000Y-129000000D03*
X120250000Y-129000000D03*
X118500000Y-130000000D03*
X118500000Y-131250000D03*
X123750000Y-134000000D03*
X126500000Y-132000000D03*
X125500000Y-132000000D03*
X125500000Y-131000000D03*
X126500000Y-131000000D03*
X127500000Y-131000000D03*
X127500000Y-130000000D03*
X126500000Y-130000000D03*
X125500000Y-130000000D03*
X124250000Y-133000000D03*
X124250000Y-132000000D03*
X124500000Y-130000000D03*
X115750000Y-128500000D03*
X114750000Y-127250000D03*
X104500000Y-130750000D03*
X132750000Y-133250000D03*
X136000000Y-133750000D03*
X140750000Y-133000000D03*
X138750000Y-125750000D03*
X140500000Y-126750000D03*
X146500000Y-125750000D03*
X144500000Y-127000000D03*
X146500000Y-124500000D03*
X119250000Y-101000000D03*
X118500000Y-109000000D03*
X118000000Y-107000000D03*
X109250000Y-111000000D03*
X109000000Y-113000000D03*
X111500000Y-113500000D03*
X103500000Y-115500000D03*
X107500000Y-115500000D03*
X121500000Y-136000000D03*
X123500000Y-138000000D03*
X120500000Y-138000000D03*
X116500000Y-134500000D03*
X122500000Y-138000000D03*
X121500000Y-138000000D03*
X122500000Y-137000000D03*
X127000000Y-134500000D03*
X125500000Y-133000000D03*
X121500000Y-137000000D03*
X130500000Y-112000000D03*
X134000000Y-112500000D03*
X134000000Y-113500000D03*
X137330000Y-115815000D03*
X136710000Y-115815000D03*
X136060000Y-115815000D03*
X135470000Y-115815000D03*
X134800000Y-115815000D03*
%TO.N,IO35{slash}BOOT*%
X135220000Y-123890000D03*
%TO.N,VDDO_FLASH*%
X133850000Y-122080000D03*
X116970000Y-138440000D03*
%TO.N,GND*%
X138130000Y-128580000D03*
X144450000Y-128830000D03*
%TO.N,+3V3*%
X132525000Y-103075000D03*
%TO.N,GND*%
X135040000Y-119210000D03*
X133050000Y-117870000D03*
%TO.N,+3V3*%
X131460000Y-117450000D03*
%TO.N,GND*%
X126730000Y-122500000D03*
X124010000Y-122490000D03*
%TO.N,+3V3*%
X131050000Y-125075000D03*
%TO.N,JTAG_D+*%
X139010000Y-119570000D03*
%TO.N,GND*%
X132690000Y-124450000D03*
%TO.N,+3V3*%
X131000000Y-129975000D03*
%TO.N,GND*%
X133140000Y-130480000D03*
X134160000Y-129140000D03*
X125830000Y-110770000D03*
X127980000Y-114220000D03*
%TO.N,+1V2*%
X125830000Y-115850000D03*
%TO.N,+3V3*%
X116230000Y-122680000D03*
X117660000Y-118470000D03*
%TO.N,GND*%
X120570000Y-104980000D03*
X119285000Y-104940000D03*
%TO.N,+3V3*%
X130715000Y-105320000D03*
X130715000Y-104680000D03*
%TO.N,+1V2*%
X137700000Y-116795000D03*
%TO.N,IO28*%
X138900000Y-115600000D03*
%TO.N,+3V3*%
X142470000Y-114290000D03*
X136413200Y-121896800D03*
%TO.N,VDDO_FLASH*%
X120390000Y-130670000D03*
X122290000Y-130390000D03*
%TO.N,FLASH_HD*%
X123700000Y-131040000D03*
%TO.N,FLASH_CK*%
X123480000Y-130120000D03*
%TO.N,FLASH_D*%
X123245000Y-129515000D03*
%TO.N,IO35{slash}BOOT*%
X142180000Y-118090000D03*
%TO.N,CHIP_PU*%
X142430000Y-116825000D03*
%TO.N,IO29*%
X142970000Y-115580000D03*
%TO.N,IO26*%
X133610000Y-127450000D03*
%TO.N,IO27*%
X132270000Y-127250000D03*
%TO.N,IO29*%
X135470000Y-126300000D03*
%TO.N,IO28*%
X134720000Y-126920000D03*
%TO.N,FLASH_HD*%
X119470000Y-136970000D03*
%TO.N,FLASH_CK*%
X119470000Y-135750000D03*
%TO.N,FLASH_D*%
X119480000Y-134470000D03*
%TO.N,+3V3*%
X136400000Y-125080000D03*
%TO.N,JTAG_D-*%
X130730000Y-129080000D03*
%TO.N,JTAG_D+*%
X131240000Y-128120000D03*
%TO.N,IO38{slash}U0RXD*%
X132305000Y-122275000D03*
%TO.N,Net-(U1-GPIO36)*%
X135440000Y-121370000D03*
%TO.N,IO37{slash}U0TXD*%
X132810000Y-123100000D03*
%TO.N,Net-(U1-GPIO36)*%
X131710000Y-123100000D03*
%TO.N,JTAG_D-*%
X139020000Y-121040000D03*
%TO.N,USB_D-*%
X139010000Y-123140000D03*
%TO.N,USB_D+*%
X139030000Y-122090000D03*
%TO.N,IO38{slash}U0RXD*%
X142930000Y-120635000D03*
%TO.N,IO37{slash}U0TXD*%
X143065000Y-122405000D03*
%TO.N,IO35{slash}BOOT*%
X131200000Y-124260000D03*
%TO.N,GND*%
X132410000Y-115675000D03*
X131680000Y-115675000D03*
X130975000Y-115675000D03*
%TO.N,+3V3*%
X131940000Y-114150000D03*
X132030000Y-112480000D03*
%TO.N,IO35{slash}BOOT*%
X137480000Y-119740000D03*
%TO.N,IO26*%
X137210000Y-119150000D03*
%TO.N,IO27*%
X136960000Y-118140000D03*
%TO.N,CHIP_PU*%
X135810000Y-118500000D03*
X121350000Y-117800000D03*
%TO.N,IO39{slash}SDDAT0*%
X129910000Y-110480000D03*
%TO.N,IO40{slash}SDDAT1*%
X129330000Y-110950000D03*
%TO.N,IO41{slash}SDDAT2*%
X128840000Y-111460000D03*
%TO.N,IO42{slash}SDDAT3*%
X128340000Y-111940000D03*
%TO.N,IO43{slash}SDCLK*%
X127960000Y-113080000D03*
%TO.N,IO44{slash}SDCMD*%
X127415000Y-117425000D03*
%TO.N,IO45{slash}SDDET*%
X129470000Y-108790000D03*
%TO.N,IO46*%
X128850000Y-109710000D03*
%TO.N,IO47*%
X127500000Y-109720000D03*
%TO.N,IO48*%
X126280000Y-109610000D03*
%TO.N,IO49*%
X124970000Y-109710000D03*
%TO.N,IO50*%
X123800000Y-109720000D03*
%TO.N,IO51*%
X122480000Y-109690000D03*
%TO.N,IO52*%
X121150000Y-109800000D03*
%TO.N,IO53*%
X119900000Y-109460000D03*
%TO.N,GND*%
X116627500Y-126517500D03*
X112650000Y-122020000D03*
%TO.N,IO4{slash}TRST*%
X117910000Y-120630000D03*
%TO.N,IO5{slash}TDI*%
X117110000Y-121110000D03*
%TO.N,IO6{slash}SWDIO*%
X114832847Y-120768871D03*
%TO.N,IO7{slash}SWCLK*%
X114250000Y-121000000D03*
%TO.N,IO8{slash}BOOT*%
X113640000Y-121490000D03*
%TO.N,IO9{slash}nRST*%
X117590000Y-123250000D03*
%TO.N,IO10{slash}TDO*%
X113180000Y-123440000D03*
%TO.N,IO11{slash}nRST*%
X111470000Y-123790000D03*
%TO.N,+3V3*%
X119335000Y-127055000D03*
%TO.N,+1V2*%
X118502500Y-127372500D03*
%TO.N,IO17*%
X107161000Y-125639000D03*
%TO.N,IO16*%
X107030000Y-124445000D03*
%TO.N,IO15{slash}UART_RX*%
X107050000Y-123200000D03*
%TO.N,IO14{slash}UART_TX*%
X107040000Y-121900000D03*
%TO.N,IO13*%
X107120000Y-120640000D03*
%TO.N,IO12*%
X107705000Y-119555000D03*
%TO.N,IO3*%
X107470000Y-118225000D03*
%TO.N,IO2*%
X107575000Y-117000000D03*
%TO.N,+3V3*%
X116590000Y-111970000D03*
%TO.N,GND*%
X120555000Y-108500000D03*
%TO.N,IO42{slash}SDDAT3*%
X124350000Y-109010000D03*
%TO.N,IO41{slash}SDDAT2*%
X125635000Y-109080000D03*
%TO.N,IO40{slash}SDDAT1*%
X126900000Y-109000000D03*
%TO.N,IO39{slash}SDDAT0*%
X128180000Y-109140000D03*
%TO.N,IO43{slash}SDCLK*%
X123166397Y-108970000D03*
%TO.N,IO44{slash}SDCMD*%
X121825000Y-109105000D03*
%TO.N,+3V3*%
X107840000Y-114285000D03*
X107090000Y-114285000D03*
X110110000Y-113260000D03*
%TO.N,CHIP_PU*%
X118230000Y-114680000D03*
%TD*%
D16*
%TO.N,+3V3*%
X131800000Y-103075000D02*
X130740000Y-103075000D01*
D17*
%TO.N,IO4{slash}TRST*%
X116205250Y-120615250D02*
X111145000Y-115555000D01*
%TO.N,Net-(U1-GPIO36)*%
X135440000Y-121370000D02*
X135175500Y-121105500D01*
X133384500Y-121105500D02*
X132769750Y-121720250D01*
X135175500Y-121105500D02*
X133384500Y-121105500D01*
X132769750Y-121720250D02*
X132769750Y-122467506D01*
X132769750Y-122467506D02*
X132497506Y-122739750D01*
X132497506Y-122739750D02*
X132490250Y-122739750D01*
X132490250Y-122739750D02*
X132130000Y-123100000D01*
X132130000Y-123100000D02*
X131710000Y-123100000D01*
D18*
%TO.N,IO35{slash}BOOT*%
X131200000Y-124260000D02*
X131570000Y-123890000D01*
X131570000Y-123890000D02*
X135220000Y-123890000D01*
D17*
%TO.N,IO37{slash}U0TXD*%
X132810000Y-123100000D02*
X138292244Y-123100000D01*
X138292244Y-123100000D02*
X138837494Y-122554750D01*
X139337256Y-122440000D02*
X143030000Y-122440000D01*
X138837494Y-122554750D02*
X139222506Y-122554750D01*
X139222506Y-122554750D02*
X139337256Y-122440000D01*
X143030000Y-122440000D02*
X143065000Y-122405000D01*
D16*
%TO.N,+3V3*%
X132525000Y-103075000D02*
X131800000Y-103075000D01*
X130740000Y-103075000D02*
X130715000Y-103050000D01*
D17*
%TO.N,IO38{slash}U0RXD*%
X142060000Y-120040000D02*
X142655000Y-120635000D01*
X132860000Y-120850000D02*
X138281028Y-120850000D01*
X139091028Y-120040000D02*
X142060000Y-120040000D01*
X132305000Y-121405000D02*
X132860000Y-120850000D01*
X132305000Y-122275000D02*
X132305000Y-121405000D01*
X142655000Y-120635000D02*
X142930000Y-120635000D01*
X138281028Y-120850000D02*
X139091028Y-120040000D01*
%TO.N,JTAG_D+*%
X139010000Y-119570000D02*
X139215000Y-119365000D01*
X139215000Y-119365000D02*
X140550000Y-119365000D01*
D19*
%TO.N,IO9{slash}nRST*%
X117590000Y-123250000D02*
X117570000Y-123270000D01*
X117570000Y-123270000D02*
X114020000Y-123270000D01*
X114020000Y-123270000D02*
X113610000Y-122860000D01*
X113610000Y-122860000D02*
X109765000Y-122860000D01*
X109765000Y-122860000D02*
X109450000Y-123175000D01*
D17*
%TO.N,GND*%
X120570000Y-104980000D02*
X120555000Y-104995000D01*
X120555000Y-104995000D02*
X120555000Y-106950000D01*
D16*
%TO.N,+3V3*%
X130715000Y-105320000D02*
X130715000Y-106950000D01*
X130715000Y-104680000D02*
X130715000Y-104975000D01*
X142470000Y-114290000D02*
X141870000Y-114290000D01*
D19*
%TO.N,FLASH_D*%
X123245000Y-129515000D02*
X123235000Y-129515000D01*
X120600000Y-134470000D02*
X119500000Y-134470000D01*
X123235000Y-129515000D02*
X123000000Y-129750000D01*
X123000000Y-129750000D02*
X123000000Y-130425319D01*
X123000000Y-130425319D02*
X122750000Y-130675319D01*
X122750000Y-130675319D02*
X122750000Y-132320000D01*
X122750000Y-132320000D02*
X120600000Y-134470000D01*
%TO.N,FLASH_CK*%
X123480000Y-130120000D02*
X123400000Y-130200000D01*
X123400000Y-130200000D02*
X123400000Y-130580000D01*
X123020000Y-132530000D02*
X119820000Y-135730000D01*
X123400000Y-130580000D02*
X123020000Y-130960000D01*
X123020000Y-130960000D02*
X123020000Y-132530000D01*
%TO.N,FLASH_HD*%
X123700000Y-131110000D02*
X123380000Y-131430000D01*
X123700000Y-131040000D02*
X123700000Y-131110000D01*
X123380000Y-131430000D02*
X123380000Y-132610000D01*
X123380000Y-132610000D02*
X119470000Y-136520000D01*
X119470000Y-136520000D02*
X119470000Y-136970000D01*
D17*
%TO.N,IO35{slash}BOOT*%
X142180000Y-118090000D02*
X142050000Y-118090000D01*
X142180000Y-118090000D02*
X144445000Y-118090000D01*
X144445000Y-118090000D02*
X144450000Y-118095000D01*
%TO.N,CHIP_PU*%
X142430000Y-116825000D02*
X144450000Y-116825000D01*
%TO.N,IO29*%
X142995000Y-115555000D02*
X142970000Y-115580000D01*
X144450000Y-115555000D02*
X142995000Y-115555000D01*
%TO.N,FLASH_CK*%
X119820000Y-135730000D02*
X119490000Y-135730000D01*
X119490000Y-135730000D02*
X119470000Y-135750000D01*
D20*
%TO.N,JTAG_D-*%
X130730000Y-129080000D02*
X130730000Y-128700000D01*
X130820000Y-128610000D02*
X132345190Y-128610000D01*
X130730000Y-128700000D02*
X130820000Y-128610000D01*
X132345190Y-128610000D02*
X133845000Y-130109810D01*
X133845000Y-130109810D02*
X133845000Y-133920000D01*
%TO.N,JTAG_D+*%
X131240000Y-128120000D02*
X131400000Y-128280000D01*
X134175000Y-129973118D02*
X134175000Y-133860000D01*
X131400000Y-128280000D02*
X132481882Y-128280000D01*
X132481882Y-128280000D02*
X134175000Y-129973118D01*
D17*
%TO.N,IO38{slash}U0RXD*%
X142930000Y-120635000D02*
X144450000Y-120635000D01*
%TO.N,JTAG_D-*%
X139020000Y-121040000D02*
X139425000Y-120635000D01*
X139425000Y-120635000D02*
X140550000Y-120635000D01*
%TO.N,USB_D-*%
X139030000Y-123140000D02*
X139065000Y-123175000D01*
X139065000Y-123175000D02*
X140550000Y-123175000D01*
X139010000Y-123140000D02*
X139030000Y-123140000D01*
%TO.N,USB_D+*%
X139030000Y-121990000D02*
X139115000Y-121905000D01*
X139115000Y-121905000D02*
X140550000Y-121905000D01*
X139030000Y-122090000D02*
X139030000Y-121990000D01*
%TO.N,IO37{slash}U0TXD*%
X143065000Y-122405000D02*
X143565000Y-121905000D01*
X143565000Y-121905000D02*
X144450000Y-121905000D01*
%TO.N,IO26*%
X137210000Y-119050000D02*
X138165000Y-118095000D01*
X138165000Y-118095000D02*
X140550000Y-118095000D01*
X137210000Y-119150000D02*
X137210000Y-119050000D01*
%TO.N,IO27*%
X136960000Y-118140000D02*
X137385000Y-118140000D01*
X137385000Y-118140000D02*
X138700000Y-116825000D01*
X138700000Y-116825000D02*
X140550000Y-116825000D01*
%TO.N,CHIP_PU*%
X135810000Y-118500000D02*
X135730000Y-118500000D01*
D19*
%TO.N,IO51*%
X122480000Y-109690000D02*
X122480000Y-103665000D01*
X122480000Y-103665000D02*
X123095000Y-103050000D01*
D17*
%TO.N,IO45{slash}SDDET*%
X129470000Y-108790000D02*
X129470000Y-108720000D01*
X129445000Y-108695000D02*
X129445000Y-106950000D01*
X129470000Y-108720000D02*
X129445000Y-108695000D01*
%TO.N,IO47*%
X127500000Y-103725000D02*
X127500000Y-109720000D01*
%TO.N,IO52*%
X121150000Y-109800000D02*
X121150000Y-109160000D01*
%TO.N,IO49*%
X124970000Y-109710000D02*
X124970000Y-103715000D01*
X124970000Y-103715000D02*
X124990000Y-103695000D01*
D19*
%TO.N,IO50*%
X123800000Y-109720000D02*
X123800000Y-103615000D01*
X123800000Y-103615000D02*
X124365000Y-103050000D01*
D17*
%TO.N,IO48*%
X126280000Y-109610000D02*
X126280000Y-103675000D01*
D19*
%TO.N,IO46*%
X128850000Y-109710000D02*
X128850000Y-109750000D01*
D16*
%TO.N,GND*%
X120555000Y-108500000D02*
X120555000Y-106950000D01*
D19*
%TO.N,IO53*%
X119900000Y-109460000D02*
X119900000Y-103705000D01*
X119900000Y-103705000D02*
X120555000Y-103050000D01*
%TO.N,IO52*%
X121150000Y-109160000D02*
X121150000Y-103725000D01*
X121150000Y-103725000D02*
X121825000Y-103050000D01*
%TO.N,IO49*%
X124990000Y-103695000D02*
X125635000Y-103050000D01*
D21*
%TO.N,GND*%
X109450000Y-121905000D02*
X112535000Y-121905000D01*
X112535000Y-121905000D02*
X112650000Y-122020000D01*
D17*
%TO.N,IO4{slash}TRST*%
X117910000Y-120630000D02*
X117895250Y-120615250D01*
X117895250Y-120615250D02*
X116205250Y-120615250D01*
X111145000Y-115555000D02*
X109450000Y-115555000D01*
%TO.N,IO5{slash}TDI*%
X109450000Y-116825000D02*
X111755000Y-116825000D01*
X111755000Y-116825000D02*
X116040000Y-121110000D01*
X116040000Y-121110000D02*
X117110000Y-121110000D01*
%TO.N,IO6{slash}SWDIO*%
X114832847Y-120768871D02*
X114768871Y-120768871D01*
X114768871Y-120768871D02*
X112095000Y-118095000D01*
X112095000Y-118095000D02*
X109450000Y-118095000D01*
D19*
%TO.N,IO7{slash}SWCLK*%
X114250000Y-121000000D02*
X112615000Y-119365000D01*
X112615000Y-119365000D02*
X109450000Y-119365000D01*
%TO.N,IO8{slash}BOOT*%
X113640000Y-121490000D02*
X112915000Y-120765000D01*
X112915000Y-120765000D02*
X109580000Y-120765000D01*
X109580000Y-120765000D02*
X109450000Y-120635000D01*
%TO.N,IO3*%
X107425000Y-118225000D02*
X107470000Y-118225000D01*
X107470000Y-118225000D02*
X107340000Y-118095000D01*
X107340000Y-118095000D02*
X105550000Y-118095000D01*
D17*
%TO.N,IO10{slash}TDO*%
X110115317Y-124445000D02*
X109450000Y-124445000D01*
X113180000Y-123440000D02*
X113035250Y-123295250D01*
X113035250Y-123295250D02*
X111265067Y-123295250D01*
X111265067Y-123295250D02*
X110115317Y-124445000D01*
%TO.N,IO11{slash}nRST*%
X111470000Y-123790000D02*
X111470000Y-124525000D01*
X111470000Y-124525000D02*
X110280000Y-125715000D01*
X110280000Y-125715000D02*
X109450000Y-125715000D01*
D19*
X109545000Y-125715000D02*
X109450000Y-125715000D01*
D17*
%TO.N,IO17*%
X107161000Y-125639000D02*
X106991000Y-125639000D01*
X106991000Y-125639000D02*
X106915000Y-125715000D01*
X106915000Y-125715000D02*
X105550000Y-125715000D01*
D19*
%TO.N,IO41{slash}SDDAT2*%
X125635000Y-106950000D02*
X125635000Y-109080000D01*
D17*
%TO.N,IO42{slash}SDDAT3*%
X124350000Y-109010000D02*
X124365000Y-108995000D01*
X124365000Y-108995000D02*
X124365000Y-106950000D01*
D19*
%TO.N,IO43{slash}SDCLK*%
X123166397Y-108970000D02*
X123095000Y-108898603D01*
X123095000Y-108898603D02*
X123095000Y-106950000D01*
%TO.N,IO41{slash}SDDAT2*%
X125635000Y-109080000D02*
X125635000Y-109135000D01*
%TO.N,IO44{slash}SDCMD*%
X121825000Y-109105000D02*
X121850000Y-109130000D01*
X121825000Y-109105000D02*
X121825000Y-106950000D01*
D16*
%TO.N,+3V3*%
X107840000Y-114285000D02*
X107760000Y-114285000D01*
X142480000Y-114290000D02*
X142470000Y-114290000D01*
X110110000Y-113625000D02*
X109450000Y-114285000D01*
X109450000Y-114285000D02*
X107840000Y-114285000D01*
X107090000Y-114285000D02*
X105550000Y-114285000D01*
X130715000Y-103050000D02*
X130715000Y-104680000D01*
X110110000Y-113260000D02*
X110110000Y-113625000D01*
D21*
X109450000Y-114285000D02*
X109565000Y-114285000D01*
D16*
X141865000Y-114285000D02*
X140550000Y-114285000D01*
X141870000Y-114290000D02*
X141865000Y-114285000D01*
X143135000Y-114285000D02*
X144450000Y-114285000D01*
X107760000Y-114285000D02*
X107090000Y-114285000D01*
X143130000Y-114290000D02*
X143135000Y-114285000D01*
X130715000Y-104975000D02*
X130715000Y-105320000D01*
X142480000Y-114290000D02*
X143130000Y-114290000D01*
%TO.N,GND*%
X119285000Y-103050000D02*
X119285000Y-104940000D01*
X119285000Y-104940000D02*
X119285000Y-106950000D01*
D17*
%TO.N,CHIP_PU*%
X137605317Y-116190000D02*
X136200000Y-117595317D01*
X142425000Y-116825000D02*
X141790000Y-116190000D01*
X142425000Y-116825000D02*
X142430000Y-116825000D01*
X141790000Y-116190000D02*
X137605317Y-116190000D01*
%TO.N,IO13*%
X107110000Y-120635000D02*
X107115000Y-120635000D01*
X107115000Y-120635000D02*
X107120000Y-120640000D01*
X105550000Y-120635000D02*
X107110000Y-120635000D01*
D19*
%TO.N,IO12*%
X107685000Y-119535000D02*
X107515000Y-119365000D01*
X107515000Y-119365000D02*
X105550000Y-119365000D01*
D17*
%TO.N,IO15{slash}UART_RX*%
X106975000Y-123175000D02*
X107000000Y-123200000D01*
X105550000Y-123175000D02*
X106975000Y-123175000D01*
%TO.N,IO14{slash}UART_TX*%
X105550000Y-121905000D02*
X106995000Y-121905000D01*
X106995000Y-121905000D02*
X107000000Y-121900000D01*
D19*
%TO.N,IO40{slash}SDDAT1*%
X126900000Y-109140000D02*
X126900000Y-109050000D01*
X126900000Y-109050000D02*
X126905000Y-109045000D01*
X126905000Y-109045000D02*
X126905000Y-106950000D01*
%TO.N,IO41{slash}SDDAT2*%
X125635000Y-109135000D02*
X125650000Y-109150000D01*
%TO.N,IO39{slash}SDDAT0*%
X128180000Y-109140000D02*
X128180000Y-109030000D01*
X128180000Y-109030000D02*
X128175000Y-109025000D01*
X128175000Y-109025000D02*
X128175000Y-106950000D01*
D17*
%TO.N,IO16*%
X105550000Y-124445000D02*
X106945000Y-124445000D01*
D16*
%TO.N,IO28*%
X140550000Y-115500000D02*
X140550000Y-115555000D01*
D19*
X140505000Y-115600000D02*
X140550000Y-115555000D01*
X138900000Y-115600000D02*
X140505000Y-115600000D01*
%TO.N,IO2*%
X107400000Y-117000000D02*
X107225000Y-116825000D01*
X107560000Y-117000000D02*
X107400000Y-117000000D01*
X107225000Y-116825000D02*
X105550000Y-116825000D01*
%TO.N,IO48*%
X126280000Y-103675000D02*
X126905000Y-103050000D01*
%TO.N,IO46*%
X128850000Y-103645000D02*
X128850000Y-109710000D01*
X129445000Y-103050000D02*
X128850000Y-103645000D01*
%TO.N,IO47*%
X127500000Y-103725000D02*
X128175000Y-103050000D01*
D17*
%TO.N,JTAG_D-*%
X132580000Y-135650000D02*
X133845000Y-134385000D01*
X133845000Y-134385000D02*
X133845000Y-133920000D01*
%TO.N,JTAG_D+*%
X134175000Y-134405000D02*
X134580000Y-134810000D01*
X134580000Y-134810000D02*
X134580000Y-135650000D01*
X134175000Y-133860000D02*
X134175000Y-134405000D01*
%TO.N,CHIP_PU*%
X135930000Y-118500000D02*
X135810000Y-118500000D01*
X136200000Y-118230000D02*
X135930000Y-118500000D01*
X136200000Y-117595317D02*
X136200000Y-118230000D01*
%TD*%
%TA.AperFunction,Conductor*%
%TO.N,GND*%
G36*
X112007218Y-118380924D02*
G01*
X112595468Y-118969174D01*
X112617142Y-119021500D01*
X112595468Y-119073826D01*
X112543142Y-119095500D01*
X110924500Y-119095500D01*
X110872174Y-119073826D01*
X110850500Y-119021500D01*
X110850500Y-118975253D01*
X110849022Y-118967822D01*
X110838867Y-118916769D01*
X110794552Y-118850448D01*
X110752757Y-118822521D01*
X110728232Y-118806133D01*
X110718413Y-118804180D01*
X110710357Y-118802577D01*
X110663266Y-118771113D01*
X110652216Y-118715564D01*
X110683681Y-118668472D01*
X110710357Y-118657422D01*
X110728231Y-118653867D01*
X110794552Y-118609552D01*
X110838867Y-118543231D01*
X110850500Y-118484748D01*
X110850500Y-118433250D01*
X110872174Y-118380924D01*
X110924500Y-118359250D01*
X111954892Y-118359250D01*
X112007218Y-118380924D01*
G37*
%TD.AperFunction*%
%TA.AperFunction,Conductor*%
G36*
X111667218Y-117110924D02*
G01*
X112293322Y-117737028D01*
X112314996Y-117789354D01*
X112293322Y-117841680D01*
X112240996Y-117863354D01*
X112212679Y-117857722D01*
X112181480Y-117844799D01*
X112181479Y-117844798D01*
X112147563Y-117830750D01*
X110924500Y-117830750D01*
X110872174Y-117809076D01*
X110850500Y-117756750D01*
X110850500Y-117705253D01*
X110849775Y-117701609D01*
X110838867Y-117646769D01*
X110832897Y-117637835D01*
X110823574Y-117623882D01*
X110794552Y-117580448D01*
X110772343Y-117565608D01*
X110728232Y-117536133D01*
X110718413Y-117534180D01*
X110710357Y-117532577D01*
X110663266Y-117501113D01*
X110652216Y-117445564D01*
X110683681Y-117398472D01*
X110710357Y-117387422D01*
X110728231Y-117383867D01*
X110794552Y-117339552D01*
X110838867Y-117273231D01*
X110850500Y-117214748D01*
X110850500Y-117163250D01*
X110872174Y-117110924D01*
X110924500Y-117089250D01*
X111614892Y-117089250D01*
X111667218Y-117110924D01*
G37*
%TD.AperFunction*%
%TA.AperFunction,Conductor*%
G36*
X111057218Y-115840924D02*
G01*
X111650718Y-116434424D01*
X111672392Y-116486750D01*
X111650718Y-116539076D01*
X111598392Y-116560750D01*
X110924500Y-116560750D01*
X110872174Y-116539076D01*
X110850500Y-116486750D01*
X110850500Y-116435253D01*
X110844522Y-116405199D01*
X110838867Y-116376769D01*
X110794552Y-116310448D01*
X110772343Y-116295608D01*
X110728232Y-116266133D01*
X110718413Y-116264180D01*
X110710357Y-116262577D01*
X110663266Y-116231113D01*
X110652216Y-116175564D01*
X110683681Y-116128472D01*
X110710357Y-116117422D01*
X110728231Y-116113867D01*
X110794552Y-116069552D01*
X110838867Y-116003231D01*
X110850500Y-115944748D01*
X110850500Y-115893250D01*
X110872174Y-115840924D01*
X110924500Y-115819250D01*
X111004892Y-115819250D01*
X111057218Y-115840924D01*
G37*
%TD.AperFunction*%
%TA.AperFunction,Conductor*%
G36*
X147477826Y-100022174D02*
G01*
X147499500Y-100074500D01*
X147499500Y-139925500D01*
X147477826Y-139977826D01*
X147425500Y-139999500D01*
X102574500Y-139999500D01*
X102522174Y-139977826D01*
X102500500Y-139925500D01*
X102500500Y-138380688D01*
X116519500Y-138380688D01*
X116519500Y-138499311D01*
X116550199Y-138613882D01*
X116550201Y-138613887D01*
X116609508Y-138716609D01*
X116609509Y-138716610D01*
X116609511Y-138716613D01*
X116693387Y-138800489D01*
X116796114Y-138859799D01*
X116796115Y-138859799D01*
X116796117Y-138859800D01*
X116853402Y-138875149D01*
X116910688Y-138890499D01*
X116910689Y-138890500D01*
X116910691Y-138890500D01*
X117029311Y-138890500D01*
X117029311Y-138890499D01*
X117143886Y-138859799D01*
X117246613Y-138800489D01*
X117330489Y-138716613D01*
X117389799Y-138613886D01*
X117420499Y-138499311D01*
X117420500Y-138499311D01*
X117420500Y-138380689D01*
X117420499Y-138380688D01*
X117389800Y-138266117D01*
X117389798Y-138266112D01*
X117330491Y-138163390D01*
X117330490Y-138163389D01*
X117330489Y-138163387D01*
X117246613Y-138079511D01*
X117246610Y-138079509D01*
X117246609Y-138079508D01*
X117143887Y-138020201D01*
X117143882Y-138020199D01*
X117029311Y-137989500D01*
X117029309Y-137989500D01*
X116910691Y-137989500D01*
X116910689Y-137989500D01*
X116796117Y-138020199D01*
X116796112Y-138020201D01*
X116693390Y-138079508D01*
X116609508Y-138163390D01*
X116550201Y-138266112D01*
X116550199Y-138266117D01*
X116519500Y-138380688D01*
X102500500Y-138380688D01*
X102500500Y-135690688D01*
X119019500Y-135690688D01*
X119019500Y-135809311D01*
X119050199Y-135923882D01*
X119050201Y-135923887D01*
X119109508Y-136026609D01*
X119109509Y-136026610D01*
X119109511Y-136026613D01*
X119193387Y-136110489D01*
X119193389Y-136110490D01*
X119193390Y-136110491D01*
X119300314Y-136172224D01*
X119299399Y-136173807D01*
X119305279Y-136179687D01*
X119318870Y-136185312D01*
X119324512Y-136198920D01*
X119334928Y-136209337D01*
X119334928Y-136224044D01*
X119340561Y-136237631D01*
X119334928Y-136251242D01*
X119334928Y-136265974D01*
X119318904Y-136289964D01*
X119317358Y-136291511D01*
X119241527Y-136367342D01*
X119200500Y-136466391D01*
X119200500Y-136571746D01*
X119178826Y-136624072D01*
X119109508Y-136693390D01*
X119050201Y-136796112D01*
X119050199Y-136796117D01*
X119019500Y-136910688D01*
X119019500Y-137029311D01*
X119050199Y-137143882D01*
X119050201Y-137143887D01*
X119109508Y-137246609D01*
X119109509Y-137246610D01*
X119109511Y-137246613D01*
X119193387Y-137330489D01*
X119296114Y-137389799D01*
X119296115Y-137389799D01*
X119296117Y-137389800D01*
X119353402Y-137405149D01*
X119410688Y-137420499D01*
X119410689Y-137420500D01*
X119410691Y-137420500D01*
X119529311Y-137420500D01*
X119529311Y-137420499D01*
X119643886Y-137389799D01*
X119746613Y-137330489D01*
X119830489Y-137246613D01*
X119889799Y-137143886D01*
X119920499Y-137029311D01*
X119920500Y-137029311D01*
X119920500Y-136910689D01*
X119920499Y-136910688D01*
X119889800Y-136796117D01*
X119889798Y-136796112D01*
X119830491Y-136693390D01*
X119830490Y-136693389D01*
X119830489Y-136693387D01*
X119806440Y-136669338D01*
X119784767Y-136617014D01*
X119806440Y-136564689D01*
X121415877Y-134955252D01*
X129704500Y-134955252D01*
X129704500Y-136344748D01*
X129708994Y-136367340D01*
X129716133Y-136403232D01*
X129739300Y-136437903D01*
X129760448Y-136469552D01*
X129793826Y-136491855D01*
X129826767Y-136513866D01*
X129826768Y-136513866D01*
X129826769Y-136513867D01*
X129885252Y-136525500D01*
X129885254Y-136525500D01*
X131274746Y-136525500D01*
X131274748Y-136525500D01*
X131333231Y-136513867D01*
X131399552Y-136469552D01*
X131443867Y-136403231D01*
X131455500Y-136344748D01*
X131455500Y-134955252D01*
X131443867Y-134896769D01*
X131439210Y-134889800D01*
X131423191Y-134865826D01*
X131399552Y-134830448D01*
X131366171Y-134808143D01*
X131333232Y-134786133D01*
X131333233Y-134786133D01*
X131303989Y-134780316D01*
X131274748Y-134774500D01*
X129885252Y-134774500D01*
X129856010Y-134780316D01*
X129826767Y-134786133D01*
X129760449Y-134830447D01*
X129760447Y-134830449D01*
X129716133Y-134896767D01*
X129708377Y-134935757D01*
X129704500Y-134955252D01*
X121415877Y-134955252D01*
X123522251Y-132848877D01*
X123522254Y-132848876D01*
X123532659Y-132838471D01*
X123532660Y-132838471D01*
X123608471Y-132762660D01*
X123649500Y-132663607D01*
X123649500Y-131572282D01*
X123671174Y-131519956D01*
X123678956Y-131512174D01*
X123731282Y-131490500D01*
X123759311Y-131490500D01*
X123759311Y-131490499D01*
X123873886Y-131459799D01*
X123976613Y-131400489D01*
X124060489Y-131316613D01*
X124119799Y-131213886D01*
X124150499Y-131099311D01*
X124150500Y-131099311D01*
X124150500Y-130980689D01*
X124150499Y-130980688D01*
X124146295Y-130965000D01*
X124119799Y-130866114D01*
X124060489Y-130763387D01*
X123976613Y-130679511D01*
X123976610Y-130679509D01*
X123976609Y-130679508D01*
X123873887Y-130620201D01*
X123873882Y-130620199D01*
X123795011Y-130599066D01*
X123750078Y-130564588D01*
X123742686Y-130508435D01*
X123761835Y-130475266D01*
X123840489Y-130396613D01*
X123899799Y-130293886D01*
X123930499Y-130179311D01*
X123930500Y-130179311D01*
X123930500Y-130060689D01*
X123930499Y-130060688D01*
X123899800Y-129946117D01*
X123899798Y-129946112D01*
X123840491Y-129843390D01*
X123840490Y-129843389D01*
X123840489Y-129843387D01*
X123756613Y-129759511D01*
X123744966Y-129752786D01*
X123709884Y-129732531D01*
X123675407Y-129687597D01*
X123675408Y-129649293D01*
X123676378Y-129645669D01*
X123695499Y-129574311D01*
X123695500Y-129574311D01*
X123695500Y-129455689D01*
X123695499Y-129455688D01*
X123691426Y-129440489D01*
X123664799Y-129341114D01*
X123614438Y-129253887D01*
X123605491Y-129238390D01*
X123605490Y-129238389D01*
X123605489Y-129238387D01*
X123521613Y-129154511D01*
X123521610Y-129154509D01*
X123521609Y-129154508D01*
X123418887Y-129095201D01*
X123418882Y-129095199D01*
X123389472Y-129087319D01*
X123304311Y-129064500D01*
X123304309Y-129064500D01*
X123185691Y-129064500D01*
X123185689Y-129064500D01*
X123071117Y-129095199D01*
X123071112Y-129095201D01*
X122968390Y-129154508D01*
X122884508Y-129238390D01*
X122825201Y-129341112D01*
X122825199Y-129341117D01*
X122794500Y-129455688D01*
X122794500Y-129543717D01*
X122774968Y-129590875D01*
X122775577Y-129591282D01*
X122773533Y-129594339D01*
X122772830Y-129596039D01*
X122771528Y-129597340D01*
X122771528Y-129597341D01*
X122730500Y-129696391D01*
X122730500Y-130014747D01*
X122708826Y-130067073D01*
X122656500Y-130088747D01*
X122604175Y-130067073D01*
X122566613Y-130029511D01*
X122566610Y-130029509D01*
X122566609Y-130029508D01*
X122463887Y-129970201D01*
X122463882Y-129970199D01*
X122349311Y-129939500D01*
X122349309Y-129939500D01*
X122230691Y-129939500D01*
X122230689Y-129939500D01*
X122116117Y-129970199D01*
X122116112Y-129970201D01*
X122013390Y-130029508D01*
X121929508Y-130113390D01*
X121870201Y-130216112D01*
X121870199Y-130216117D01*
X121839500Y-130330688D01*
X121839500Y-130449311D01*
X121870199Y-130563882D01*
X121870201Y-130563887D01*
X121929508Y-130666609D01*
X121929509Y-130666610D01*
X121929511Y-130666613D01*
X122013387Y-130750489D01*
X122013389Y-130750490D01*
X122013390Y-130750491D01*
X122116112Y-130809798D01*
X122116114Y-130809799D01*
X122116115Y-130809799D01*
X122116117Y-130809800D01*
X122173402Y-130825149D01*
X122230688Y-130840499D01*
X122230689Y-130840500D01*
X122230691Y-130840500D01*
X122349311Y-130840500D01*
X122349311Y-130840499D01*
X122372029Y-130834412D01*
X122387347Y-130830308D01*
X122443499Y-130837700D01*
X122477978Y-130882633D01*
X122480500Y-130901786D01*
X122480500Y-132177717D01*
X122458826Y-132230043D01*
X120510044Y-134178826D01*
X120457718Y-134200500D01*
X119878254Y-134200500D01*
X119825928Y-134178826D01*
X119756613Y-134109511D01*
X119756610Y-134109509D01*
X119756609Y-134109508D01*
X119653887Y-134050201D01*
X119653882Y-134050199D01*
X119539311Y-134019500D01*
X119539309Y-134019500D01*
X119420691Y-134019500D01*
X119420689Y-134019500D01*
X119306117Y-134050199D01*
X119306112Y-134050201D01*
X119203390Y-134109508D01*
X119119508Y-134193390D01*
X119060201Y-134296112D01*
X119060199Y-134296117D01*
X119029500Y-134410688D01*
X119029500Y-134529311D01*
X119060199Y-134643882D01*
X119060201Y-134643887D01*
X119119508Y-134746609D01*
X119119509Y-134746610D01*
X119119511Y-134746613D01*
X119203387Y-134830489D01*
X119203389Y-134830490D01*
X119203390Y-134830491D01*
X119306112Y-134889798D01*
X119306114Y-134889799D01*
X119306115Y-134889799D01*
X119306117Y-134889800D01*
X119332126Y-134896769D01*
X119420688Y-134920499D01*
X119420689Y-134920500D01*
X119420691Y-134920500D01*
X119539311Y-134920500D01*
X119539311Y-134920499D01*
X119653886Y-134889799D01*
X119756613Y-134830489D01*
X119825928Y-134761174D01*
X119878254Y-134739500D01*
X120250718Y-134739500D01*
X120303044Y-134761174D01*
X120324718Y-134813500D01*
X120303044Y-134865825D01*
X120217669Y-134951200D01*
X119807523Y-135361344D01*
X119755197Y-135383018D01*
X119718197Y-135373104D01*
X119643887Y-135330201D01*
X119643882Y-135330199D01*
X119529311Y-135299500D01*
X119529309Y-135299500D01*
X119410691Y-135299500D01*
X119410689Y-135299500D01*
X119296117Y-135330199D01*
X119296112Y-135330201D01*
X119193390Y-135389508D01*
X119109508Y-135473390D01*
X119050201Y-135576112D01*
X119050199Y-135576117D01*
X119019500Y-135690688D01*
X102500500Y-135690688D01*
X102500500Y-130610688D01*
X119939500Y-130610688D01*
X119939500Y-130729311D01*
X119970199Y-130843882D01*
X119970201Y-130843887D01*
X120029508Y-130946609D01*
X120029509Y-130946610D01*
X120029511Y-130946613D01*
X120113387Y-131030489D01*
X120113389Y-131030490D01*
X120113390Y-131030491D01*
X120192444Y-131076133D01*
X120216114Y-131089799D01*
X120216115Y-131089799D01*
X120216117Y-131089800D01*
X120251613Y-131099311D01*
X120330688Y-131120499D01*
X120330689Y-131120500D01*
X120330691Y-131120500D01*
X120449311Y-131120500D01*
X120449311Y-131120499D01*
X120563886Y-131089799D01*
X120666613Y-131030489D01*
X120750489Y-130946613D01*
X120809799Y-130843886D01*
X120840499Y-130729311D01*
X120840500Y-130729311D01*
X120840500Y-130610689D01*
X120840499Y-130610688D01*
X120809800Y-130496117D01*
X120809798Y-130496112D01*
X120750491Y-130393390D01*
X120750490Y-130393389D01*
X120750489Y-130393387D01*
X120666613Y-130309511D01*
X120666610Y-130309509D01*
X120666609Y-130309508D01*
X120563887Y-130250201D01*
X120563882Y-130250199D01*
X120449311Y-130219500D01*
X120449309Y-130219500D01*
X120330691Y-130219500D01*
X120330689Y-130219500D01*
X120216117Y-130250199D01*
X120216112Y-130250201D01*
X120113390Y-130309508D01*
X120029508Y-130393390D01*
X119970201Y-130496112D01*
X119970199Y-130496117D01*
X119939500Y-130610688D01*
X102500500Y-130610688D01*
X102500500Y-129020688D01*
X130279500Y-129020688D01*
X130279500Y-129139311D01*
X130310199Y-129253882D01*
X130310201Y-129253887D01*
X130369508Y-129356609D01*
X130369509Y-129356610D01*
X130369511Y-129356613D01*
X130453387Y-129440489D01*
X130453389Y-129440490D01*
X130453390Y-129440491D01*
X130556112Y-129499798D01*
X130556114Y-129499799D01*
X130556115Y-129499799D01*
X130556117Y-129499800D01*
X130654704Y-129526217D01*
X130699637Y-129560695D01*
X130707029Y-129616848D01*
X130687877Y-129650020D01*
X130639511Y-129698386D01*
X130639509Y-129698389D01*
X130580201Y-129801112D01*
X130580199Y-129801117D01*
X130549500Y-129915688D01*
X130549500Y-130034311D01*
X130580199Y-130148882D01*
X130580201Y-130148887D01*
X130639508Y-130251609D01*
X130639509Y-130251610D01*
X130639511Y-130251613D01*
X130723387Y-130335489D01*
X130723389Y-130335490D01*
X130723390Y-130335491D01*
X130826112Y-130394798D01*
X130826114Y-130394799D01*
X130826115Y-130394799D01*
X130826117Y-130394800D01*
X130883402Y-130410149D01*
X130940688Y-130425499D01*
X130940689Y-130425500D01*
X130940691Y-130425500D01*
X131059311Y-130425500D01*
X131059311Y-130425499D01*
X131173886Y-130394799D01*
X131276613Y-130335489D01*
X131360489Y-130251613D01*
X131419799Y-130148886D01*
X131450499Y-130034311D01*
X131450500Y-130034311D01*
X131450500Y-129915689D01*
X131450499Y-129915688D01*
X131419800Y-129801117D01*
X131419798Y-129801112D01*
X131360491Y-129698390D01*
X131360490Y-129698389D01*
X131360489Y-129698387D01*
X131276613Y-129614511D01*
X131276610Y-129614509D01*
X131276609Y-129614508D01*
X131173887Y-129555201D01*
X131173882Y-129555199D01*
X131075295Y-129528782D01*
X131030362Y-129494303D01*
X131022970Y-129438151D01*
X131042121Y-129404980D01*
X131090489Y-129356613D01*
X131149799Y-129253886D01*
X131180499Y-129139311D01*
X131180500Y-129139311D01*
X131180500Y-129020689D01*
X131180499Y-129020688D01*
X131166557Y-128968653D01*
X131173949Y-128912500D01*
X131218882Y-128878022D01*
X131238035Y-128875500D01*
X132204564Y-128875500D01*
X132256890Y-128897174D01*
X133557826Y-130198110D01*
X133579500Y-130250436D01*
X133579500Y-133973697D01*
X133580750Y-133986383D01*
X133580750Y-134244891D01*
X133559076Y-134297217D01*
X133020791Y-134835502D01*
X132968465Y-134857176D01*
X132940147Y-134851543D01*
X132835378Y-134808146D01*
X132835367Y-134808143D01*
X132707942Y-134782797D01*
X132666229Y-134774500D01*
X132493771Y-134774500D01*
X132460309Y-134781155D01*
X132324632Y-134808143D01*
X132324621Y-134808146D01*
X132165297Y-134874140D01*
X132021904Y-134969952D01*
X131899952Y-135091904D01*
X131804140Y-135235297D01*
X131738146Y-135394621D01*
X131738143Y-135394632D01*
X131704500Y-135563771D01*
X131704500Y-135736228D01*
X131738143Y-135905367D01*
X131738146Y-135905378D01*
X131804140Y-136064702D01*
X131893821Y-136198920D01*
X131899955Y-136208099D01*
X132021901Y-136330045D01*
X132165295Y-136425858D01*
X132165296Y-136425858D01*
X132165297Y-136425859D01*
X132324621Y-136491853D01*
X132324626Y-136491855D01*
X132493771Y-136525500D01*
X132493772Y-136525500D01*
X132666228Y-136525500D01*
X132666229Y-136525500D01*
X132835374Y-136491855D01*
X132994705Y-136425858D01*
X133138099Y-136330045D01*
X133260045Y-136208099D01*
X133355858Y-136064705D01*
X133421855Y-135905374D01*
X133455500Y-135736229D01*
X133455500Y-135563771D01*
X133421855Y-135394626D01*
X133395169Y-135330201D01*
X133378456Y-135289851D01*
X133378456Y-135233214D01*
X133394494Y-135209210D01*
X133947676Y-134656029D01*
X133999999Y-134634357D01*
X134052325Y-134656031D01*
X134164563Y-134768269D01*
X134186237Y-134820595D01*
X134164563Y-134872921D01*
X134153349Y-134882124D01*
X134021904Y-134969952D01*
X133899952Y-135091904D01*
X133804140Y-135235297D01*
X133738146Y-135394621D01*
X133738143Y-135394632D01*
X133704500Y-135563771D01*
X133704500Y-135736228D01*
X133738143Y-135905367D01*
X133738146Y-135905378D01*
X133804140Y-136064702D01*
X133893821Y-136198920D01*
X133899955Y-136208099D01*
X134021901Y-136330045D01*
X134165295Y-136425858D01*
X134165296Y-136425858D01*
X134165297Y-136425859D01*
X134324621Y-136491853D01*
X134324626Y-136491855D01*
X134493771Y-136525500D01*
X134493772Y-136525500D01*
X134666228Y-136525500D01*
X134666229Y-136525500D01*
X134835374Y-136491855D01*
X134994705Y-136425858D01*
X135138099Y-136330045D01*
X135260045Y-136208099D01*
X135355858Y-136064705D01*
X135421855Y-135905374D01*
X135455500Y-135736229D01*
X135455500Y-135563771D01*
X135453551Y-135553971D01*
X135605000Y-135553971D01*
X135605000Y-135746028D01*
X135642466Y-135934390D01*
X135642468Y-135934397D01*
X135715966Y-136111836D01*
X135792094Y-136225770D01*
X136209532Y-135808332D01*
X136259920Y-135895606D01*
X136334394Y-135970080D01*
X136421665Y-136020465D01*
X136004227Y-136437903D01*
X136118167Y-136514035D01*
X136295602Y-136587531D01*
X136295609Y-136587533D01*
X136483972Y-136625000D01*
X136676028Y-136625000D01*
X136864390Y-136587533D01*
X136864397Y-136587531D01*
X137041835Y-136514034D01*
X137155771Y-136437904D01*
X137155771Y-136437903D01*
X136738334Y-136020466D01*
X136825606Y-135970080D01*
X136900080Y-135895606D01*
X136950466Y-135808334D01*
X137367903Y-136225771D01*
X137367904Y-136225771D01*
X137444034Y-136111835D01*
X137517531Y-135934397D01*
X137517533Y-135934390D01*
X137555000Y-135746028D01*
X137555000Y-135553971D01*
X137517533Y-135365609D01*
X137517531Y-135365602D01*
X137444035Y-135188167D01*
X137367903Y-135074227D01*
X136950465Y-135491665D01*
X136900080Y-135404394D01*
X136825606Y-135329920D01*
X136738332Y-135279533D01*
X137155771Y-134862094D01*
X137041836Y-134785966D01*
X136864397Y-134712468D01*
X136864390Y-134712466D01*
X136676028Y-134675000D01*
X136483972Y-134675000D01*
X136295609Y-134712466D01*
X136295602Y-134712468D01*
X136118163Y-134785966D01*
X136004227Y-134862094D01*
X136421666Y-135279533D01*
X136334394Y-135329920D01*
X136259920Y-135404394D01*
X136209533Y-135491666D01*
X135792094Y-135074227D01*
X135715966Y-135188163D01*
X135642468Y-135365602D01*
X135642466Y-135365609D01*
X135605000Y-135553971D01*
X135453551Y-135553971D01*
X135421855Y-135394626D01*
X135395169Y-135330201D01*
X135355859Y-135235297D01*
X135354467Y-135233214D01*
X135260045Y-135091901D01*
X135138099Y-134969955D01*
X135138095Y-134969952D01*
X135138093Y-134969950D01*
X135110031Y-134951200D01*
X134994704Y-134874141D01*
X134889931Y-134830742D01*
X134849883Y-134790693D01*
X134844250Y-134762375D01*
X134844250Y-134757437D01*
X134804020Y-134660314D01*
X134460924Y-134317218D01*
X134439250Y-134264892D01*
X134439250Y-133926383D01*
X134440500Y-133913697D01*
X134440500Y-131843971D01*
X134905000Y-131843971D01*
X134905000Y-132036028D01*
X134942466Y-132224390D01*
X134942468Y-132224397D01*
X135015966Y-132401836D01*
X135092094Y-132515770D01*
X135509532Y-132098332D01*
X135559920Y-132185606D01*
X135634394Y-132260080D01*
X135721665Y-132310465D01*
X135304227Y-132727903D01*
X135418167Y-132804035D01*
X135595602Y-132877531D01*
X135595609Y-132877533D01*
X135783972Y-132915000D01*
X135976028Y-132915000D01*
X136164390Y-132877533D01*
X136164397Y-132877531D01*
X136341835Y-132804034D01*
X136455771Y-132727904D01*
X136455771Y-132727903D01*
X136038334Y-132310466D01*
X136125606Y-132260080D01*
X136200080Y-132185606D01*
X136250466Y-132098334D01*
X136667903Y-132515771D01*
X136667904Y-132515771D01*
X136744034Y-132401835D01*
X136817531Y-132224397D01*
X136817533Y-132224390D01*
X136855000Y-132036028D01*
X136855000Y-131853771D01*
X137004500Y-131853771D01*
X137004500Y-132026228D01*
X137038143Y-132195367D01*
X137038146Y-132195378D01*
X137104140Y-132354702D01*
X137104141Y-132354704D01*
X137104142Y-132354705D01*
X137199955Y-132498099D01*
X137321901Y-132620045D01*
X137465295Y-132715858D01*
X137465296Y-132715858D01*
X137465297Y-132715859D01*
X137624621Y-132781853D01*
X137624626Y-132781855D01*
X137793771Y-132815500D01*
X137793772Y-132815500D01*
X137966228Y-132815500D01*
X137966229Y-132815500D01*
X138135374Y-132781855D01*
X138294705Y-132715858D01*
X138438099Y-132620045D01*
X138560045Y-132498099D01*
X138655858Y-132354705D01*
X138721855Y-132195374D01*
X138755500Y-132026229D01*
X138755500Y-131853771D01*
X139004500Y-131853771D01*
X139004500Y-132026228D01*
X139038143Y-132195367D01*
X139038146Y-132195378D01*
X139104140Y-132354702D01*
X139104141Y-132354704D01*
X139104142Y-132354705D01*
X139199955Y-132498099D01*
X139321901Y-132620045D01*
X139465295Y-132715858D01*
X139465296Y-132715858D01*
X139465297Y-132715859D01*
X139624621Y-132781853D01*
X139624626Y-132781855D01*
X139793771Y-132815500D01*
X139793772Y-132815500D01*
X139966228Y-132815500D01*
X139966229Y-132815500D01*
X140135374Y-132781855D01*
X140294705Y-132715858D01*
X140438099Y-132620045D01*
X140560045Y-132498099D01*
X140655858Y-132354705D01*
X140721855Y-132195374D01*
X140755500Y-132026229D01*
X140755500Y-131853771D01*
X141004500Y-131853771D01*
X141004500Y-132026228D01*
X141038143Y-132195367D01*
X141038146Y-132195378D01*
X141104140Y-132354702D01*
X141104141Y-132354704D01*
X141104142Y-132354705D01*
X141199955Y-132498099D01*
X141321901Y-132620045D01*
X141465295Y-132715858D01*
X141465296Y-132715858D01*
X141465297Y-132715859D01*
X141624621Y-132781853D01*
X141624626Y-132781855D01*
X141793771Y-132815500D01*
X141793772Y-132815500D01*
X141966228Y-132815500D01*
X141966229Y-132815500D01*
X142135374Y-132781855D01*
X142294705Y-132715858D01*
X142438099Y-132620045D01*
X142560045Y-132498099D01*
X142655858Y-132354705D01*
X142721855Y-132195374D01*
X142755500Y-132026229D01*
X142755500Y-131853771D01*
X143004500Y-131853771D01*
X143004500Y-132026228D01*
X143038143Y-132195367D01*
X143038146Y-132195378D01*
X143104140Y-132354702D01*
X143104141Y-132354704D01*
X143104142Y-132354705D01*
X143199955Y-132498099D01*
X143321901Y-132620045D01*
X143465295Y-132715858D01*
X143465296Y-132715858D01*
X143465297Y-132715859D01*
X143624621Y-132781853D01*
X143624626Y-132781855D01*
X143793771Y-132815500D01*
X143793772Y-132815500D01*
X143966228Y-132815500D01*
X143966229Y-132815500D01*
X144135374Y-132781855D01*
X144294705Y-132715858D01*
X144438099Y-132620045D01*
X144560045Y-132498099D01*
X144655858Y-132354705D01*
X144721855Y-132195374D01*
X144755500Y-132026229D01*
X144755500Y-131853771D01*
X144721855Y-131684626D01*
X144655858Y-131525295D01*
X144560045Y-131381901D01*
X144438099Y-131259955D01*
X144416094Y-131245252D01*
X145004500Y-131245252D01*
X145004500Y-132634748D01*
X145010241Y-132663608D01*
X145016133Y-132693232D01*
X145039300Y-132727903D01*
X145060448Y-132759552D01*
X145093826Y-132781855D01*
X145126767Y-132803866D01*
X145126768Y-132803866D01*
X145126769Y-132803867D01*
X145185252Y-132815500D01*
X145185254Y-132815500D01*
X146574746Y-132815500D01*
X146574748Y-132815500D01*
X146633231Y-132803867D01*
X146699552Y-132759552D01*
X146743867Y-132693231D01*
X146755500Y-132634748D01*
X146755500Y-131245252D01*
X146743867Y-131186769D01*
X146699552Y-131120448D01*
X146653685Y-131089800D01*
X146633232Y-131076133D01*
X146633233Y-131076133D01*
X146603989Y-131070316D01*
X146574748Y-131064500D01*
X145185252Y-131064500D01*
X145156010Y-131070316D01*
X145126767Y-131076133D01*
X145060449Y-131120447D01*
X145060447Y-131120449D01*
X145016133Y-131186767D01*
X145016133Y-131186769D01*
X145004500Y-131245252D01*
X144416094Y-131245252D01*
X144294702Y-131164140D01*
X144135378Y-131098146D01*
X144135367Y-131098143D01*
X144007942Y-131072797D01*
X143966229Y-131064500D01*
X143793771Y-131064500D01*
X143760309Y-131071155D01*
X143624632Y-131098143D01*
X143624621Y-131098146D01*
X143465297Y-131164140D01*
X143321904Y-131259952D01*
X143199952Y-131381904D01*
X143104140Y-131525297D01*
X143038146Y-131684621D01*
X143038143Y-131684632D01*
X143004500Y-131853771D01*
X142755500Y-131853771D01*
X142721855Y-131684626D01*
X142655858Y-131525295D01*
X142560045Y-131381901D01*
X142438099Y-131259955D01*
X142416094Y-131245252D01*
X142294702Y-131164140D01*
X142135378Y-131098146D01*
X142135367Y-131098143D01*
X142007942Y-131072797D01*
X141966229Y-131064500D01*
X141793771Y-131064500D01*
X141760309Y-131071155D01*
X141624632Y-131098143D01*
X141624621Y-131098146D01*
X141465297Y-131164140D01*
X141321904Y-131259952D01*
X141199952Y-131381904D01*
X141104140Y-131525297D01*
X141038146Y-131684621D01*
X141038143Y-131684632D01*
X141004500Y-131853771D01*
X140755500Y-131853771D01*
X140721855Y-131684626D01*
X140655858Y-131525295D01*
X140560045Y-131381901D01*
X140438099Y-131259955D01*
X140416094Y-131245252D01*
X140294702Y-131164140D01*
X140135378Y-131098146D01*
X140135367Y-131098143D01*
X140007942Y-131072797D01*
X139966229Y-131064500D01*
X139793771Y-131064500D01*
X139760309Y-131071155D01*
X139624632Y-131098143D01*
X139624621Y-131098146D01*
X139465297Y-131164140D01*
X139321904Y-131259952D01*
X139199952Y-131381904D01*
X139104140Y-131525297D01*
X139038146Y-131684621D01*
X139038143Y-131684632D01*
X139004500Y-131853771D01*
X138755500Y-131853771D01*
X138721855Y-131684626D01*
X138655858Y-131525295D01*
X138560045Y-131381901D01*
X138438099Y-131259955D01*
X138416094Y-131245252D01*
X138294702Y-131164140D01*
X138135378Y-131098146D01*
X138135367Y-131098143D01*
X138007942Y-131072797D01*
X137966229Y-131064500D01*
X137793771Y-131064500D01*
X137760309Y-131071155D01*
X137624632Y-131098143D01*
X137624621Y-131098146D01*
X137465297Y-131164140D01*
X137321904Y-131259952D01*
X137199952Y-131381904D01*
X137104140Y-131525297D01*
X137038146Y-131684621D01*
X137038143Y-131684632D01*
X137004500Y-131853771D01*
X136855000Y-131853771D01*
X136855000Y-131843971D01*
X136817533Y-131655609D01*
X136817531Y-131655602D01*
X136744035Y-131478167D01*
X136667903Y-131364227D01*
X136250465Y-131781665D01*
X136200080Y-131694394D01*
X136125606Y-131619920D01*
X136038332Y-131569533D01*
X136455771Y-131152094D01*
X136341836Y-131075966D01*
X136164397Y-131002468D01*
X136164390Y-131002466D01*
X135976028Y-130965000D01*
X135783972Y-130965000D01*
X135595609Y-131002466D01*
X135595602Y-131002468D01*
X135418163Y-131075966D01*
X135304227Y-131152094D01*
X135721666Y-131569533D01*
X135634394Y-131619920D01*
X135559920Y-131694394D01*
X135509533Y-131781666D01*
X135092094Y-131364227D01*
X135015966Y-131478163D01*
X134942468Y-131655602D01*
X134942466Y-131655609D01*
X134905000Y-131843971D01*
X134440500Y-131843971D01*
X134440500Y-129920307D01*
X134407904Y-129841614D01*
X134407903Y-129841611D01*
X134400080Y-129822725D01*
X134400080Y-129822724D01*
X132632275Y-128054919D01*
X132575113Y-128031242D01*
X132534694Y-128014500D01*
X132534693Y-128014500D01*
X131734905Y-128014500D01*
X131682579Y-127992826D01*
X131663426Y-127959653D01*
X131659799Y-127946114D01*
X131600489Y-127843387D01*
X131516613Y-127759511D01*
X131516610Y-127759509D01*
X131516609Y-127759508D01*
X131413887Y-127700201D01*
X131413882Y-127700199D01*
X131299311Y-127669500D01*
X131299309Y-127669500D01*
X131180691Y-127669500D01*
X131180689Y-127669500D01*
X131066117Y-127700199D01*
X131066112Y-127700201D01*
X130963390Y-127759508D01*
X130879508Y-127843390D01*
X130820201Y-127946112D01*
X130820199Y-127946117D01*
X130789500Y-128060688D01*
X130789500Y-128060691D01*
X130789500Y-128179309D01*
X130810316Y-128256994D01*
X130802923Y-128313147D01*
X130767156Y-128344513D01*
X130710026Y-128368177D01*
X130710024Y-128368177D01*
X130669609Y-128384918D01*
X130669607Y-128384919D01*
X130504919Y-128549606D01*
X130504919Y-128549607D01*
X130498017Y-128566270D01*
X130498014Y-128566277D01*
X130496266Y-128570500D01*
X130464500Y-128647189D01*
X130464500Y-128687765D01*
X130461835Y-128697426D01*
X130450120Y-128712461D01*
X130442826Y-128730072D01*
X130369508Y-128803390D01*
X130310201Y-128906112D01*
X130310199Y-128906117D01*
X130279500Y-129020688D01*
X102500500Y-129020688D01*
X102500500Y-127313188D01*
X118052000Y-127313188D01*
X118052000Y-127431811D01*
X118082699Y-127546382D01*
X118082701Y-127546387D01*
X118142008Y-127649109D01*
X118142009Y-127649110D01*
X118142011Y-127649113D01*
X118225887Y-127732989D01*
X118225889Y-127732990D01*
X118225890Y-127732991D01*
X118271824Y-127759511D01*
X118328614Y-127792299D01*
X118328615Y-127792299D01*
X118328617Y-127792300D01*
X118385902Y-127807649D01*
X118443188Y-127822999D01*
X118443189Y-127823000D01*
X118443191Y-127823000D01*
X118561811Y-127823000D01*
X118561811Y-127822999D01*
X118676386Y-127792299D01*
X118779113Y-127732989D01*
X118862989Y-127649113D01*
X118922299Y-127546386D01*
X118945946Y-127458133D01*
X118980424Y-127413201D01*
X119036576Y-127405808D01*
X119054424Y-127413201D01*
X119072932Y-127423887D01*
X119161114Y-127474799D01*
X119161115Y-127474799D01*
X119161117Y-127474800D01*
X119218402Y-127490149D01*
X119275688Y-127505499D01*
X119275689Y-127505500D01*
X119275691Y-127505500D01*
X119394311Y-127505500D01*
X119394311Y-127505499D01*
X119508886Y-127474799D01*
X119611613Y-127415489D01*
X119695489Y-127331613D01*
X119754799Y-127228886D01*
X119762910Y-127198617D01*
X119765035Y-127190688D01*
X131819500Y-127190688D01*
X131819500Y-127309311D01*
X131850199Y-127423882D01*
X131850201Y-127423887D01*
X131909508Y-127526609D01*
X131909509Y-127526610D01*
X131909511Y-127526613D01*
X131993387Y-127610489D01*
X131993389Y-127610490D01*
X131993390Y-127610491D01*
X132060278Y-127649109D01*
X132096114Y-127669799D01*
X132096115Y-127669799D01*
X132096117Y-127669800D01*
X132153402Y-127685149D01*
X132210688Y-127700499D01*
X132210689Y-127700500D01*
X132210691Y-127700500D01*
X132329311Y-127700500D01*
X132329311Y-127700499D01*
X132443886Y-127669799D01*
X132546613Y-127610489D01*
X132630489Y-127526613D01*
X132689799Y-127423886D01*
X132698694Y-127390689D01*
X132698694Y-127390688D01*
X133159500Y-127390688D01*
X133159500Y-127509311D01*
X133190199Y-127623882D01*
X133190201Y-127623887D01*
X133249508Y-127726609D01*
X133249509Y-127726610D01*
X133249511Y-127726613D01*
X133333387Y-127810489D01*
X133333389Y-127810490D01*
X133333390Y-127810491D01*
X133436112Y-127869798D01*
X133436114Y-127869799D01*
X133436115Y-127869799D01*
X133436117Y-127869800D01*
X133493402Y-127885149D01*
X133550688Y-127900499D01*
X133550689Y-127900500D01*
X133550691Y-127900500D01*
X133669311Y-127900500D01*
X133669311Y-127900499D01*
X133783886Y-127869799D01*
X133886613Y-127810489D01*
X133970489Y-127726613D01*
X134029799Y-127623886D01*
X134060499Y-127509311D01*
X134060500Y-127509311D01*
X134060500Y-127390689D01*
X134060499Y-127390688D01*
X134055089Y-127370499D01*
X134029799Y-127276114D01*
X134002532Y-127228886D01*
X133970491Y-127173390D01*
X133970490Y-127173389D01*
X133970489Y-127173387D01*
X133886613Y-127089511D01*
X133886610Y-127089509D01*
X133886609Y-127089508D01*
X133783887Y-127030201D01*
X133783882Y-127030199D01*
X133669311Y-126999500D01*
X133669309Y-126999500D01*
X133550691Y-126999500D01*
X133550689Y-126999500D01*
X133436117Y-127030199D01*
X133436112Y-127030201D01*
X133333390Y-127089508D01*
X133249508Y-127173390D01*
X133190201Y-127276112D01*
X133190199Y-127276117D01*
X133159500Y-127390688D01*
X132698694Y-127390688D01*
X132705124Y-127366695D01*
X132705125Y-127366688D01*
X132712330Y-127339798D01*
X132720500Y-127309309D01*
X132720500Y-127190691D01*
X132720500Y-127190689D01*
X132720499Y-127190688D01*
X132689800Y-127076117D01*
X132689798Y-127076112D01*
X132630491Y-126973390D01*
X132630490Y-126973389D01*
X132630489Y-126973387D01*
X132546613Y-126889511D01*
X132546610Y-126889509D01*
X132546609Y-126889508D01*
X132496692Y-126860688D01*
X134269500Y-126860688D01*
X134269500Y-126979311D01*
X134300199Y-127093882D01*
X134300201Y-127093887D01*
X134359508Y-127196609D01*
X134359509Y-127196610D01*
X134359511Y-127196613D01*
X134443387Y-127280489D01*
X134443389Y-127280490D01*
X134443390Y-127280491D01*
X134546112Y-127339798D01*
X134546114Y-127339799D01*
X134546115Y-127339799D01*
X134546117Y-127339800D01*
X134603402Y-127355149D01*
X134660688Y-127370499D01*
X134660689Y-127370500D01*
X134660691Y-127370500D01*
X134779311Y-127370500D01*
X134779311Y-127370499D01*
X134893886Y-127339799D01*
X134996613Y-127280489D01*
X135080489Y-127196613D01*
X135139799Y-127093886D01*
X135170499Y-126979311D01*
X135170500Y-126979311D01*
X135170500Y-126860689D01*
X135170499Y-126860688D01*
X135149089Y-126780782D01*
X135156481Y-126724629D01*
X135201414Y-126690151D01*
X135257565Y-126697542D01*
X135257568Y-126697544D01*
X135296110Y-126719797D01*
X135296112Y-126719797D01*
X135296114Y-126719799D01*
X135296115Y-126719799D01*
X135296117Y-126719800D01*
X135353402Y-126735149D01*
X135410688Y-126750499D01*
X135410689Y-126750500D01*
X135410691Y-126750500D01*
X135529311Y-126750500D01*
X135529311Y-126750499D01*
X135643886Y-126719799D01*
X135746613Y-126660489D01*
X135830489Y-126576613D01*
X135889799Y-126473886D01*
X135920499Y-126359311D01*
X135920500Y-126359311D01*
X135920500Y-126240689D01*
X135920499Y-126240688D01*
X135890785Y-126129792D01*
X139050001Y-126129792D01*
X139052908Y-126154868D01*
X139052910Y-126154874D01*
X139098213Y-126257478D01*
X139177521Y-126336786D01*
X139280124Y-126382089D01*
X139280123Y-126382089D01*
X139305210Y-126384999D01*
X140400000Y-126384999D01*
X140700000Y-126384999D01*
X141794792Y-126384999D01*
X141819868Y-126382091D01*
X141819874Y-126382089D01*
X141922478Y-126336786D01*
X142001786Y-126257478D01*
X142047089Y-126154875D01*
X142050000Y-126129792D01*
X142950001Y-126129792D01*
X142952908Y-126154868D01*
X142952910Y-126154874D01*
X142998213Y-126257478D01*
X143077521Y-126336786D01*
X143180124Y-126382089D01*
X143180123Y-126382089D01*
X143205210Y-126384999D01*
X144300000Y-126384999D01*
X144600000Y-126384999D01*
X145694792Y-126384999D01*
X145719868Y-126382091D01*
X145719874Y-126382089D01*
X145822478Y-126336786D01*
X145901786Y-126257478D01*
X145947089Y-126154875D01*
X145950000Y-126129789D01*
X145950000Y-125865000D01*
X144600000Y-125865000D01*
X144600000Y-126384999D01*
X144300000Y-126384999D01*
X144300000Y-125865000D01*
X142950001Y-125865000D01*
X142950001Y-126129792D01*
X142050000Y-126129792D01*
X142050000Y-126129789D01*
X142050000Y-125865000D01*
X140700000Y-125865000D01*
X140700000Y-126384999D01*
X140400000Y-126384999D01*
X140400000Y-125865000D01*
X139050001Y-125865000D01*
X139050001Y-126129792D01*
X135890785Y-126129792D01*
X135889800Y-126126117D01*
X135889798Y-126126112D01*
X135830491Y-126023390D01*
X135830490Y-126023389D01*
X135830489Y-126023387D01*
X135746613Y-125939511D01*
X135746610Y-125939509D01*
X135746609Y-125939508D01*
X135675467Y-125898434D01*
X135643887Y-125880201D01*
X135643882Y-125880199D01*
X135529311Y-125849500D01*
X135529309Y-125849500D01*
X135410691Y-125849500D01*
X135410689Y-125849500D01*
X135296117Y-125880199D01*
X135296112Y-125880201D01*
X135193390Y-125939508D01*
X135109508Y-126023390D01*
X135050201Y-126126112D01*
X135050199Y-126126117D01*
X135019500Y-126240688D01*
X135019500Y-126359308D01*
X135040911Y-126439218D01*
X135033518Y-126495370D01*
X134988584Y-126529849D01*
X134932432Y-126522456D01*
X134932431Y-126522455D01*
X134893890Y-126500202D01*
X134893882Y-126500199D01*
X134779311Y-126469500D01*
X134779309Y-126469500D01*
X134660691Y-126469500D01*
X134660689Y-126469500D01*
X134546117Y-126500199D01*
X134546112Y-126500201D01*
X134443390Y-126559508D01*
X134359508Y-126643390D01*
X134300201Y-126746112D01*
X134300199Y-126746117D01*
X134269500Y-126860688D01*
X132496692Y-126860688D01*
X132443887Y-126830201D01*
X132443882Y-126830199D01*
X132329311Y-126799500D01*
X132329309Y-126799500D01*
X132210691Y-126799500D01*
X132210689Y-126799500D01*
X132096117Y-126830199D01*
X132096112Y-126830201D01*
X131993390Y-126889508D01*
X131909508Y-126973390D01*
X131850201Y-127076112D01*
X131850199Y-127076117D01*
X131819500Y-127190688D01*
X119765035Y-127190688D01*
X119771464Y-127166694D01*
X119771465Y-127166689D01*
X119785500Y-127114308D01*
X119785500Y-126995689D01*
X119785499Y-126995688D01*
X119754800Y-126881117D01*
X119754798Y-126881112D01*
X119695491Y-126778390D01*
X119695490Y-126778389D01*
X119695489Y-126778387D01*
X119611613Y-126694511D01*
X119611610Y-126694509D01*
X119611609Y-126694508D01*
X119508887Y-126635201D01*
X119508882Y-126635199D01*
X119394311Y-126604500D01*
X119394309Y-126604500D01*
X119275691Y-126604500D01*
X119275689Y-126604500D01*
X119161117Y-126635199D01*
X119161112Y-126635201D01*
X119058390Y-126694508D01*
X118974508Y-126778390D01*
X118915201Y-126881112D01*
X118915199Y-126881117D01*
X118891553Y-126969365D01*
X118857074Y-127014298D01*
X118800922Y-127021690D01*
X118783075Y-127014298D01*
X118676387Y-126952701D01*
X118676382Y-126952699D01*
X118561811Y-126922000D01*
X118561809Y-126922000D01*
X118443191Y-126922000D01*
X118443189Y-126922000D01*
X118328617Y-126952699D01*
X118328612Y-126952701D01*
X118225890Y-127012008D01*
X118142008Y-127095890D01*
X118082701Y-127198612D01*
X118082699Y-127198617D01*
X118052000Y-127313188D01*
X102500500Y-127313188D01*
X102500500Y-115140210D01*
X104050000Y-115140210D01*
X104050000Y-115405000D01*
X107049999Y-115405000D01*
X107049999Y-115140207D01*
X107047091Y-115115131D01*
X107047089Y-115115125D01*
X107001786Y-115012521D01*
X106922477Y-114933212D01*
X106908420Y-114927005D01*
X106869308Y-114886042D01*
X106870617Y-114829420D01*
X106879814Y-114813988D01*
X106887184Y-114804474D01*
X106894552Y-114799552D01*
X106916824Y-114766219D01*
X106918407Y-114764177D01*
X106940918Y-114751320D01*
X106962467Y-114736922D01*
X106966892Y-114736486D01*
X106967588Y-114736089D01*
X106968472Y-114736330D01*
X106976904Y-114735500D01*
X107030691Y-114735500D01*
X107700691Y-114735500D01*
X107780691Y-114735500D01*
X108023096Y-114735500D01*
X108075422Y-114757174D01*
X108084622Y-114768384D01*
X108087965Y-114773387D01*
X108105446Y-114799550D01*
X108105448Y-114799552D01*
X108127053Y-114813988D01*
X108171767Y-114843866D01*
X108171769Y-114843867D01*
X108189642Y-114847422D01*
X108236734Y-114878888D01*
X108247783Y-114934437D01*
X108216317Y-114981529D01*
X108189642Y-114992577D01*
X108184442Y-114993612D01*
X108171767Y-114996133D01*
X108105449Y-115040447D01*
X108105447Y-115040449D01*
X108061133Y-115106767D01*
X108055230Y-115136445D01*
X108049500Y-115165252D01*
X108049500Y-115944748D01*
X108050644Y-115950500D01*
X108061133Y-116003232D01*
X108074934Y-116023886D01*
X108105448Y-116069552D01*
X108147242Y-116097478D01*
X108171767Y-116113866D01*
X108171769Y-116113867D01*
X108189642Y-116117422D01*
X108236734Y-116148888D01*
X108247783Y-116204437D01*
X108216317Y-116251529D01*
X108189642Y-116262577D01*
X108184442Y-116263612D01*
X108171767Y-116266133D01*
X108105449Y-116310447D01*
X108105447Y-116310449D01*
X108061133Y-116376767D01*
X108049500Y-116435253D01*
X108049500Y-116658747D01*
X108027826Y-116711073D01*
X107975500Y-116732747D01*
X107923175Y-116711073D01*
X107851613Y-116639511D01*
X107851610Y-116639509D01*
X107851609Y-116639508D01*
X107748887Y-116580201D01*
X107748882Y-116580199D01*
X107634311Y-116549500D01*
X107634309Y-116549500D01*
X107515691Y-116549500D01*
X107515689Y-116549500D01*
X107401111Y-116580201D01*
X107397988Y-116581495D01*
X107341359Y-116581492D01*
X107278607Y-116555500D01*
X107024500Y-116555500D01*
X106972174Y-116533826D01*
X106950500Y-116481500D01*
X106950500Y-116435253D01*
X106944522Y-116405199D01*
X106938867Y-116376769D01*
X106894552Y-116310448D01*
X106894548Y-116310445D01*
X106889398Y-116305295D01*
X106891301Y-116303391D01*
X106865732Y-116265127D01*
X106876780Y-116209578D01*
X106908423Y-116182992D01*
X106922478Y-116176786D01*
X107001786Y-116097478D01*
X107047089Y-115994875D01*
X107050000Y-115969789D01*
X107050000Y-115705000D01*
X104050001Y-115705000D01*
X104050001Y-115969792D01*
X104052908Y-115994868D01*
X104052910Y-115994874D01*
X104098213Y-116097478D01*
X104177521Y-116176786D01*
X104191578Y-116182993D01*
X104230691Y-116223956D01*
X104229383Y-116280578D01*
X104209525Y-116304218D01*
X104210602Y-116305295D01*
X104205447Y-116310449D01*
X104161133Y-116376767D01*
X104153377Y-116415757D01*
X104149500Y-116435252D01*
X104149500Y-117214748D01*
X104155477Y-117244798D01*
X104161133Y-117273232D01*
X104190608Y-117317343D01*
X104205448Y-117339552D01*
X104236782Y-117360489D01*
X104271767Y-117383866D01*
X104271769Y-117383867D01*
X104289642Y-117387422D01*
X104336734Y-117418888D01*
X104347783Y-117474437D01*
X104316317Y-117521529D01*
X104289642Y-117532577D01*
X104284442Y-117533612D01*
X104271767Y-117536133D01*
X104205449Y-117580447D01*
X104205447Y-117580449D01*
X104161133Y-117646767D01*
X104161133Y-117646769D01*
X104149500Y-117705252D01*
X104149500Y-118484748D01*
X104152854Y-118501608D01*
X104161133Y-118543232D01*
X104172204Y-118559800D01*
X104205448Y-118609552D01*
X104249560Y-118639027D01*
X104271767Y-118653866D01*
X104271769Y-118653867D01*
X104289642Y-118657422D01*
X104336734Y-118688888D01*
X104347783Y-118744437D01*
X104316317Y-118791529D01*
X104289642Y-118802577D01*
X104284442Y-118803612D01*
X104271767Y-118806133D01*
X104205449Y-118850447D01*
X104205447Y-118850449D01*
X104161133Y-118916767D01*
X104154482Y-118950207D01*
X104149500Y-118975252D01*
X104149500Y-119754748D01*
X104153592Y-119775319D01*
X104161133Y-119813232D01*
X104190608Y-119857343D01*
X104205448Y-119879552D01*
X104217026Y-119887288D01*
X104271767Y-119923866D01*
X104271769Y-119923867D01*
X104289642Y-119927422D01*
X104336734Y-119958888D01*
X104347783Y-120014437D01*
X104316317Y-120061529D01*
X104289642Y-120072577D01*
X104284442Y-120073612D01*
X104271767Y-120076133D01*
X104205449Y-120120447D01*
X104205447Y-120120449D01*
X104161133Y-120186767D01*
X104154483Y-120220199D01*
X104149500Y-120245252D01*
X104149500Y-121024748D01*
X104155138Y-121053093D01*
X104161133Y-121083232D01*
X104183545Y-121116772D01*
X104205448Y-121149552D01*
X104231604Y-121167029D01*
X104271767Y-121193866D01*
X104271769Y-121193867D01*
X104289642Y-121197422D01*
X104336734Y-121228888D01*
X104347783Y-121284437D01*
X104316317Y-121331529D01*
X104289642Y-121342577D01*
X104284442Y-121343612D01*
X104271767Y-121346133D01*
X104205449Y-121390447D01*
X104205447Y-121390449D01*
X104161133Y-121456767D01*
X104156472Y-121480199D01*
X104149500Y-121515252D01*
X104149500Y-122294748D01*
X104153847Y-122316600D01*
X104161133Y-122353232D01*
X104167286Y-122362440D01*
X104205448Y-122419552D01*
X104236782Y-122440489D01*
X104271767Y-122463866D01*
X104271769Y-122463867D01*
X104289642Y-122467422D01*
X104336734Y-122498888D01*
X104347783Y-122554437D01*
X104316317Y-122601529D01*
X104289642Y-122612577D01*
X104284442Y-122613612D01*
X104271767Y-122616133D01*
X104205449Y-122660447D01*
X104205447Y-122660449D01*
X104161134Y-122726766D01*
X104161133Y-122726766D01*
X104154218Y-122761533D01*
X104149500Y-122785252D01*
X104149500Y-123564748D01*
X104154974Y-123592269D01*
X104161133Y-123623232D01*
X104177153Y-123647206D01*
X104205448Y-123689552D01*
X104221833Y-123700500D01*
X104271767Y-123733866D01*
X104271769Y-123733867D01*
X104289642Y-123737422D01*
X104336734Y-123768888D01*
X104347783Y-123824437D01*
X104316317Y-123871529D01*
X104289642Y-123882577D01*
X104284442Y-123883612D01*
X104271767Y-123886133D01*
X104205449Y-123930447D01*
X104205447Y-123930449D01*
X104161133Y-123996767D01*
X104149500Y-124055253D01*
X104149500Y-124834746D01*
X104161133Y-124893232D01*
X104169741Y-124906114D01*
X104205448Y-124959552D01*
X104247242Y-124987478D01*
X104271767Y-125003866D01*
X104271769Y-125003867D01*
X104289642Y-125007422D01*
X104336734Y-125038888D01*
X104347783Y-125094437D01*
X104316317Y-125141529D01*
X104289642Y-125152577D01*
X104284442Y-125153612D01*
X104271767Y-125156133D01*
X104205449Y-125200447D01*
X104205447Y-125200449D01*
X104161133Y-125266767D01*
X104149500Y-125325253D01*
X104149500Y-126104746D01*
X104161133Y-126163232D01*
X104190608Y-126207343D01*
X104205448Y-126229552D01*
X104247242Y-126257478D01*
X104271767Y-126273866D01*
X104271768Y-126273866D01*
X104271769Y-126273867D01*
X104330252Y-126285500D01*
X104330254Y-126285500D01*
X106769746Y-126285500D01*
X106769748Y-126285500D01*
X106828231Y-126273867D01*
X106894552Y-126229552D01*
X106938867Y-126163231D01*
X106945616Y-126129300D01*
X106977079Y-126082209D01*
X107032628Y-126071159D01*
X107037346Y-126072259D01*
X107074481Y-126082209D01*
X107101688Y-126089499D01*
X107101689Y-126089500D01*
X107101691Y-126089500D01*
X107220311Y-126089500D01*
X107220311Y-126089499D01*
X107334886Y-126058799D01*
X107437613Y-125999489D01*
X107521489Y-125915613D01*
X107580799Y-125812886D01*
X107611499Y-125698311D01*
X107611500Y-125698311D01*
X107611500Y-125579689D01*
X107611499Y-125579688D01*
X107607563Y-125565000D01*
X107590093Y-125499798D01*
X107580800Y-125465117D01*
X107580798Y-125465112D01*
X107521491Y-125362390D01*
X107521490Y-125362389D01*
X107521489Y-125362387D01*
X107437613Y-125278511D01*
X107437610Y-125278509D01*
X107437609Y-125278508D01*
X107334887Y-125219201D01*
X107334882Y-125219199D01*
X107220311Y-125188500D01*
X107220309Y-125188500D01*
X107101691Y-125188500D01*
X107101689Y-125188500D01*
X106987117Y-125219199D01*
X106982631Y-125221058D01*
X106981738Y-125218903D01*
X106933206Y-125225276D01*
X106915330Y-125217859D01*
X106900424Y-125209237D01*
X106894552Y-125200448D01*
X106828231Y-125156133D01*
X106798343Y-125150187D01*
X106787741Y-125144055D01*
X106777402Y-125130558D01*
X106763266Y-125121113D01*
X106760845Y-125108944D01*
X106753300Y-125099094D01*
X106755533Y-125082239D01*
X106752216Y-125065564D01*
X106759109Y-125055247D01*
X106760739Y-125042947D01*
X106774235Y-125032608D01*
X106783681Y-125018472D01*
X106803296Y-125010346D01*
X106805700Y-125008506D01*
X106807246Y-125008710D01*
X106810357Y-125007422D01*
X106828231Y-125003867D01*
X106894552Y-124959552D01*
X106915376Y-124928386D01*
X106962468Y-124896922D01*
X106976904Y-124895500D01*
X107089311Y-124895500D01*
X107089311Y-124895499D01*
X107203886Y-124864799D01*
X107306613Y-124805489D01*
X107390489Y-124721613D01*
X107449799Y-124618886D01*
X107480499Y-124504311D01*
X107480500Y-124504311D01*
X107480500Y-124385689D01*
X107480499Y-124385688D01*
X107449800Y-124271117D01*
X107449798Y-124271112D01*
X107390491Y-124168390D01*
X107390490Y-124168389D01*
X107390489Y-124168387D01*
X107306613Y-124084511D01*
X107306610Y-124084509D01*
X107306609Y-124084508D01*
X107203887Y-124025201D01*
X107203882Y-124025199D01*
X107089311Y-123994500D01*
X107089309Y-123994500D01*
X106976904Y-123994500D01*
X106924578Y-123972826D01*
X106915376Y-123961613D01*
X106907156Y-123949311D01*
X106894552Y-123930448D01*
X106852757Y-123902521D01*
X106828232Y-123886133D01*
X106818413Y-123884180D01*
X106810357Y-123882577D01*
X106763266Y-123851113D01*
X106752216Y-123795564D01*
X106783681Y-123748472D01*
X106810357Y-123737422D01*
X106828231Y-123733867D01*
X106894552Y-123689552D01*
X106901820Y-123678673D01*
X106948911Y-123647206D01*
X106982502Y-123648305D01*
X106990691Y-123650500D01*
X106990692Y-123650500D01*
X107109311Y-123650500D01*
X107109311Y-123650499D01*
X107223886Y-123619799D01*
X107326613Y-123560489D01*
X107410489Y-123476613D01*
X107469799Y-123373886D01*
X107500499Y-123259311D01*
X107500500Y-123259311D01*
X107500500Y-123140689D01*
X107500499Y-123140688D01*
X107469800Y-123026117D01*
X107469798Y-123026112D01*
X107410491Y-122923390D01*
X107410490Y-122923389D01*
X107410489Y-122923387D01*
X107326613Y-122839511D01*
X107326610Y-122839509D01*
X107326609Y-122839508D01*
X107223887Y-122780201D01*
X107223882Y-122780199D01*
X107109311Y-122749500D01*
X107109309Y-122749500D01*
X106993609Y-122749500D01*
X106941283Y-122727826D01*
X106932081Y-122716613D01*
X106907951Y-122680501D01*
X106894552Y-122660448D01*
X106851274Y-122631530D01*
X106828232Y-122616133D01*
X106818413Y-122614180D01*
X106810357Y-122612577D01*
X106763266Y-122581113D01*
X106752216Y-122525564D01*
X106783681Y-122478472D01*
X106810357Y-122467422D01*
X106828231Y-122463867D01*
X106894552Y-122419552D01*
X106918717Y-122383386D01*
X106965809Y-122351922D01*
X106980245Y-122350500D01*
X107099311Y-122350500D01*
X107099311Y-122350499D01*
X107213886Y-122319799D01*
X107213898Y-122319792D01*
X107950001Y-122319792D01*
X107952908Y-122344868D01*
X107952910Y-122344874D01*
X107998213Y-122447478D01*
X108077521Y-122526786D01*
X108091578Y-122532993D01*
X108130691Y-122573956D01*
X108129383Y-122630578D01*
X108109525Y-122654218D01*
X108110602Y-122655295D01*
X108105447Y-122660449D01*
X108061134Y-122726766D01*
X108061133Y-122726766D01*
X108054218Y-122761533D01*
X108049500Y-122785252D01*
X108049500Y-123564748D01*
X108054974Y-123592269D01*
X108061133Y-123623232D01*
X108077153Y-123647206D01*
X108105448Y-123689552D01*
X108121833Y-123700500D01*
X108171767Y-123733866D01*
X108171769Y-123733867D01*
X108189642Y-123737422D01*
X108236734Y-123768888D01*
X108247783Y-123824437D01*
X108216317Y-123871529D01*
X108189642Y-123882577D01*
X108184442Y-123883612D01*
X108171767Y-123886133D01*
X108105449Y-123930447D01*
X108105447Y-123930449D01*
X108061133Y-123996767D01*
X108049500Y-124055253D01*
X108049500Y-124834746D01*
X108061133Y-124893232D01*
X108069741Y-124906114D01*
X108105448Y-124959552D01*
X108147242Y-124987478D01*
X108171767Y-125003866D01*
X108171769Y-125003867D01*
X108189642Y-125007422D01*
X108236734Y-125038888D01*
X108247783Y-125094437D01*
X108216317Y-125141529D01*
X108189642Y-125152577D01*
X108184442Y-125153612D01*
X108171767Y-125156133D01*
X108105449Y-125200447D01*
X108105447Y-125200449D01*
X108061133Y-125266767D01*
X108049500Y-125325253D01*
X108049500Y-126104746D01*
X108061133Y-126163232D01*
X108090608Y-126207343D01*
X108105448Y-126229552D01*
X108147242Y-126257478D01*
X108171767Y-126273866D01*
X108171768Y-126273866D01*
X108171769Y-126273867D01*
X108230252Y-126285500D01*
X108230254Y-126285500D01*
X110669746Y-126285500D01*
X110669748Y-126285500D01*
X110728231Y-126273867D01*
X110794552Y-126229552D01*
X110838867Y-126163231D01*
X110850500Y-126104748D01*
X110850500Y-125548858D01*
X110872174Y-125496532D01*
X111353018Y-125015688D01*
X130599500Y-125015688D01*
X130599500Y-125134311D01*
X130630199Y-125248882D01*
X130630201Y-125248887D01*
X130689508Y-125351609D01*
X130689509Y-125351610D01*
X130689511Y-125351613D01*
X130773387Y-125435489D01*
X130773389Y-125435490D01*
X130773390Y-125435491D01*
X130876112Y-125494798D01*
X130876114Y-125494799D01*
X130876115Y-125494799D01*
X130876117Y-125494800D01*
X130933402Y-125510149D01*
X130990688Y-125525499D01*
X130990689Y-125525500D01*
X130990691Y-125525500D01*
X131109311Y-125525500D01*
X131109311Y-125525499D01*
X131223886Y-125494799D01*
X131326613Y-125435489D01*
X131410489Y-125351613D01*
X131469799Y-125248886D01*
X131500499Y-125134311D01*
X131500500Y-125134311D01*
X131500500Y-125020688D01*
X135949500Y-125020688D01*
X135949500Y-125139311D01*
X135980199Y-125253882D01*
X135980201Y-125253887D01*
X136039508Y-125356609D01*
X136039509Y-125356610D01*
X136039511Y-125356613D01*
X136123387Y-125440489D01*
X136123389Y-125440490D01*
X136123390Y-125440491D01*
X136220455Y-125496532D01*
X136226114Y-125499799D01*
X136226115Y-125499799D01*
X136226117Y-125499800D01*
X136283402Y-125515149D01*
X136340688Y-125530499D01*
X136340689Y-125530500D01*
X136340691Y-125530500D01*
X136459311Y-125530500D01*
X136459311Y-125530499D01*
X136573886Y-125499799D01*
X136676613Y-125440489D01*
X136760489Y-125356613D01*
X136793054Y-125300210D01*
X139050000Y-125300210D01*
X139050000Y-125565000D01*
X140400000Y-125565000D01*
X140700000Y-125565000D01*
X142049999Y-125565000D01*
X142049999Y-125300210D01*
X142950000Y-125300210D01*
X142950000Y-125565000D01*
X144300000Y-125565000D01*
X144600000Y-125565000D01*
X145949999Y-125565000D01*
X145949999Y-125300207D01*
X145947091Y-125275131D01*
X145947089Y-125275125D01*
X145901786Y-125172521D01*
X145861591Y-125132326D01*
X145839917Y-125080000D01*
X145861591Y-125027674D01*
X145901786Y-124987478D01*
X145947089Y-124884875D01*
X145950000Y-124859789D01*
X145950000Y-124595000D01*
X144600000Y-124595000D01*
X144600000Y-125565000D01*
X144300000Y-125565000D01*
X144300000Y-124595000D01*
X142950001Y-124595000D01*
X142950001Y-124859792D01*
X142952908Y-124884868D01*
X142952910Y-124884874D01*
X142998213Y-124987478D01*
X143038409Y-125027674D01*
X143060083Y-125080000D01*
X143038409Y-125132326D01*
X142998213Y-125172521D01*
X142952910Y-125275124D01*
X142950000Y-125300210D01*
X142049999Y-125300210D01*
X142049999Y-125300207D01*
X142047091Y-125275131D01*
X142047089Y-125275125D01*
X142001786Y-125172521D01*
X141961591Y-125132326D01*
X141939917Y-125080000D01*
X141961591Y-125027674D01*
X142001786Y-124987478D01*
X142047089Y-124884875D01*
X142050000Y-124859789D01*
X142050000Y-124595000D01*
X140700000Y-124595000D01*
X140700000Y-125565000D01*
X140400000Y-125565000D01*
X140400000Y-124595000D01*
X139050001Y-124595000D01*
X139050001Y-124859792D01*
X139052908Y-124884868D01*
X139052910Y-124884874D01*
X139098213Y-124987478D01*
X139138409Y-125027674D01*
X139160083Y-125080000D01*
X139138409Y-125132326D01*
X139098213Y-125172521D01*
X139052910Y-125275124D01*
X139050000Y-125300210D01*
X136793054Y-125300210D01*
X136819799Y-125253886D01*
X136850499Y-125139311D01*
X136850500Y-125139311D01*
X136850500Y-125020689D01*
X136850499Y-125020688D01*
X136846944Y-125007422D01*
X136819799Y-124906114D01*
X136813671Y-124895500D01*
X136760491Y-124803390D01*
X136760490Y-124803389D01*
X136760489Y-124803387D01*
X136676613Y-124719511D01*
X136676610Y-124719509D01*
X136676609Y-124719508D01*
X136573887Y-124660201D01*
X136573882Y-124660199D01*
X136459311Y-124629500D01*
X136459309Y-124629500D01*
X136340691Y-124629500D01*
X136340689Y-124629500D01*
X136226117Y-124660199D01*
X136226112Y-124660201D01*
X136123390Y-124719508D01*
X136039508Y-124803390D01*
X135980201Y-124906112D01*
X135980199Y-124906117D01*
X135949500Y-125020688D01*
X131500500Y-125020688D01*
X131500500Y-125015689D01*
X131500499Y-125015688D01*
X131469800Y-124901117D01*
X131469798Y-124901112D01*
X131410491Y-124798390D01*
X131410490Y-124798389D01*
X131410489Y-124798387D01*
X131390100Y-124777998D01*
X131368427Y-124725674D01*
X131390101Y-124673348D01*
X131405423Y-124661590D01*
X131476613Y-124620489D01*
X131560489Y-124536613D01*
X131619799Y-124433886D01*
X131650499Y-124319311D01*
X131650500Y-124319311D01*
X131650500Y-124244500D01*
X131672174Y-124192174D01*
X131724500Y-124170500D01*
X134832746Y-124170500D01*
X134885071Y-124192174D01*
X134937398Y-124244500D01*
X134943387Y-124250489D01*
X134994750Y-124280144D01*
X135020481Y-124295000D01*
X135046114Y-124309799D01*
X135046115Y-124309799D01*
X135046117Y-124309800D01*
X135081613Y-124319311D01*
X135160688Y-124340499D01*
X135160689Y-124340500D01*
X135160691Y-124340500D01*
X135279311Y-124340500D01*
X135279311Y-124340499D01*
X135393886Y-124309799D01*
X135496613Y-124250489D01*
X135580489Y-124166613D01*
X135639799Y-124063886D01*
X135670499Y-123949311D01*
X135670500Y-123949311D01*
X135670500Y-123830689D01*
X135670499Y-123830688D01*
X135659708Y-123790417D01*
X135647673Y-123745500D01*
X135639800Y-123716117D01*
X135639798Y-123716112D01*
X135580491Y-123613390D01*
X135580490Y-123613389D01*
X135580489Y-123613387D01*
X135496613Y-123529511D01*
X135496610Y-123529509D01*
X135496609Y-123529508D01*
X135449545Y-123502336D01*
X135415067Y-123457403D01*
X135422459Y-123401250D01*
X135467392Y-123366772D01*
X135486545Y-123364250D01*
X138344806Y-123364250D01*
X138344807Y-123364250D01*
X138385036Y-123347586D01*
X138441929Y-123324021D01*
X138477387Y-123288562D01*
X138484506Y-123284106D01*
X138504778Y-123280696D01*
X138523771Y-123272829D01*
X138531794Y-123276152D01*
X138540359Y-123274712D01*
X138557104Y-123286635D01*
X138576097Y-123294502D01*
X138585666Y-123306973D01*
X138586495Y-123307563D01*
X138586600Y-123308190D01*
X138587858Y-123309829D01*
X138649508Y-123416609D01*
X138649509Y-123416610D01*
X138649511Y-123416613D01*
X138733387Y-123500489D01*
X138733389Y-123500490D01*
X138733390Y-123500491D01*
X138783654Y-123529511D01*
X138836114Y-123559799D01*
X138836115Y-123559799D01*
X138836117Y-123559800D01*
X138869691Y-123568796D01*
X138950688Y-123590499D01*
X138950689Y-123590500D01*
X138950691Y-123590500D01*
X139069310Y-123590500D01*
X139074468Y-123589117D01*
X139077414Y-123588328D01*
X139092907Y-123590366D01*
X139108100Y-123586709D01*
X139119234Y-123593830D01*
X139133567Y-123595717D01*
X139156410Y-123616270D01*
X139161004Y-123622585D01*
X139161133Y-123623231D01*
X139205448Y-123689552D01*
X139213770Y-123695112D01*
X139221528Y-123705776D01*
X139225303Y-123721456D01*
X139234266Y-123734867D01*
X139231672Y-123747911D01*
X139234785Y-123760840D01*
X139226367Y-123774596D01*
X139223222Y-123790417D01*
X139209770Y-123801720D01*
X139205224Y-123809150D01*
X139199202Y-123810599D01*
X139191580Y-123817005D01*
X139177522Y-123823212D01*
X139098213Y-123902521D01*
X139052910Y-124005124D01*
X139050000Y-124030210D01*
X139050000Y-124295000D01*
X142049999Y-124295000D01*
X142049999Y-124030207D01*
X142047091Y-124005131D01*
X142047089Y-124005125D01*
X142001786Y-123902521D01*
X141922477Y-123823212D01*
X141908420Y-123817005D01*
X141869308Y-123776042D01*
X141870617Y-123719420D01*
X141890477Y-123695784D01*
X141889398Y-123694705D01*
X141894545Y-123689556D01*
X141894552Y-123689552D01*
X141938867Y-123623231D01*
X141950500Y-123564748D01*
X141950500Y-122785252D01*
X141950500Y-122781617D01*
X141951706Y-122781617D01*
X141966960Y-122731311D01*
X142016907Y-122704607D01*
X142024168Y-122704250D01*
X142696496Y-122704250D01*
X142748821Y-122725923D01*
X142788387Y-122765489D01*
X142788389Y-122765490D01*
X142788390Y-122765491D01*
X142891112Y-122824798D01*
X142891114Y-122824799D01*
X142994654Y-122852542D01*
X143039586Y-122887020D01*
X143049500Y-122924020D01*
X143049500Y-123564748D01*
X143054974Y-123592269D01*
X143061133Y-123623232D01*
X143077153Y-123647206D01*
X143105448Y-123689552D01*
X143105451Y-123689554D01*
X143110602Y-123694705D01*
X143108697Y-123696609D01*
X143134266Y-123734867D01*
X143123222Y-123790417D01*
X143091580Y-123817005D01*
X143077522Y-123823212D01*
X142998213Y-123902521D01*
X142952910Y-124005124D01*
X142950000Y-124030210D01*
X142950000Y-124295000D01*
X145949999Y-124295000D01*
X145949999Y-124030207D01*
X145947091Y-124005131D01*
X145947089Y-124005125D01*
X145901786Y-123902521D01*
X145822477Y-123823212D01*
X145808420Y-123817005D01*
X145769308Y-123776042D01*
X145770617Y-123719420D01*
X145790477Y-123695784D01*
X145789398Y-123694705D01*
X145794545Y-123689556D01*
X145794552Y-123689552D01*
X145838867Y-123623231D01*
X145850500Y-123564748D01*
X145850500Y-122785252D01*
X145838867Y-122726769D01*
X145838866Y-122726768D01*
X145838866Y-122726766D01*
X145800249Y-122668974D01*
X145794552Y-122660448D01*
X145751274Y-122631530D01*
X145728232Y-122616133D01*
X145718413Y-122614180D01*
X145710357Y-122612577D01*
X145663266Y-122581113D01*
X145652216Y-122525564D01*
X145683681Y-122478472D01*
X145710357Y-122467422D01*
X145728231Y-122463867D01*
X145794552Y-122419552D01*
X145838867Y-122353231D01*
X145850500Y-122294748D01*
X145850500Y-121515252D01*
X145838867Y-121456769D01*
X145834677Y-121450499D01*
X145820520Y-121429311D01*
X145794552Y-121390448D01*
X145749716Y-121360489D01*
X145728232Y-121346133D01*
X145718413Y-121344180D01*
X145710357Y-121342577D01*
X145663266Y-121311113D01*
X145652216Y-121255564D01*
X145683681Y-121208472D01*
X145710357Y-121197422D01*
X145728231Y-121193867D01*
X145794552Y-121149552D01*
X145838867Y-121083231D01*
X145850500Y-121024748D01*
X145850500Y-120245252D01*
X145838867Y-120186769D01*
X145794552Y-120120448D01*
X145794548Y-120120445D01*
X145789398Y-120115295D01*
X145791301Y-120113391D01*
X145765732Y-120075127D01*
X145776780Y-120019578D01*
X145808423Y-119992992D01*
X145822478Y-119986786D01*
X145901786Y-119907478D01*
X145947089Y-119804875D01*
X145950000Y-119779789D01*
X145950000Y-119515000D01*
X142950001Y-119515000D01*
X142950001Y-119779792D01*
X142952908Y-119804868D01*
X142952910Y-119804874D01*
X142998213Y-119907478D01*
X143077521Y-119986786D01*
X143091578Y-119992993D01*
X143130691Y-120033956D01*
X143129383Y-120090578D01*
X143120484Y-120105622D01*
X143113020Y-120115388D01*
X143105448Y-120120448D01*
X143079670Y-120159026D01*
X143078240Y-120160898D01*
X143055624Y-120174013D01*
X143033879Y-120188543D01*
X143030748Y-120188440D01*
X143029246Y-120189312D01*
X143025295Y-120188261D01*
X143000291Y-120187442D01*
X142989311Y-120184500D01*
X142989309Y-120184500D01*
X142870691Y-120184500D01*
X142870689Y-120184500D01*
X142756114Y-120215200D01*
X142711962Y-120240691D01*
X142655809Y-120248083D01*
X142622637Y-120228931D01*
X142209686Y-119815980D01*
X142209682Y-119815977D01*
X142145205Y-119789271D01*
X142135406Y-119785212D01*
X142112563Y-119775750D01*
X142020498Y-119775750D01*
X142016523Y-119775319D01*
X141994921Y-119763498D01*
X141972174Y-119754076D01*
X141970553Y-119750163D01*
X141966839Y-119748131D01*
X141959923Y-119724500D01*
X141950500Y-119701750D01*
X141950500Y-118975253D01*
X141949022Y-118967822D01*
X141938867Y-118916769D01*
X141894552Y-118850448D01*
X141852757Y-118822521D01*
X141828232Y-118806133D01*
X141818413Y-118804180D01*
X141810357Y-118802577D01*
X141763266Y-118771113D01*
X141752216Y-118715564D01*
X141783681Y-118668472D01*
X141810357Y-118657422D01*
X141828231Y-118653867D01*
X141894552Y-118609552D01*
X141938565Y-118543683D01*
X141985657Y-118512218D01*
X142019246Y-118513318D01*
X142077998Y-118529060D01*
X142120688Y-118540499D01*
X142120689Y-118540500D01*
X142120691Y-118540500D01*
X142239311Y-118540500D01*
X142239311Y-118540499D01*
X142353886Y-118509799D01*
X142456613Y-118450489D01*
X142531178Y-118375923D01*
X142583503Y-118354250D01*
X142975500Y-118354250D01*
X143027826Y-118375924D01*
X143049500Y-118428250D01*
X143049500Y-118484748D01*
X143052854Y-118501608D01*
X143061133Y-118543232D01*
X143072204Y-118559800D01*
X143105448Y-118609552D01*
X143105451Y-118609554D01*
X143110602Y-118614705D01*
X143108697Y-118616609D01*
X143134266Y-118654867D01*
X143123222Y-118710417D01*
X143091580Y-118737005D01*
X143077522Y-118743212D01*
X142998213Y-118822521D01*
X142952910Y-118925124D01*
X142950000Y-118950210D01*
X142950000Y-119215000D01*
X145949999Y-119215000D01*
X145949999Y-118950207D01*
X145947091Y-118925131D01*
X145947089Y-118925125D01*
X145901786Y-118822521D01*
X145822477Y-118743212D01*
X145808420Y-118737005D01*
X145769308Y-118696042D01*
X145770617Y-118639420D01*
X145790477Y-118615784D01*
X145789398Y-118614705D01*
X145794545Y-118609556D01*
X145794552Y-118609552D01*
X145838867Y-118543231D01*
X145850500Y-118484748D01*
X145850500Y-117705252D01*
X145838867Y-117646769D01*
X145832897Y-117637835D01*
X145823574Y-117623882D01*
X145794552Y-117580448D01*
X145772343Y-117565608D01*
X145728232Y-117536133D01*
X145718413Y-117534180D01*
X145710357Y-117532577D01*
X145663266Y-117501113D01*
X145652216Y-117445564D01*
X145683681Y-117398472D01*
X145710357Y-117387422D01*
X145728231Y-117383867D01*
X145794552Y-117339552D01*
X145838867Y-117273231D01*
X145850500Y-117214748D01*
X145850500Y-116435252D01*
X145838867Y-116376769D01*
X145794552Y-116310448D01*
X145772343Y-116295608D01*
X145728232Y-116266133D01*
X145718413Y-116264180D01*
X145710357Y-116262577D01*
X145663266Y-116231113D01*
X145652216Y-116175564D01*
X145683681Y-116128472D01*
X145710357Y-116117422D01*
X145728231Y-116113867D01*
X145794552Y-116069552D01*
X145838867Y-116003231D01*
X145850500Y-115944748D01*
X145850500Y-115165252D01*
X145838867Y-115106769D01*
X145834210Y-115099800D01*
X145824027Y-115084560D01*
X145794552Y-115040448D01*
X145752757Y-115012521D01*
X145728232Y-114996133D01*
X145718413Y-114994180D01*
X145710357Y-114992577D01*
X145663266Y-114961113D01*
X145652216Y-114905564D01*
X145683681Y-114858472D01*
X145710357Y-114847422D01*
X145728231Y-114843867D01*
X145794552Y-114799552D01*
X145838867Y-114733231D01*
X145850500Y-114674748D01*
X145850500Y-113895252D01*
X145838867Y-113836769D01*
X145826209Y-113817826D01*
X145815375Y-113801612D01*
X145794552Y-113770448D01*
X145772343Y-113755608D01*
X145728232Y-113726133D01*
X145728233Y-113726133D01*
X145698989Y-113720316D01*
X145669748Y-113714500D01*
X143230252Y-113714500D01*
X143201010Y-113720316D01*
X143171767Y-113726133D01*
X143105449Y-113770447D01*
X143105447Y-113770449D01*
X143081283Y-113806613D01*
X143074981Y-113810823D01*
X143072081Y-113817826D01*
X143052137Y-113826086D01*
X143034191Y-113838078D01*
X143019755Y-113839500D01*
X143004500Y-113839500D01*
X142952174Y-113817826D01*
X142930500Y-113765500D01*
X142930500Y-113670689D01*
X142930499Y-113670688D01*
X142899800Y-113556117D01*
X142899798Y-113556112D01*
X142840491Y-113453390D01*
X142840490Y-113453389D01*
X142840489Y-113453387D01*
X142756613Y-113369511D01*
X142756610Y-113369509D01*
X142756609Y-113369508D01*
X142653887Y-113310201D01*
X142653882Y-113310199D01*
X142539311Y-113279500D01*
X142539309Y-113279500D01*
X142420691Y-113279500D01*
X142420689Y-113279500D01*
X142306117Y-113310199D01*
X142306112Y-113310201D01*
X142203390Y-113369508D01*
X142119508Y-113453390D01*
X142060201Y-113556112D01*
X142060199Y-113556117D01*
X142029500Y-113670688D01*
X142029500Y-113728467D01*
X142007826Y-113780793D01*
X141955500Y-113802467D01*
X141903174Y-113780793D01*
X141895292Y-113771189D01*
X141894554Y-113770451D01*
X141894552Y-113770448D01*
X141872343Y-113755608D01*
X141828232Y-113726133D01*
X141828233Y-113726133D01*
X141798989Y-113720316D01*
X141769748Y-113714500D01*
X139330252Y-113714500D01*
X139301010Y-113720316D01*
X139271767Y-113726133D01*
X139205449Y-113770447D01*
X139205447Y-113770449D01*
X139161133Y-113836767D01*
X139149500Y-113895253D01*
X139149500Y-114674746D01*
X139161133Y-114733232D01*
X139187965Y-114773387D01*
X139205448Y-114799552D01*
X139227053Y-114813988D01*
X139271767Y-114843866D01*
X139271769Y-114843867D01*
X139289642Y-114847422D01*
X139336734Y-114878888D01*
X139347783Y-114934437D01*
X139316317Y-114981529D01*
X139289642Y-114992577D01*
X139284442Y-114993612D01*
X139271767Y-114996133D01*
X139205449Y-115040447D01*
X139205447Y-115040449D01*
X139161133Y-115106766D01*
X139158264Y-115121191D01*
X139126796Y-115168282D01*
X139071247Y-115179330D01*
X139066533Y-115178230D01*
X138959311Y-115149500D01*
X138959309Y-115149500D01*
X138840691Y-115149500D01*
X138840689Y-115149500D01*
X138726117Y-115180199D01*
X138726112Y-115180201D01*
X138623390Y-115239508D01*
X138539508Y-115323390D01*
X138480201Y-115426112D01*
X138480199Y-115426117D01*
X138449500Y-115540688D01*
X138449500Y-115659311D01*
X138480199Y-115773882D01*
X138480201Y-115773887D01*
X138503794Y-115814750D01*
X138511187Y-115870902D01*
X138476708Y-115915836D01*
X138439708Y-115925750D01*
X137552754Y-115925750D01*
X137503524Y-115946142D01*
X137493003Y-115950500D01*
X137455631Y-115965979D01*
X137455630Y-115965981D01*
X135975979Y-117445631D01*
X135974378Y-117449498D01*
X135974377Y-117449499D01*
X135935750Y-117542752D01*
X135935750Y-117975500D01*
X135914076Y-118027826D01*
X135861750Y-118049500D01*
X135750689Y-118049500D01*
X135636117Y-118080199D01*
X135636112Y-118080201D01*
X135533390Y-118139508D01*
X135449508Y-118223390D01*
X135390201Y-118326112D01*
X135390199Y-118326117D01*
X135359500Y-118440688D01*
X135359500Y-118559311D01*
X135390199Y-118673882D01*
X135390201Y-118673887D01*
X135449508Y-118776609D01*
X135449509Y-118776610D01*
X135449511Y-118776613D01*
X135533387Y-118860489D01*
X135533389Y-118860490D01*
X135533390Y-118860491D01*
X135630862Y-118916767D01*
X135636114Y-118919799D01*
X135636115Y-118919799D01*
X135636117Y-118919800D01*
X135656013Y-118925131D01*
X135750688Y-118950499D01*
X135750689Y-118950500D01*
X135750691Y-118950500D01*
X135869311Y-118950500D01*
X135869311Y-118950499D01*
X135983886Y-118919799D01*
X136086613Y-118860489D01*
X136170489Y-118776613D01*
X136229799Y-118673886D01*
X136260500Y-118559309D01*
X136260500Y-118559305D01*
X136261261Y-118556465D01*
X136280412Y-118523293D01*
X136424021Y-118379685D01*
X136430998Y-118362839D01*
X136471044Y-118322791D01*
X136527681Y-118322789D01*
X136563451Y-118354157D01*
X136599508Y-118416609D01*
X136599509Y-118416610D01*
X136599511Y-118416613D01*
X136683387Y-118500489D01*
X136683389Y-118500490D01*
X136683390Y-118500491D01*
X136786112Y-118559798D01*
X136786114Y-118559799D01*
X136786115Y-118559799D01*
X136786117Y-118559800D01*
X136843402Y-118575149D01*
X136900688Y-118590499D01*
X136900689Y-118590500D01*
X137001911Y-118590500D01*
X137054237Y-118612174D01*
X137075911Y-118664500D01*
X137054237Y-118716826D01*
X137038911Y-118728586D01*
X136933390Y-118789508D01*
X136849508Y-118873390D01*
X136790201Y-118976112D01*
X136790199Y-118976117D01*
X136759500Y-119090688D01*
X136759500Y-119209311D01*
X136790199Y-119323882D01*
X136790201Y-119323887D01*
X136849508Y-119426609D01*
X136849509Y-119426610D01*
X136849511Y-119426613D01*
X136933387Y-119510489D01*
X136933389Y-119510490D01*
X136933390Y-119510491D01*
X137006943Y-119552957D01*
X137041422Y-119597890D01*
X137041422Y-119636195D01*
X137029500Y-119680691D01*
X137029500Y-119799311D01*
X137060199Y-119913882D01*
X137060201Y-119913887D01*
X137119508Y-120016609D01*
X137119509Y-120016610D01*
X137119511Y-120016613D01*
X137203387Y-120100489D01*
X137203389Y-120100490D01*
X137203390Y-120100491D01*
X137237958Y-120120449D01*
X137306114Y-120159799D01*
X137306115Y-120159799D01*
X137306117Y-120159800D01*
X137310215Y-120160898D01*
X137420688Y-120190499D01*
X137420689Y-120190500D01*
X137420691Y-120190500D01*
X137539311Y-120190500D01*
X137539311Y-120190499D01*
X137653886Y-120159799D01*
X137756613Y-120100489D01*
X137840489Y-120016613D01*
X137899799Y-119913886D01*
X137930499Y-119799311D01*
X137930500Y-119799311D01*
X137930500Y-119680689D01*
X137930499Y-119680688D01*
X137899800Y-119566117D01*
X137899798Y-119566112D01*
X137840491Y-119463390D01*
X137840490Y-119463389D01*
X137840489Y-119463387D01*
X137756613Y-119379511D01*
X137756610Y-119379509D01*
X137756609Y-119379508D01*
X137683055Y-119337042D01*
X137648577Y-119292109D01*
X137648577Y-119253804D01*
X137660500Y-119209309D01*
X137660500Y-119090691D01*
X137660500Y-119090689D01*
X137646730Y-119039302D01*
X137654122Y-118983149D01*
X137665878Y-118967826D01*
X138252782Y-118380924D01*
X138305108Y-118359250D01*
X139075500Y-118359250D01*
X139127826Y-118380924D01*
X139149500Y-118433250D01*
X139149500Y-118484748D01*
X139152854Y-118501608D01*
X139161133Y-118543232D01*
X139172204Y-118559800D01*
X139205448Y-118609552D01*
X139249560Y-118639027D01*
X139271767Y-118653866D01*
X139271769Y-118653867D01*
X139289642Y-118657422D01*
X139336734Y-118688888D01*
X139347783Y-118744437D01*
X139316317Y-118791529D01*
X139289642Y-118802577D01*
X139284442Y-118803612D01*
X139271767Y-118806133D01*
X139205449Y-118850447D01*
X139205447Y-118850449D01*
X139161133Y-118916767D01*
X139149500Y-118975253D01*
X139149500Y-119045676D01*
X139127826Y-119098002D01*
X139075500Y-119119676D01*
X139072805Y-119119500D01*
X139069309Y-119119500D01*
X138950691Y-119119500D01*
X138950689Y-119119500D01*
X138836117Y-119150199D01*
X138836112Y-119150201D01*
X138733390Y-119209508D01*
X138649508Y-119293390D01*
X138590201Y-119396112D01*
X138590199Y-119396117D01*
X138559500Y-119510688D01*
X138559500Y-119629311D01*
X138590199Y-119743882D01*
X138590201Y-119743887D01*
X138649508Y-119846609D01*
X138649509Y-119846610D01*
X138649511Y-119846613D01*
X138690186Y-119887288D01*
X138727783Y-119924885D01*
X138749457Y-119977211D01*
X138727783Y-120029537D01*
X138193246Y-120564076D01*
X138140920Y-120585750D01*
X132807437Y-120585750D01*
X132787868Y-120593856D01*
X132787867Y-120593856D01*
X132710317Y-120625977D01*
X132080977Y-121255317D01*
X132072157Y-121276613D01*
X132070560Y-121280469D01*
X132055589Y-121316613D01*
X132040750Y-121352437D01*
X132040750Y-121871497D01*
X132019076Y-121923821D01*
X131957699Y-121985199D01*
X131944508Y-121998390D01*
X131885201Y-122101112D01*
X131885199Y-122101117D01*
X131854500Y-122215688D01*
X131854500Y-122334311D01*
X131885199Y-122448882D01*
X131885201Y-122448887D01*
X131944508Y-122551609D01*
X131944509Y-122551610D01*
X131944511Y-122551613D01*
X131947074Y-122554176D01*
X131968748Y-122606501D01*
X131947074Y-122658827D01*
X131894748Y-122680501D01*
X131875595Y-122677979D01*
X131769311Y-122649500D01*
X131769309Y-122649500D01*
X131650691Y-122649500D01*
X131650689Y-122649500D01*
X131536117Y-122680199D01*
X131536112Y-122680201D01*
X131433390Y-122739508D01*
X131349508Y-122823390D01*
X131290201Y-122926112D01*
X131290199Y-122926117D01*
X131259500Y-123040688D01*
X131259500Y-123159311D01*
X131290199Y-123273882D01*
X131290201Y-123273887D01*
X131349508Y-123376609D01*
X131349509Y-123376610D01*
X131349511Y-123376613D01*
X131433387Y-123460489D01*
X131433389Y-123460490D01*
X131433390Y-123460491D01*
X131486550Y-123491183D01*
X131521028Y-123536116D01*
X131513636Y-123592269D01*
X131468706Y-123626747D01*
X131461729Y-123628616D01*
X131397769Y-123665543D01*
X131368608Y-123694705D01*
X131345544Y-123717769D01*
X131345542Y-123717771D01*
X131302474Y-123760840D01*
X131275488Y-123787826D01*
X131223163Y-123809500D01*
X131140689Y-123809500D01*
X131026117Y-123840199D01*
X131026112Y-123840201D01*
X130923390Y-123899508D01*
X130839508Y-123983390D01*
X130780201Y-124086112D01*
X130780199Y-124086117D01*
X130749500Y-124200688D01*
X130749500Y-124319311D01*
X130780199Y-124433882D01*
X130780201Y-124433887D01*
X130839508Y-124536609D01*
X130839509Y-124536610D01*
X130839511Y-124536613D01*
X130859898Y-124557000D01*
X130881572Y-124609325D01*
X130859898Y-124661651D01*
X130844573Y-124673411D01*
X130773389Y-124714509D01*
X130689508Y-124798390D01*
X130630201Y-124901112D01*
X130630199Y-124901117D01*
X130599500Y-125015688D01*
X111353018Y-125015688D01*
X111694020Y-124674686D01*
X111694021Y-124674685D01*
X111734250Y-124577562D01*
X111734250Y-124472438D01*
X111734250Y-124193503D01*
X111755923Y-124141178D01*
X111830489Y-124066613D01*
X111889799Y-123963886D01*
X111920499Y-123849311D01*
X111920500Y-123849311D01*
X111920500Y-123730689D01*
X111920499Y-123730688D01*
X111917037Y-123717769D01*
X111899590Y-123652653D01*
X111906982Y-123596500D01*
X111951915Y-123562022D01*
X111971068Y-123559500D01*
X112688846Y-123559500D01*
X112741172Y-123581174D01*
X112757641Y-123609698D01*
X112758346Y-123609407D01*
X112760201Y-123613887D01*
X112819508Y-123716609D01*
X112819509Y-123716610D01*
X112819511Y-123716613D01*
X112903387Y-123800489D01*
X112903389Y-123800490D01*
X112903390Y-123800491D01*
X113006112Y-123859798D01*
X113006114Y-123859799D01*
X113006115Y-123859799D01*
X113006117Y-123859800D01*
X113049891Y-123871529D01*
X113120688Y-123890499D01*
X113120689Y-123890500D01*
X113120691Y-123890500D01*
X113239311Y-123890500D01*
X113239311Y-123890499D01*
X113353886Y-123859799D01*
X113456613Y-123800489D01*
X113540489Y-123716613D01*
X113599799Y-123613886D01*
X113630499Y-123499311D01*
X113630500Y-123499311D01*
X113630500Y-123440282D01*
X113652174Y-123387956D01*
X113704500Y-123366282D01*
X113756826Y-123387956D01*
X113787308Y-123418438D01*
X113787311Y-123418442D01*
X113791529Y-123422660D01*
X113867340Y-123498471D01*
X113908370Y-123515466D01*
X113966394Y-123539501D01*
X114082219Y-123539501D01*
X114082227Y-123539500D01*
X117211746Y-123539500D01*
X117264071Y-123561174D01*
X117289607Y-123586709D01*
X117313387Y-123610489D01*
X117344784Y-123628616D01*
X117386416Y-123652653D01*
X117416114Y-123669799D01*
X117416115Y-123669799D01*
X117416117Y-123669800D01*
X117473402Y-123685149D01*
X117530688Y-123700499D01*
X117530689Y-123700500D01*
X117530691Y-123700500D01*
X117649311Y-123700500D01*
X117649311Y-123700499D01*
X117763886Y-123669799D01*
X117866613Y-123610489D01*
X117950489Y-123526613D01*
X118009799Y-123423886D01*
X118040499Y-123309311D01*
X118040500Y-123309311D01*
X118040500Y-123190689D01*
X118040499Y-123190688D01*
X118009800Y-123076117D01*
X118009798Y-123076112D01*
X117950491Y-122973390D01*
X117950490Y-122973389D01*
X117950489Y-122973387D01*
X117866613Y-122889511D01*
X117866610Y-122889509D01*
X117866609Y-122889508D01*
X117763887Y-122830201D01*
X117763882Y-122830199D01*
X117649311Y-122799500D01*
X117649309Y-122799500D01*
X117530691Y-122799500D01*
X117530689Y-122799500D01*
X117416117Y-122830199D01*
X117416112Y-122830201D01*
X117313390Y-122889508D01*
X117313387Y-122889510D01*
X117313387Y-122889511D01*
X117229511Y-122973387D01*
X117229509Y-122973389D01*
X117226082Y-122976817D01*
X117224515Y-122975250D01*
X117181863Y-122999868D01*
X117172214Y-123000500D01*
X116693323Y-123000500D01*
X116640997Y-122978826D01*
X116619323Y-122926500D01*
X116629237Y-122889500D01*
X116649798Y-122853887D01*
X116649799Y-122853886D01*
X116680499Y-122739311D01*
X116680500Y-122739311D01*
X116680500Y-122620689D01*
X116680499Y-122620688D01*
X116679278Y-122616133D01*
X116662677Y-122554175D01*
X116649800Y-122506117D01*
X116649798Y-122506112D01*
X116590491Y-122403390D01*
X116590490Y-122403389D01*
X116590489Y-122403387D01*
X116506613Y-122319511D01*
X116506610Y-122319509D01*
X116506609Y-122319508D01*
X116403887Y-122260201D01*
X116403882Y-122260199D01*
X116289311Y-122229500D01*
X116289309Y-122229500D01*
X116170691Y-122229500D01*
X116170689Y-122229500D01*
X116056117Y-122260199D01*
X116056112Y-122260201D01*
X115953390Y-122319508D01*
X115869508Y-122403390D01*
X115810201Y-122506112D01*
X115810199Y-122506117D01*
X115779500Y-122620688D01*
X115779500Y-122739311D01*
X115810199Y-122853882D01*
X115810201Y-122853887D01*
X115830763Y-122889500D01*
X115838156Y-122945652D01*
X115803677Y-122990586D01*
X115766677Y-123000500D01*
X114162282Y-123000500D01*
X114109956Y-122978826D01*
X113848879Y-122717749D01*
X113848879Y-122717748D01*
X113762661Y-122631530D01*
X113762657Y-122631527D01*
X113663607Y-122590500D01*
X110937417Y-122590500D01*
X110885091Y-122568826D01*
X110863417Y-122516500D01*
X110885091Y-122464174D01*
X110901786Y-122447478D01*
X110947089Y-122344875D01*
X110950000Y-122319789D01*
X110950000Y-122055000D01*
X107950001Y-122055000D01*
X107950001Y-122319792D01*
X107213898Y-122319792D01*
X107316613Y-122260489D01*
X107400489Y-122176613D01*
X107459799Y-122073886D01*
X107490499Y-121959311D01*
X107490500Y-121959311D01*
X107490500Y-121840689D01*
X107490499Y-121840688D01*
X107489642Y-121837491D01*
X107460709Y-121729511D01*
X107459800Y-121726117D01*
X107459798Y-121726112D01*
X107400491Y-121623390D01*
X107400490Y-121623389D01*
X107400489Y-121623387D01*
X107316613Y-121539511D01*
X107316610Y-121539509D01*
X107316609Y-121539508D01*
X107213887Y-121480201D01*
X107213882Y-121480199D01*
X107099311Y-121449500D01*
X107099309Y-121449500D01*
X106980691Y-121449500D01*
X106975841Y-121449500D01*
X106975841Y-121447121D01*
X106928680Y-121434469D01*
X106912219Y-121416888D01*
X106910588Y-121414447D01*
X106894552Y-121390448D01*
X106849716Y-121360489D01*
X106828232Y-121346133D01*
X106818413Y-121344180D01*
X106810357Y-121342577D01*
X106763266Y-121311113D01*
X106752216Y-121255564D01*
X106783681Y-121208472D01*
X106810357Y-121197422D01*
X106828231Y-121193867D01*
X106894552Y-121149552D01*
X106923786Y-121105799D01*
X106970878Y-121074335D01*
X107004467Y-121075435D01*
X107031051Y-121082558D01*
X107060688Y-121090499D01*
X107060689Y-121090500D01*
X107060691Y-121090500D01*
X107179311Y-121090500D01*
X107179311Y-121090499D01*
X107293886Y-121059799D01*
X107396613Y-121000489D01*
X107480489Y-120916613D01*
X107539799Y-120813886D01*
X107570499Y-120699311D01*
X107570500Y-120699311D01*
X107570500Y-120580689D01*
X107570499Y-120580688D01*
X107539800Y-120466117D01*
X107539798Y-120466112D01*
X107480491Y-120363390D01*
X107480490Y-120363389D01*
X107480489Y-120363387D01*
X107396613Y-120279511D01*
X107396610Y-120279509D01*
X107396609Y-120279508D01*
X107293887Y-120220201D01*
X107293882Y-120220199D01*
X107179311Y-120189500D01*
X107179309Y-120189500D01*
X107060691Y-120189500D01*
X107010133Y-120203046D01*
X106953981Y-120195654D01*
X106929454Y-120172682D01*
X106894552Y-120120448D01*
X106864682Y-120100489D01*
X106828232Y-120076133D01*
X106818413Y-120074180D01*
X106810357Y-120072577D01*
X106763266Y-120041113D01*
X106752216Y-119985564D01*
X106783681Y-119938472D01*
X106810357Y-119927422D01*
X106828231Y-119923867D01*
X106894552Y-119879552D01*
X106938867Y-119813231D01*
X106950500Y-119754748D01*
X106950500Y-119708500D01*
X106972174Y-119656174D01*
X107024500Y-119634500D01*
X107203128Y-119634500D01*
X107255454Y-119656174D01*
X107274606Y-119689347D01*
X107285199Y-119728882D01*
X107285201Y-119728887D01*
X107344508Y-119831609D01*
X107344509Y-119831610D01*
X107344511Y-119831613D01*
X107428387Y-119915489D01*
X107428389Y-119915490D01*
X107428390Y-119915491D01*
X107513608Y-119964692D01*
X107531114Y-119974799D01*
X107531115Y-119974799D01*
X107531117Y-119974800D01*
X107544911Y-119978496D01*
X107645688Y-120005499D01*
X107645689Y-120005500D01*
X107645691Y-120005500D01*
X107764311Y-120005500D01*
X107764311Y-120005499D01*
X107878886Y-119974799D01*
X107981613Y-119915489D01*
X108009815Y-119887286D01*
X108026596Y-119880335D01*
X108040635Y-119868807D01*
X108050793Y-119870312D01*
X108062138Y-119865613D01*
X108097001Y-119874339D01*
X108104719Y-119878461D01*
X108105448Y-119879552D01*
X108171769Y-119923867D01*
X108200397Y-119929561D01*
X108210067Y-119934726D01*
X108221610Y-119948782D01*
X108236734Y-119958888D01*
X108238915Y-119969855D01*
X108246011Y-119978496D01*
X108244234Y-119996596D01*
X108247783Y-120014437D01*
X108241571Y-120023733D01*
X108240479Y-120034862D01*
X108226422Y-120046405D01*
X108216317Y-120061529D01*
X108199547Y-120068475D01*
X108196709Y-120070806D01*
X108194454Y-120070584D01*
X108189642Y-120072577D01*
X108184442Y-120073612D01*
X108171767Y-120076133D01*
X108105449Y-120120447D01*
X108105447Y-120120449D01*
X108061133Y-120186767D01*
X108054483Y-120220199D01*
X108049500Y-120245252D01*
X108049500Y-121024748D01*
X108055138Y-121053093D01*
X108061133Y-121083232D01*
X108083545Y-121116772D01*
X108105448Y-121149552D01*
X108105451Y-121149554D01*
X108110602Y-121154705D01*
X108108697Y-121156609D01*
X108134266Y-121194867D01*
X108123222Y-121250417D01*
X108091580Y-121277005D01*
X108077522Y-121283212D01*
X107998213Y-121362521D01*
X107952910Y-121465124D01*
X107950000Y-121490210D01*
X107950000Y-121755000D01*
X110949999Y-121755000D01*
X110949999Y-121490207D01*
X110947091Y-121465131D01*
X110947089Y-121465125D01*
X110901786Y-121362521D01*
X110822477Y-121283212D01*
X110808420Y-121277005D01*
X110769308Y-121236042D01*
X110770617Y-121179420D01*
X110777580Y-121167029D01*
X110785568Y-121155554D01*
X110794552Y-121149552D01*
X110838867Y-121083231D01*
X110840045Y-121077307D01*
X110847766Y-121066218D01*
X110865383Y-121054927D01*
X110880177Y-121040134D01*
X110892200Y-121037742D01*
X110895451Y-121035659D01*
X110898888Y-121036411D01*
X110908497Y-121034500D01*
X112772718Y-121034500D01*
X112825044Y-121056174D01*
X113167826Y-121398956D01*
X113189500Y-121451282D01*
X113189500Y-121549311D01*
X113220199Y-121663882D01*
X113220201Y-121663887D01*
X113279508Y-121766609D01*
X113279509Y-121766610D01*
X113279511Y-121766613D01*
X113363387Y-121850489D01*
X113363389Y-121850490D01*
X113363390Y-121850491D01*
X113461912Y-121907373D01*
X113466114Y-121909799D01*
X113466115Y-121909799D01*
X113466117Y-121909800D01*
X113489693Y-121916117D01*
X113580688Y-121940499D01*
X113580689Y-121940500D01*
X113580691Y-121940500D01*
X113699311Y-121940500D01*
X113699311Y-121940499D01*
X113813886Y-121909799D01*
X113916613Y-121850489D01*
X114000489Y-121766613D01*
X114059799Y-121663886D01*
X114090499Y-121549311D01*
X114090500Y-121549311D01*
X114090500Y-121520092D01*
X114112174Y-121467766D01*
X114164500Y-121446092D01*
X114183655Y-121448614D01*
X114186794Y-121449455D01*
X114190690Y-121450500D01*
X114190691Y-121450500D01*
X114309311Y-121450500D01*
X114309311Y-121450499D01*
X114423886Y-121419799D01*
X114526613Y-121360489D01*
X114610489Y-121276613D01*
X114632563Y-121238378D01*
X114677495Y-121203900D01*
X114715800Y-121203900D01*
X114753053Y-121213882D01*
X114773537Y-121219371D01*
X114773538Y-121219371D01*
X114892158Y-121219371D01*
X114892158Y-121219370D01*
X115006733Y-121188670D01*
X115109460Y-121129360D01*
X115193336Y-121045484D01*
X115252646Y-120942757D01*
X115271545Y-120872225D01*
X115306021Y-120827294D01*
X115362174Y-120819901D01*
X115395348Y-120839054D01*
X115890315Y-121334021D01*
X115940268Y-121354712D01*
X115987437Y-121374250D01*
X115987438Y-121374250D01*
X116092562Y-121374250D01*
X116706497Y-121374250D01*
X116758821Y-121395923D01*
X116833387Y-121470489D01*
X116833389Y-121470490D01*
X116833390Y-121470491D01*
X116905587Y-121512174D01*
X116936114Y-121529799D01*
X116936115Y-121529799D01*
X116936117Y-121529800D01*
X116960417Y-121536311D01*
X117050688Y-121560499D01*
X117050689Y-121560500D01*
X117050691Y-121560500D01*
X117169311Y-121560500D01*
X117169311Y-121560499D01*
X117283886Y-121529799D01*
X117386613Y-121470489D01*
X117470489Y-121386613D01*
X117529799Y-121283886D01*
X117560499Y-121169311D01*
X117560500Y-121169311D01*
X117560500Y-121076580D01*
X117582174Y-121024254D01*
X117634500Y-121002580D01*
X117671500Y-121012494D01*
X117733871Y-121048504D01*
X117736114Y-121049799D01*
X117736115Y-121049799D01*
X117736117Y-121049800D01*
X117773434Y-121059799D01*
X117850688Y-121080499D01*
X117850689Y-121080500D01*
X117850691Y-121080500D01*
X117969311Y-121080500D01*
X117969311Y-121080499D01*
X118083886Y-121049799D01*
X118186613Y-120990489D01*
X118270489Y-120906613D01*
X118329799Y-120803886D01*
X118360499Y-120689311D01*
X118360500Y-120689311D01*
X118360500Y-120570689D01*
X118360499Y-120570688D01*
X118358727Y-120564076D01*
X118329799Y-120456114D01*
X118315029Y-120430532D01*
X118270491Y-120353390D01*
X118270490Y-120353389D01*
X118270489Y-120353387D01*
X118186613Y-120269511D01*
X118186610Y-120269509D01*
X118186609Y-120269508D01*
X118083887Y-120210201D01*
X118083882Y-120210199D01*
X117969311Y-120179500D01*
X117969309Y-120179500D01*
X117850691Y-120179500D01*
X117850689Y-120179500D01*
X117736117Y-120210199D01*
X117736112Y-120210201D01*
X117633389Y-120269509D01*
X117633386Y-120269511D01*
X117573571Y-120329326D01*
X117521246Y-120351000D01*
X116345357Y-120351000D01*
X116293031Y-120329326D01*
X114374393Y-118410688D01*
X117209500Y-118410688D01*
X117209500Y-118529311D01*
X117240199Y-118643882D01*
X117240201Y-118643887D01*
X117299508Y-118746609D01*
X117299509Y-118746610D01*
X117299511Y-118746613D01*
X117383387Y-118830489D01*
X117383389Y-118830490D01*
X117383390Y-118830491D01*
X117457688Y-118873387D01*
X117486114Y-118889799D01*
X117486115Y-118889799D01*
X117486117Y-118889800D01*
X117543402Y-118905149D01*
X117600688Y-118920499D01*
X117600689Y-118920500D01*
X117600691Y-118920500D01*
X117719311Y-118920500D01*
X117719311Y-118920499D01*
X117833886Y-118889799D01*
X117936613Y-118830489D01*
X118020489Y-118746613D01*
X118079799Y-118643886D01*
X118110499Y-118529311D01*
X118110500Y-118529311D01*
X118110500Y-118410689D01*
X118110499Y-118410688D01*
X118079800Y-118296117D01*
X118079798Y-118296112D01*
X118020491Y-118193390D01*
X118020490Y-118193389D01*
X118020489Y-118193387D01*
X117936613Y-118109511D01*
X117936610Y-118109509D01*
X117936609Y-118109508D01*
X117833887Y-118050201D01*
X117833882Y-118050199D01*
X117719311Y-118019500D01*
X117719309Y-118019500D01*
X117600691Y-118019500D01*
X117600689Y-118019500D01*
X117486117Y-118050199D01*
X117486112Y-118050201D01*
X117383390Y-118109508D01*
X117299508Y-118193390D01*
X117240201Y-118296112D01*
X117240199Y-118296117D01*
X117209500Y-118410688D01*
X114374393Y-118410688D01*
X113805385Y-117841680D01*
X113704393Y-117740688D01*
X120899500Y-117740688D01*
X120899500Y-117859311D01*
X120930199Y-117973882D01*
X120930201Y-117973887D01*
X120989508Y-118076609D01*
X120989509Y-118076610D01*
X120989511Y-118076613D01*
X121073387Y-118160489D01*
X121073389Y-118160490D01*
X121073390Y-118160491D01*
X121176112Y-118219798D01*
X121176114Y-118219799D01*
X121176115Y-118219799D01*
X121176117Y-118219800D01*
X121233402Y-118235149D01*
X121290688Y-118250499D01*
X121290689Y-118250500D01*
X121290691Y-118250500D01*
X121409311Y-118250500D01*
X121409311Y-118250499D01*
X121523886Y-118219799D01*
X121626613Y-118160489D01*
X121710489Y-118076613D01*
X121769799Y-117973886D01*
X121800499Y-117859311D01*
X121800500Y-117859311D01*
X121800500Y-117740689D01*
X121800499Y-117740688D01*
X121797503Y-117729508D01*
X121769799Y-117626114D01*
X121768510Y-117623882D01*
X121710491Y-117523390D01*
X121710490Y-117523389D01*
X121710489Y-117523387D01*
X121626613Y-117439511D01*
X121626610Y-117439509D01*
X121626609Y-117439508D01*
X121601354Y-117424927D01*
X121523887Y-117380201D01*
X121523882Y-117380199D01*
X121469726Y-117365688D01*
X126964500Y-117365688D01*
X126964500Y-117484311D01*
X126995199Y-117598882D01*
X126995201Y-117598887D01*
X127054508Y-117701609D01*
X127054509Y-117701610D01*
X127054511Y-117701613D01*
X127138387Y-117785489D01*
X127138389Y-117785490D01*
X127138390Y-117785491D01*
X127235712Y-117841680D01*
X127241114Y-117844799D01*
X127241115Y-117844799D01*
X127241117Y-117844800D01*
X127249686Y-117847096D01*
X127355688Y-117875499D01*
X127355689Y-117875500D01*
X127355691Y-117875500D01*
X127474311Y-117875500D01*
X127474311Y-117875499D01*
X127588886Y-117844799D01*
X127691613Y-117785489D01*
X127775489Y-117701613D01*
X127834799Y-117598886D01*
X127865499Y-117484311D01*
X127865500Y-117484311D01*
X127865500Y-117390688D01*
X131009500Y-117390688D01*
X131009500Y-117509311D01*
X131040199Y-117623882D01*
X131040201Y-117623887D01*
X131099508Y-117726609D01*
X131099509Y-117726610D01*
X131099511Y-117726613D01*
X131183387Y-117810489D01*
X131183389Y-117810490D01*
X131183390Y-117810491D01*
X131286112Y-117869798D01*
X131286114Y-117869799D01*
X131286115Y-117869799D01*
X131286117Y-117869800D01*
X131307390Y-117875500D01*
X131400688Y-117900499D01*
X131400689Y-117900500D01*
X131400691Y-117900500D01*
X131519311Y-117900500D01*
X131519311Y-117900499D01*
X131633886Y-117869799D01*
X131736613Y-117810489D01*
X131820489Y-117726613D01*
X131879799Y-117623886D01*
X131910499Y-117509311D01*
X131910500Y-117509311D01*
X131910500Y-117390689D01*
X131910499Y-117390688D01*
X131908671Y-117383867D01*
X131879932Y-117276609D01*
X131879800Y-117276117D01*
X131879798Y-117276112D01*
X131820491Y-117173390D01*
X131820490Y-117173389D01*
X131820489Y-117173387D01*
X131736613Y-117089511D01*
X131736610Y-117089509D01*
X131736609Y-117089508D01*
X131633887Y-117030201D01*
X131633882Y-117030199D01*
X131519311Y-116999500D01*
X131519309Y-116999500D01*
X131400691Y-116999500D01*
X131400689Y-116999500D01*
X131286117Y-117030199D01*
X131286112Y-117030201D01*
X131183390Y-117089508D01*
X131099508Y-117173390D01*
X131040201Y-117276112D01*
X131040199Y-117276117D01*
X131009500Y-117390688D01*
X127865500Y-117390688D01*
X127865500Y-117365689D01*
X127865499Y-117365688D01*
X127864106Y-117360491D01*
X127850149Y-117308402D01*
X127834800Y-117251117D01*
X127834798Y-117251112D01*
X127775491Y-117148390D01*
X127775490Y-117148389D01*
X127775489Y-117148387D01*
X127691613Y-117064511D01*
X127691610Y-117064509D01*
X127691609Y-117064508D01*
X127588887Y-117005201D01*
X127588882Y-117005199D01*
X127474311Y-116974500D01*
X127474309Y-116974500D01*
X127355691Y-116974500D01*
X127355689Y-116974500D01*
X127241117Y-117005199D01*
X127241112Y-117005201D01*
X127138390Y-117064508D01*
X127054508Y-117148390D01*
X126995201Y-117251112D01*
X126995199Y-117251117D01*
X126964500Y-117365688D01*
X121469726Y-117365688D01*
X121409311Y-117349500D01*
X121409309Y-117349500D01*
X121290691Y-117349500D01*
X121290689Y-117349500D01*
X121176117Y-117380199D01*
X121176112Y-117380201D01*
X121073390Y-117439508D01*
X120989508Y-117523390D01*
X120930201Y-117626112D01*
X120930199Y-117626117D01*
X120899500Y-117740688D01*
X113704393Y-117740688D01*
X111754394Y-115790688D01*
X125379500Y-115790688D01*
X125379500Y-115909311D01*
X125410199Y-116023882D01*
X125410201Y-116023887D01*
X125469508Y-116126609D01*
X125469509Y-116126610D01*
X125469511Y-116126613D01*
X125553387Y-116210489D01*
X125553389Y-116210490D01*
X125553390Y-116210491D01*
X125643607Y-116262578D01*
X125656114Y-116269799D01*
X125656115Y-116269799D01*
X125656117Y-116269800D01*
X125713402Y-116285149D01*
X125770688Y-116300499D01*
X125770689Y-116300500D01*
X125770691Y-116300500D01*
X125889311Y-116300500D01*
X125889311Y-116300499D01*
X126003886Y-116269799D01*
X126106613Y-116210489D01*
X126190489Y-116126613D01*
X126249799Y-116023886D01*
X126280499Y-115909311D01*
X126280500Y-115909311D01*
X126280500Y-115790689D01*
X126280499Y-115790688D01*
X126249800Y-115676117D01*
X126249798Y-115676112D01*
X126190491Y-115573390D01*
X126190490Y-115573389D01*
X126190489Y-115573387D01*
X126106613Y-115489511D01*
X126106610Y-115489509D01*
X126106609Y-115489508D01*
X126003887Y-115430201D01*
X126003882Y-115430199D01*
X125889311Y-115399500D01*
X125889309Y-115399500D01*
X125770691Y-115399500D01*
X125770689Y-115399500D01*
X125656117Y-115430199D01*
X125656112Y-115430201D01*
X125553390Y-115489508D01*
X125469508Y-115573390D01*
X125410201Y-115676112D01*
X125410199Y-115676117D01*
X125379500Y-115790688D01*
X111754394Y-115790688D01*
X111294685Y-115330979D01*
X111294684Y-115330978D01*
X111294682Y-115330977D01*
X111218762Y-115299531D01*
X111218761Y-115299530D01*
X111197563Y-115290750D01*
X110924500Y-115290750D01*
X110872174Y-115269076D01*
X110850500Y-115216750D01*
X110850500Y-115165253D01*
X110849495Y-115160199D01*
X110838867Y-115106769D01*
X110834210Y-115099800D01*
X110824027Y-115084560D01*
X110794552Y-115040448D01*
X110752757Y-115012521D01*
X110728232Y-114996133D01*
X110718413Y-114994180D01*
X110710357Y-114992577D01*
X110663266Y-114961113D01*
X110652216Y-114905564D01*
X110683681Y-114858472D01*
X110710357Y-114847422D01*
X110728231Y-114843867D01*
X110794552Y-114799552D01*
X110838867Y-114733231D01*
X110850500Y-114674748D01*
X110850500Y-114620688D01*
X117779500Y-114620688D01*
X117779500Y-114739311D01*
X117810199Y-114853882D01*
X117810201Y-114853887D01*
X117869508Y-114956609D01*
X117869509Y-114956610D01*
X117869511Y-114956613D01*
X117953387Y-115040489D01*
X117953389Y-115040490D01*
X117953390Y-115040491D01*
X118056112Y-115099798D01*
X118056114Y-115099799D01*
X118056115Y-115099799D01*
X118056117Y-115099800D01*
X118082126Y-115106769D01*
X118170688Y-115130499D01*
X118170689Y-115130500D01*
X118170691Y-115130500D01*
X118289311Y-115130500D01*
X118289311Y-115130499D01*
X118403886Y-115099799D01*
X118506613Y-115040489D01*
X118590489Y-114956613D01*
X118649799Y-114853886D01*
X118680499Y-114739311D01*
X118680500Y-114739311D01*
X118680500Y-114620689D01*
X118680499Y-114620688D01*
X118675089Y-114600499D01*
X118649799Y-114506114D01*
X118603899Y-114426613D01*
X118590491Y-114403390D01*
X118590490Y-114403389D01*
X118590489Y-114403387D01*
X118506613Y-114319511D01*
X118506610Y-114319509D01*
X118506609Y-114319508D01*
X118403887Y-114260201D01*
X118403882Y-114260199D01*
X118289311Y-114229500D01*
X118289309Y-114229500D01*
X118170691Y-114229500D01*
X118170689Y-114229500D01*
X118056117Y-114260199D01*
X118056112Y-114260201D01*
X117953390Y-114319508D01*
X117869508Y-114403390D01*
X117810201Y-114506112D01*
X117810199Y-114506117D01*
X117779500Y-114620688D01*
X110850500Y-114620688D01*
X110850500Y-114090688D01*
X131489500Y-114090688D01*
X131489500Y-114209311D01*
X131520199Y-114323882D01*
X131520201Y-114323887D01*
X131579508Y-114426609D01*
X131579509Y-114426610D01*
X131579511Y-114426613D01*
X131663387Y-114510489D01*
X131766114Y-114569799D01*
X131766115Y-114569799D01*
X131766117Y-114569800D01*
X131823402Y-114585149D01*
X131880688Y-114600499D01*
X131880689Y-114600500D01*
X131880691Y-114600500D01*
X131999311Y-114600500D01*
X131999311Y-114600499D01*
X132113886Y-114569799D01*
X132216613Y-114510489D01*
X132300489Y-114426613D01*
X132359799Y-114323886D01*
X132390499Y-114209311D01*
X132390500Y-114209311D01*
X132390500Y-114090689D01*
X132390499Y-114090688D01*
X132359800Y-113976117D01*
X132359798Y-113976112D01*
X132300491Y-113873390D01*
X132300490Y-113873389D01*
X132300489Y-113873387D01*
X132216613Y-113789511D01*
X132216610Y-113789509D01*
X132216609Y-113789508D01*
X132113887Y-113730201D01*
X132113882Y-113730199D01*
X131999311Y-113699500D01*
X131999309Y-113699500D01*
X131880691Y-113699500D01*
X131880689Y-113699500D01*
X131766117Y-113730199D01*
X131766112Y-113730201D01*
X131663390Y-113789508D01*
X131579508Y-113873390D01*
X131520201Y-113976112D01*
X131520199Y-113976117D01*
X131489500Y-114090688D01*
X110850500Y-114090688D01*
X110850500Y-113895252D01*
X110838867Y-113836769D01*
X110826209Y-113817826D01*
X110815375Y-113801612D01*
X110794552Y-113770448D01*
X110772343Y-113755608D01*
X110728232Y-113726133D01*
X110728233Y-113726133D01*
X110698989Y-113720316D01*
X110669748Y-113714500D01*
X110669746Y-113714500D01*
X110634500Y-113714500D01*
X110582174Y-113692826D01*
X110560500Y-113640500D01*
X110560500Y-113200689D01*
X110560499Y-113200688D01*
X110529800Y-113086117D01*
X110529798Y-113086112D01*
X110510589Y-113052841D01*
X110492025Y-113020688D01*
X127509500Y-113020688D01*
X127509500Y-113139311D01*
X127540199Y-113253882D01*
X127540201Y-113253887D01*
X127599508Y-113356609D01*
X127599509Y-113356610D01*
X127599511Y-113356613D01*
X127683387Y-113440489D01*
X127683389Y-113440490D01*
X127683390Y-113440491D01*
X127786112Y-113499798D01*
X127786114Y-113499799D01*
X127786115Y-113499799D01*
X127786117Y-113499800D01*
X127843402Y-113515149D01*
X127900688Y-113530499D01*
X127900689Y-113530500D01*
X127900691Y-113530500D01*
X128019311Y-113530500D01*
X128019311Y-113530499D01*
X128133886Y-113499799D01*
X128236613Y-113440489D01*
X128320489Y-113356613D01*
X128379799Y-113253886D01*
X128410499Y-113139311D01*
X128410500Y-113139311D01*
X128410500Y-113020689D01*
X128410499Y-113020688D01*
X128379800Y-112906117D01*
X128379798Y-112906112D01*
X128320491Y-112803390D01*
X128320490Y-112803389D01*
X128320489Y-112803387D01*
X128236613Y-112719511D01*
X128236610Y-112719509D01*
X128236609Y-112719508D01*
X128133887Y-112660201D01*
X128133882Y-112660199D01*
X128019311Y-112629500D01*
X128019309Y-112629500D01*
X127900691Y-112629500D01*
X127900689Y-112629500D01*
X127786117Y-112660199D01*
X127786112Y-112660201D01*
X127683390Y-112719508D01*
X127599508Y-112803390D01*
X127540201Y-112906112D01*
X127540199Y-112906117D01*
X127509500Y-113020688D01*
X110492025Y-113020688D01*
X110470491Y-112983390D01*
X110470490Y-112983389D01*
X110470489Y-112983387D01*
X110386613Y-112899511D01*
X110386610Y-112899509D01*
X110386609Y-112899508D01*
X110283887Y-112840201D01*
X110283882Y-112840199D01*
X110169311Y-112809500D01*
X110169309Y-112809500D01*
X110050691Y-112809500D01*
X110050689Y-112809500D01*
X109936117Y-112840199D01*
X109936112Y-112840201D01*
X109833390Y-112899508D01*
X109749508Y-112983390D01*
X109690201Y-113086112D01*
X109690199Y-113086117D01*
X109659500Y-113200688D01*
X109659500Y-113407745D01*
X109637826Y-113460071D01*
X109405071Y-113692826D01*
X109352745Y-113714500D01*
X108230252Y-113714500D01*
X108201010Y-113720316D01*
X108171767Y-113726133D01*
X108105447Y-113770448D01*
X108092845Y-113789309D01*
X108084624Y-113801612D01*
X108037533Y-113833078D01*
X108023096Y-113834500D01*
X106976904Y-113834500D01*
X106924578Y-113812826D01*
X106915377Y-113801615D01*
X106894552Y-113770448D01*
X106887147Y-113765500D01*
X106828232Y-113726133D01*
X106828233Y-113726133D01*
X106798989Y-113720316D01*
X106769748Y-113714500D01*
X104330252Y-113714500D01*
X104301010Y-113720316D01*
X104271767Y-113726133D01*
X104205449Y-113770447D01*
X104205447Y-113770449D01*
X104161133Y-113836767D01*
X104149500Y-113895253D01*
X104149500Y-114674746D01*
X104161133Y-114733232D01*
X104187965Y-114773387D01*
X104205448Y-114799552D01*
X104205451Y-114799554D01*
X104210602Y-114804705D01*
X104208697Y-114806609D01*
X104234266Y-114844867D01*
X104223222Y-114900417D01*
X104191580Y-114927005D01*
X104177522Y-114933212D01*
X104098213Y-115012521D01*
X104052910Y-115115124D01*
X104050000Y-115140210D01*
X102500500Y-115140210D01*
X102500500Y-112420688D01*
X131579500Y-112420688D01*
X131579500Y-112539311D01*
X131610199Y-112653882D01*
X131610201Y-112653887D01*
X131669508Y-112756609D01*
X131669509Y-112756610D01*
X131669511Y-112756613D01*
X131753387Y-112840489D01*
X131856114Y-112899799D01*
X131856115Y-112899799D01*
X131856117Y-112899800D01*
X131879693Y-112906117D01*
X131970688Y-112930499D01*
X131970689Y-112930500D01*
X131970691Y-112930500D01*
X132089311Y-112930500D01*
X132089311Y-112930499D01*
X132203886Y-112899799D01*
X132306613Y-112840489D01*
X132390489Y-112756613D01*
X132449799Y-112653886D01*
X132480499Y-112539311D01*
X132480500Y-112539311D01*
X132480500Y-112420689D01*
X132480499Y-112420688D01*
X132480448Y-112420499D01*
X132449799Y-112306114D01*
X132446553Y-112300491D01*
X132390491Y-112203390D01*
X132390490Y-112203389D01*
X132390489Y-112203387D01*
X132306613Y-112119511D01*
X132306610Y-112119509D01*
X132306609Y-112119508D01*
X132203887Y-112060201D01*
X132203882Y-112060199D01*
X132089311Y-112029500D01*
X132089309Y-112029500D01*
X131970691Y-112029500D01*
X131970689Y-112029500D01*
X131856117Y-112060199D01*
X131856112Y-112060201D01*
X131753390Y-112119508D01*
X131669508Y-112203390D01*
X131610201Y-112306112D01*
X131610199Y-112306117D01*
X131579500Y-112420688D01*
X102500500Y-112420688D01*
X102500500Y-111910688D01*
X116139500Y-111910688D01*
X116139500Y-112029311D01*
X116170199Y-112143882D01*
X116170201Y-112143887D01*
X116229508Y-112246609D01*
X116229509Y-112246610D01*
X116229511Y-112246613D01*
X116313387Y-112330489D01*
X116313389Y-112330490D01*
X116313390Y-112330491D01*
X116416112Y-112389798D01*
X116416114Y-112389799D01*
X116416115Y-112389799D01*
X116416117Y-112389800D01*
X116473402Y-112405149D01*
X116530688Y-112420499D01*
X116530689Y-112420500D01*
X116530691Y-112420500D01*
X116649311Y-112420500D01*
X116649311Y-112420499D01*
X116763886Y-112389799D01*
X116866613Y-112330489D01*
X116950489Y-112246613D01*
X117009799Y-112143886D01*
X117040499Y-112029311D01*
X117040500Y-112029311D01*
X117040500Y-111910689D01*
X117036294Y-111894992D01*
X117036294Y-111894990D01*
X117032462Y-111880688D01*
X127889500Y-111880688D01*
X127889500Y-111999311D01*
X127920199Y-112113882D01*
X127920201Y-112113887D01*
X127979508Y-112216609D01*
X127979509Y-112216610D01*
X127979511Y-112216613D01*
X128063387Y-112300489D01*
X128063389Y-112300490D01*
X128063390Y-112300491D01*
X128166112Y-112359798D01*
X128166114Y-112359799D01*
X128166115Y-112359799D01*
X128166117Y-112359800D01*
X128223402Y-112375149D01*
X128280688Y-112390499D01*
X128280689Y-112390500D01*
X128280691Y-112390500D01*
X128399311Y-112390500D01*
X128399311Y-112390499D01*
X128513886Y-112359799D01*
X128522098Y-112355057D01*
X128527819Y-112351755D01*
X128606870Y-112306114D01*
X128616613Y-112300489D01*
X128700489Y-112216613D01*
X128759799Y-112113886D01*
X128790499Y-111999311D01*
X128790500Y-111999311D01*
X128790500Y-111984500D01*
X128812174Y-111932174D01*
X128864500Y-111910500D01*
X128899311Y-111910500D01*
X128899311Y-111910499D01*
X129013886Y-111879799D01*
X129116613Y-111820489D01*
X129200489Y-111736613D01*
X129259799Y-111633886D01*
X129290499Y-111519311D01*
X129290500Y-111519311D01*
X129290500Y-111474500D01*
X129312174Y-111422174D01*
X129364500Y-111400500D01*
X129389311Y-111400500D01*
X129389311Y-111400499D01*
X129503886Y-111369799D01*
X129606613Y-111310489D01*
X129690489Y-111226613D01*
X129749799Y-111123886D01*
X129780499Y-111009311D01*
X129780500Y-111009311D01*
X129780500Y-111004500D01*
X129802174Y-110952174D01*
X129854500Y-110930500D01*
X129969311Y-110930500D01*
X129969311Y-110930499D01*
X130083886Y-110899799D01*
X130186613Y-110840489D01*
X130270489Y-110756613D01*
X130329799Y-110653886D01*
X130360499Y-110539311D01*
X130360500Y-110539311D01*
X130360500Y-110420689D01*
X130360499Y-110420688D01*
X130329800Y-110306117D01*
X130329798Y-110306112D01*
X130270491Y-110203390D01*
X130270490Y-110203389D01*
X130270489Y-110203387D01*
X130186613Y-110119511D01*
X130186610Y-110119509D01*
X130186609Y-110119508D01*
X130083887Y-110060201D01*
X130083882Y-110060199D01*
X129969311Y-110029500D01*
X129969309Y-110029500D01*
X129850691Y-110029500D01*
X129850689Y-110029500D01*
X129736117Y-110060199D01*
X129736112Y-110060201D01*
X129633390Y-110119508D01*
X129549508Y-110203390D01*
X129490201Y-110306112D01*
X129490199Y-110306117D01*
X129459500Y-110420688D01*
X129459500Y-110425500D01*
X129437826Y-110477826D01*
X129385500Y-110499500D01*
X129270689Y-110499500D01*
X129156117Y-110530199D01*
X129156112Y-110530201D01*
X129053390Y-110589508D01*
X128969508Y-110673390D01*
X128910201Y-110776112D01*
X128910199Y-110776117D01*
X128879500Y-110890688D01*
X128879500Y-110935500D01*
X128857826Y-110987826D01*
X128805500Y-111009500D01*
X128780689Y-111009500D01*
X128666117Y-111040199D01*
X128666112Y-111040201D01*
X128563390Y-111099508D01*
X128479508Y-111183390D01*
X128420201Y-111286112D01*
X128420199Y-111286117D01*
X128389500Y-111400688D01*
X128389500Y-111415500D01*
X128367826Y-111467826D01*
X128315500Y-111489500D01*
X128280689Y-111489500D01*
X128166117Y-111520199D01*
X128166112Y-111520201D01*
X128063390Y-111579508D01*
X127979508Y-111663390D01*
X127920201Y-111766112D01*
X127920199Y-111766117D01*
X127889500Y-111880688D01*
X117032462Y-111880688D01*
X117009800Y-111796117D01*
X117009798Y-111796112D01*
X116950491Y-111693390D01*
X116950490Y-111693389D01*
X116950489Y-111693387D01*
X116866613Y-111609511D01*
X116866610Y-111609509D01*
X116866609Y-111609508D01*
X116763887Y-111550201D01*
X116763882Y-111550199D01*
X116649311Y-111519500D01*
X116649309Y-111519500D01*
X116530691Y-111519500D01*
X116530689Y-111519500D01*
X116416117Y-111550199D01*
X116416112Y-111550201D01*
X116313390Y-111609508D01*
X116229508Y-111693390D01*
X116170201Y-111796112D01*
X116170199Y-111796117D01*
X116139500Y-111910688D01*
X102500500Y-111910688D01*
X102500500Y-108194792D01*
X118615001Y-108194792D01*
X118617908Y-108219868D01*
X118617910Y-108219874D01*
X118663213Y-108322478D01*
X118742521Y-108401786D01*
X118845124Y-108447089D01*
X118845123Y-108447089D01*
X118870210Y-108449999D01*
X119135000Y-108449999D01*
X119135000Y-107100000D01*
X118615001Y-107100000D01*
X118615001Y-108194792D01*
X102500500Y-108194792D01*
X102500500Y-105705210D01*
X118615000Y-105705210D01*
X118615000Y-106800000D01*
X119135000Y-106800000D01*
X119135000Y-105450000D01*
X118870207Y-105450000D01*
X118845131Y-105452908D01*
X118845125Y-105452910D01*
X118742521Y-105498213D01*
X118663213Y-105577521D01*
X118617910Y-105680124D01*
X118615000Y-105705210D01*
X102500500Y-105705210D01*
X102500500Y-104294792D01*
X118615001Y-104294792D01*
X118617908Y-104319868D01*
X118617910Y-104319874D01*
X118663213Y-104422478D01*
X118742521Y-104501786D01*
X118845124Y-104547089D01*
X118845123Y-104547089D01*
X118870210Y-104549999D01*
X119135000Y-104549999D01*
X119435000Y-104549999D01*
X119556500Y-104549999D01*
X119608826Y-104571673D01*
X119630500Y-104623999D01*
X119630500Y-105376000D01*
X119608826Y-105428326D01*
X119556500Y-105450000D01*
X119435000Y-105450000D01*
X119435000Y-106800000D01*
X119556500Y-106800000D01*
X119608826Y-106821674D01*
X119630500Y-106874000D01*
X119630500Y-107026000D01*
X119608826Y-107078326D01*
X119556500Y-107100000D01*
X119435000Y-107100000D01*
X119435000Y-108449999D01*
X119556500Y-108449999D01*
X119608826Y-108471673D01*
X119630500Y-108523999D01*
X119630500Y-109061746D01*
X119608826Y-109114072D01*
X119539508Y-109183390D01*
X119480201Y-109286112D01*
X119480199Y-109286117D01*
X119449500Y-109400688D01*
X119449500Y-109519311D01*
X119480199Y-109633882D01*
X119480201Y-109633887D01*
X119539508Y-109736609D01*
X119539509Y-109736610D01*
X119539511Y-109736613D01*
X119623387Y-109820489D01*
X119623389Y-109820490D01*
X119623390Y-109820491D01*
X119690628Y-109859311D01*
X119726114Y-109879799D01*
X119726115Y-109879799D01*
X119726117Y-109879800D01*
X119751529Y-109886609D01*
X119840688Y-109910499D01*
X119840689Y-109910500D01*
X119840691Y-109910500D01*
X119959311Y-109910500D01*
X119959311Y-109910499D01*
X120073886Y-109879799D01*
X120176613Y-109820489D01*
X120260489Y-109736613D01*
X120319799Y-109633886D01*
X120350499Y-109519311D01*
X120350500Y-109519311D01*
X120350500Y-109400689D01*
X120350499Y-109400688D01*
X120319800Y-109286117D01*
X120319798Y-109286112D01*
X120260491Y-109183390D01*
X120260490Y-109183389D01*
X120260489Y-109183387D01*
X120191174Y-109114072D01*
X120169500Y-109061746D01*
X120169500Y-108523999D01*
X120191174Y-108471673D01*
X120243500Y-108449999D01*
X120405000Y-108449999D01*
X120405000Y-107100000D01*
X120243500Y-107100000D01*
X120191174Y-107078326D01*
X120169500Y-107026000D01*
X120169500Y-106874000D01*
X120191174Y-106821674D01*
X120243500Y-106800000D01*
X120405000Y-106800000D01*
X120405000Y-105450000D01*
X120243500Y-105450000D01*
X120191174Y-105428326D01*
X120169500Y-105376000D01*
X120169500Y-104524500D01*
X120191174Y-104472174D01*
X120243500Y-104450500D01*
X120806500Y-104450500D01*
X120858826Y-104472174D01*
X120880500Y-104524500D01*
X120880500Y-105376000D01*
X120858826Y-105428326D01*
X120806500Y-105450000D01*
X120705000Y-105450000D01*
X120705000Y-108449999D01*
X120806500Y-108449999D01*
X120858826Y-108471673D01*
X120880500Y-108523999D01*
X120880500Y-109213607D01*
X120881922Y-109220756D01*
X120881730Y-109220794D01*
X120885750Y-109241001D01*
X120885750Y-109396497D01*
X120864076Y-109448821D01*
X120819655Y-109493243D01*
X120789508Y-109523390D01*
X120730201Y-109626112D01*
X120730199Y-109626117D01*
X120699500Y-109740688D01*
X120699500Y-109859311D01*
X120730199Y-109973882D01*
X120730201Y-109973887D01*
X120789508Y-110076609D01*
X120789509Y-110076610D01*
X120789511Y-110076613D01*
X120873387Y-110160489D01*
X120873389Y-110160490D01*
X120873390Y-110160491D01*
X120890726Y-110170500D01*
X120976114Y-110219799D01*
X120976115Y-110219799D01*
X120976117Y-110219800D01*
X121033402Y-110235149D01*
X121090688Y-110250499D01*
X121090689Y-110250500D01*
X121090691Y-110250500D01*
X121209311Y-110250500D01*
X121209311Y-110250499D01*
X121323886Y-110219799D01*
X121426613Y-110160489D01*
X121510489Y-110076613D01*
X121569799Y-109973886D01*
X121600499Y-109859311D01*
X121600500Y-109859311D01*
X121600500Y-109740689D01*
X121600499Y-109740688D01*
X121568544Y-109621429D01*
X121569867Y-109621074D01*
X121569864Y-109569645D01*
X121609909Y-109529593D01*
X121657386Y-109526480D01*
X121713931Y-109541631D01*
X121765688Y-109555499D01*
X121765689Y-109555500D01*
X121765691Y-109555500D01*
X121884310Y-109555500D01*
X121902256Y-109550691D01*
X121938631Y-109540944D01*
X121994783Y-109548335D01*
X122029262Y-109593268D01*
X122029264Y-109625765D01*
X122030133Y-109625880D01*
X122029500Y-109630689D01*
X122029500Y-109749311D01*
X122060199Y-109863882D01*
X122060201Y-109863887D01*
X122119508Y-109966609D01*
X122119509Y-109966610D01*
X122119511Y-109966613D01*
X122203387Y-110050489D01*
X122203389Y-110050490D01*
X122203390Y-110050491D01*
X122306112Y-110109798D01*
X122306114Y-110109799D01*
X122306115Y-110109799D01*
X122306117Y-110109800D01*
X122342348Y-110119508D01*
X122420688Y-110140499D01*
X122420689Y-110140500D01*
X122420691Y-110140500D01*
X122539311Y-110140500D01*
X122539311Y-110140499D01*
X122653886Y-110109799D01*
X122756613Y-110050489D01*
X122840489Y-109966613D01*
X122899799Y-109863886D01*
X122930499Y-109749311D01*
X122930500Y-109749311D01*
X122930500Y-109630689D01*
X122930499Y-109630688D01*
X122929273Y-109626114D01*
X122906350Y-109540561D01*
X122899800Y-109516117D01*
X122899798Y-109516112D01*
X122882137Y-109485522D01*
X122874745Y-109429369D01*
X122909223Y-109384436D01*
X122965376Y-109377044D01*
X122983225Y-109384438D01*
X122992505Y-109389796D01*
X122992508Y-109389797D01*
X122992511Y-109389799D01*
X122992512Y-109389799D01*
X122992514Y-109389800D01*
X123011085Y-109394776D01*
X123107085Y-109420499D01*
X123107086Y-109420500D01*
X123107088Y-109420500D01*
X123225707Y-109420500D01*
X123252252Y-109413387D01*
X123321707Y-109394776D01*
X123377858Y-109402168D01*
X123412337Y-109447100D01*
X123404946Y-109503253D01*
X123380201Y-109546114D01*
X123380199Y-109546117D01*
X123349500Y-109660688D01*
X123349500Y-109779311D01*
X123380199Y-109893882D01*
X123380201Y-109893887D01*
X123439508Y-109996609D01*
X123439509Y-109996610D01*
X123439511Y-109996613D01*
X123523387Y-110080489D01*
X123523389Y-110080490D01*
X123523390Y-110080491D01*
X123608795Y-110129800D01*
X123626114Y-110139799D01*
X123626115Y-110139799D01*
X123626117Y-110139800D01*
X123683402Y-110155149D01*
X123740688Y-110170499D01*
X123740689Y-110170500D01*
X123740691Y-110170500D01*
X123859311Y-110170500D01*
X123859311Y-110170499D01*
X123973886Y-110139799D01*
X124076613Y-110080489D01*
X124160489Y-109996613D01*
X124219799Y-109893886D01*
X124250499Y-109779311D01*
X124250500Y-109779311D01*
X124250500Y-109660689D01*
X124250499Y-109660688D01*
X124243317Y-109633886D01*
X124221819Y-109553652D01*
X124229211Y-109497500D01*
X124274144Y-109463022D01*
X124293297Y-109460500D01*
X124409311Y-109460500D01*
X124409311Y-109460499D01*
X124435059Y-109453600D01*
X124459122Y-109447153D01*
X124515275Y-109454545D01*
X124549753Y-109499478D01*
X124549753Y-109537784D01*
X124519500Y-109650688D01*
X124519500Y-109769311D01*
X124550199Y-109883882D01*
X124550201Y-109883887D01*
X124609508Y-109986609D01*
X124609509Y-109986610D01*
X124609511Y-109986613D01*
X124693387Y-110070489D01*
X124693389Y-110070490D01*
X124693390Y-110070491D01*
X124778295Y-110119511D01*
X124796114Y-110129799D01*
X124796115Y-110129799D01*
X124796117Y-110129800D01*
X124836050Y-110140500D01*
X124910688Y-110160499D01*
X124910689Y-110160500D01*
X124910691Y-110160500D01*
X125029311Y-110160500D01*
X125029311Y-110160499D01*
X125143886Y-110129799D01*
X125246613Y-110070489D01*
X125330489Y-109986613D01*
X125389799Y-109883886D01*
X125420499Y-109769311D01*
X125420500Y-109769311D01*
X125420500Y-109650689D01*
X125406973Y-109600209D01*
X125414365Y-109544056D01*
X125459297Y-109509577D01*
X125497604Y-109509577D01*
X125533933Y-109519311D01*
X125575688Y-109530499D01*
X125575689Y-109530500D01*
X125575691Y-109530500D01*
X125694311Y-109530500D01*
X125694311Y-109530499D01*
X125736067Y-109519311D01*
X125736347Y-109519236D01*
X125792499Y-109526628D01*
X125826978Y-109571561D01*
X125829500Y-109590714D01*
X125829500Y-109669311D01*
X125860199Y-109783882D01*
X125860201Y-109783887D01*
X125919508Y-109886609D01*
X125919509Y-109886610D01*
X125919511Y-109886613D01*
X126003387Y-109970489D01*
X126003389Y-109970490D01*
X126003390Y-109970491D01*
X126105596Y-110029500D01*
X126106114Y-110029799D01*
X126106115Y-110029799D01*
X126106117Y-110029800D01*
X126163402Y-110045149D01*
X126220688Y-110060499D01*
X126220689Y-110060500D01*
X126220691Y-110060500D01*
X126339311Y-110060500D01*
X126339311Y-110060499D01*
X126453886Y-110029799D01*
X126556613Y-109970489D01*
X126640489Y-109886613D01*
X126699799Y-109783886D01*
X126730499Y-109669311D01*
X126730500Y-109669311D01*
X126730500Y-109550691D01*
X126726227Y-109534744D01*
X126733620Y-109478592D01*
X126778554Y-109444113D01*
X126816858Y-109444113D01*
X126840691Y-109450500D01*
X126959310Y-109450500D01*
X126985855Y-109443387D01*
X126995065Y-109440919D01*
X127051218Y-109448311D01*
X127085697Y-109493243D01*
X127079476Y-109540561D01*
X127082058Y-109541631D01*
X127080199Y-109546117D01*
X127049500Y-109660688D01*
X127049500Y-109779311D01*
X127080199Y-109893882D01*
X127080201Y-109893887D01*
X127139508Y-109996609D01*
X127139509Y-109996610D01*
X127139511Y-109996613D01*
X127223387Y-110080489D01*
X127223389Y-110080490D01*
X127223390Y-110080491D01*
X127308795Y-110129800D01*
X127326114Y-110139799D01*
X127326115Y-110139799D01*
X127326117Y-110139800D01*
X127383402Y-110155149D01*
X127440688Y-110170499D01*
X127440689Y-110170500D01*
X127440691Y-110170500D01*
X127559311Y-110170500D01*
X127559311Y-110170499D01*
X127673886Y-110139799D01*
X127776613Y-110080489D01*
X127860489Y-109996613D01*
X127919799Y-109893886D01*
X127950499Y-109779311D01*
X127950500Y-109779311D01*
X127950500Y-109660691D01*
X127950247Y-109659747D01*
X127950311Y-109659256D01*
X127949867Y-109655880D01*
X127950771Y-109655760D01*
X127957638Y-109603594D01*
X128002570Y-109569114D01*
X128040878Y-109569114D01*
X128120688Y-109590499D01*
X128120689Y-109590500D01*
X128120691Y-109590500D01*
X128239310Y-109590500D01*
X128258701Y-109585303D01*
X128306596Y-109572470D01*
X128362748Y-109579862D01*
X128397227Y-109624794D01*
X128398608Y-109645841D01*
X128399500Y-109645841D01*
X128399500Y-109769311D01*
X128430199Y-109883882D01*
X128430201Y-109883887D01*
X128489508Y-109986609D01*
X128489509Y-109986610D01*
X128489511Y-109986613D01*
X128573387Y-110070489D01*
X128573389Y-110070490D01*
X128573390Y-110070491D01*
X128658295Y-110119511D01*
X128676114Y-110129799D01*
X128676115Y-110129799D01*
X128676117Y-110129800D01*
X128716050Y-110140500D01*
X128790688Y-110160499D01*
X128790689Y-110160500D01*
X128790691Y-110160500D01*
X128909311Y-110160500D01*
X128909311Y-110160499D01*
X129023886Y-110129799D01*
X129126613Y-110070489D01*
X129210489Y-109986613D01*
X129269799Y-109883886D01*
X129300499Y-109769311D01*
X129300500Y-109769311D01*
X129300500Y-109650689D01*
X129300499Y-109650688D01*
X129293914Y-109626114D01*
X129278641Y-109569114D01*
X129269800Y-109536117D01*
X129269798Y-109536112D01*
X129210491Y-109433390D01*
X129210490Y-109433389D01*
X129210489Y-109433387D01*
X129141174Y-109364072D01*
X129119500Y-109311746D01*
X129119500Y-109236002D01*
X129141174Y-109183676D01*
X129193500Y-109162002D01*
X129230497Y-109171915D01*
X129296114Y-109209799D01*
X129296116Y-109209799D01*
X129296117Y-109209800D01*
X129353402Y-109225149D01*
X129410688Y-109240499D01*
X129410689Y-109240500D01*
X129410691Y-109240500D01*
X129529311Y-109240500D01*
X129529311Y-109240499D01*
X129643886Y-109209799D01*
X129746613Y-109150489D01*
X129830489Y-109066613D01*
X129889799Y-108963886D01*
X129920499Y-108849311D01*
X129920500Y-108849311D01*
X129920500Y-108730689D01*
X129920499Y-108730688D01*
X129919952Y-108728648D01*
X129895741Y-108638291D01*
X129889800Y-108616117D01*
X129889798Y-108616112D01*
X129830491Y-108513390D01*
X129830490Y-108513389D01*
X129830489Y-108513387D01*
X129793220Y-108476118D01*
X129771547Y-108423794D01*
X129793221Y-108371468D01*
X129831606Y-108353342D01*
X129831182Y-108351209D01*
X129834746Y-108350500D01*
X129834748Y-108350500D01*
X129893231Y-108338867D01*
X129959552Y-108294552D01*
X130003867Y-108228231D01*
X130007422Y-108210357D01*
X130038887Y-108163266D01*
X130094436Y-108152216D01*
X130141528Y-108183681D01*
X130152578Y-108210358D01*
X130156133Y-108228232D01*
X130185608Y-108272343D01*
X130200448Y-108294552D01*
X130242242Y-108322478D01*
X130266767Y-108338866D01*
X130266768Y-108338866D01*
X130266769Y-108338867D01*
X130325252Y-108350500D01*
X130325254Y-108350500D01*
X131104746Y-108350500D01*
X131104748Y-108350500D01*
X131163231Y-108338867D01*
X131229552Y-108294552D01*
X131273867Y-108228231D01*
X131285500Y-108169748D01*
X131285500Y-105730252D01*
X131273867Y-105671769D01*
X131229552Y-105605448D01*
X131229550Y-105605447D01*
X131229550Y-105605446D01*
X131198387Y-105584623D01*
X131166922Y-105537530D01*
X131165500Y-105523095D01*
X131165500Y-104476904D01*
X131187174Y-104424578D01*
X131198388Y-104415375D01*
X131229552Y-104394552D01*
X131273867Y-104328231D01*
X131285500Y-104269748D01*
X131285500Y-103599500D01*
X131307174Y-103547174D01*
X131359500Y-103525500D01*
X132584311Y-103525500D01*
X132584311Y-103525499D01*
X132698886Y-103494799D01*
X132801613Y-103435489D01*
X132885489Y-103351613D01*
X132944799Y-103248886D01*
X132975499Y-103134311D01*
X132975500Y-103134311D01*
X132975500Y-103015689D01*
X132975499Y-103015688D01*
X132944800Y-102901117D01*
X132944798Y-102901112D01*
X132885491Y-102798390D01*
X132885490Y-102798389D01*
X132885489Y-102798387D01*
X132801613Y-102714511D01*
X132801610Y-102714509D01*
X132801609Y-102714508D01*
X132698887Y-102655201D01*
X132698882Y-102655199D01*
X132584311Y-102624500D01*
X132584309Y-102624500D01*
X131859309Y-102624500D01*
X131359500Y-102624500D01*
X131307174Y-102602826D01*
X131285500Y-102550500D01*
X131285500Y-101830253D01*
X131282728Y-101816317D01*
X131273867Y-101771769D01*
X131229552Y-101705448D01*
X131207343Y-101690608D01*
X131163232Y-101661133D01*
X131163233Y-101661133D01*
X131133989Y-101655316D01*
X131104748Y-101649500D01*
X130325252Y-101649500D01*
X130296010Y-101655316D01*
X130266767Y-101661133D01*
X130200449Y-101705447D01*
X130200447Y-101705449D01*
X130156133Y-101771767D01*
X130152578Y-101789642D01*
X130121112Y-101836734D01*
X130065563Y-101847783D01*
X130018471Y-101816317D01*
X130007422Y-101789642D01*
X130005529Y-101780124D01*
X130003867Y-101771769D01*
X129959552Y-101705448D01*
X129937343Y-101690608D01*
X129893232Y-101661133D01*
X129893233Y-101661133D01*
X129863989Y-101655316D01*
X129834748Y-101649500D01*
X129055252Y-101649500D01*
X129026010Y-101655316D01*
X128996767Y-101661133D01*
X128930449Y-101705447D01*
X128930447Y-101705449D01*
X128886133Y-101771767D01*
X128882578Y-101789642D01*
X128851112Y-101836734D01*
X128795563Y-101847783D01*
X128748471Y-101816317D01*
X128737422Y-101789642D01*
X128735529Y-101780124D01*
X128733867Y-101771769D01*
X128689552Y-101705448D01*
X128667343Y-101690608D01*
X128623232Y-101661133D01*
X128623233Y-101661133D01*
X128593989Y-101655316D01*
X128564748Y-101649500D01*
X127785252Y-101649500D01*
X127756010Y-101655316D01*
X127726767Y-101661133D01*
X127660449Y-101705447D01*
X127660447Y-101705449D01*
X127616133Y-101771767D01*
X127612578Y-101789642D01*
X127581112Y-101836734D01*
X127525563Y-101847783D01*
X127478471Y-101816317D01*
X127467422Y-101789642D01*
X127465529Y-101780124D01*
X127463867Y-101771769D01*
X127419552Y-101705448D01*
X127397343Y-101690608D01*
X127353232Y-101661133D01*
X127353233Y-101661133D01*
X127323989Y-101655316D01*
X127294748Y-101649500D01*
X126515252Y-101649500D01*
X126486010Y-101655316D01*
X126456767Y-101661133D01*
X126390449Y-101705447D01*
X126390447Y-101705449D01*
X126346133Y-101771767D01*
X126342578Y-101789642D01*
X126311112Y-101836734D01*
X126255563Y-101847783D01*
X126208471Y-101816317D01*
X126197422Y-101789642D01*
X126195529Y-101780124D01*
X126193867Y-101771769D01*
X126149552Y-101705448D01*
X126127343Y-101690608D01*
X126083232Y-101661133D01*
X126083233Y-101661133D01*
X126053989Y-101655316D01*
X126024748Y-101649500D01*
X125245252Y-101649500D01*
X125216010Y-101655316D01*
X125186767Y-101661133D01*
X125120449Y-101705447D01*
X125120447Y-101705449D01*
X125076133Y-101771767D01*
X125072578Y-101789642D01*
X125041112Y-101836734D01*
X124985563Y-101847783D01*
X124938471Y-101816317D01*
X124927422Y-101789642D01*
X124925529Y-101780124D01*
X124923867Y-101771769D01*
X124879552Y-101705448D01*
X124857343Y-101690608D01*
X124813232Y-101661133D01*
X124813233Y-101661133D01*
X124783989Y-101655316D01*
X124754748Y-101649500D01*
X123975252Y-101649500D01*
X123946010Y-101655316D01*
X123916767Y-101661133D01*
X123850449Y-101705447D01*
X123850447Y-101705449D01*
X123806133Y-101771767D01*
X123802578Y-101789642D01*
X123771112Y-101836734D01*
X123715563Y-101847783D01*
X123668471Y-101816317D01*
X123657422Y-101789642D01*
X123655529Y-101780124D01*
X123653867Y-101771769D01*
X123609552Y-101705448D01*
X123587343Y-101690608D01*
X123543232Y-101661133D01*
X123543233Y-101661133D01*
X123513989Y-101655316D01*
X123484748Y-101649500D01*
X122705252Y-101649500D01*
X122676010Y-101655316D01*
X122646767Y-101661133D01*
X122580449Y-101705447D01*
X122580447Y-101705449D01*
X122536133Y-101771767D01*
X122532578Y-101789642D01*
X122501112Y-101836734D01*
X122445563Y-101847783D01*
X122398471Y-101816317D01*
X122387422Y-101789642D01*
X122385529Y-101780124D01*
X122383867Y-101771769D01*
X122339552Y-101705448D01*
X122317343Y-101690608D01*
X122273232Y-101661133D01*
X122273233Y-101661133D01*
X122243989Y-101655316D01*
X122214748Y-101649500D01*
X121435252Y-101649500D01*
X121406010Y-101655316D01*
X121376767Y-101661133D01*
X121310449Y-101705447D01*
X121310447Y-101705449D01*
X121266133Y-101771767D01*
X121262578Y-101789642D01*
X121231112Y-101836734D01*
X121175563Y-101847783D01*
X121128471Y-101816317D01*
X121117422Y-101789642D01*
X121115529Y-101780124D01*
X121113867Y-101771769D01*
X121069552Y-101705448D01*
X121047343Y-101690608D01*
X121003232Y-101661133D01*
X121003233Y-101661133D01*
X120973989Y-101655316D01*
X120944748Y-101649500D01*
X120165252Y-101649500D01*
X120136010Y-101655316D01*
X120106767Y-101661133D01*
X120040449Y-101705447D01*
X120035295Y-101710602D01*
X120033392Y-101708699D01*
X119995117Y-101734269D01*
X119939569Y-101723214D01*
X119912993Y-101691578D01*
X119906787Y-101677522D01*
X119827478Y-101598213D01*
X119724875Y-101552910D01*
X119724876Y-101552910D01*
X119699789Y-101550000D01*
X119435000Y-101550000D01*
X119435000Y-104549999D01*
X119135000Y-104549999D01*
X119135000Y-103200000D01*
X118615001Y-103200000D01*
X118615001Y-104294792D01*
X102500500Y-104294792D01*
X102500500Y-101805210D01*
X118615000Y-101805210D01*
X118615000Y-102900000D01*
X119135000Y-102900000D01*
X119135000Y-101550000D01*
X118870207Y-101550000D01*
X118845131Y-101552908D01*
X118845125Y-101552910D01*
X118742521Y-101598213D01*
X118663213Y-101677521D01*
X118617910Y-101780124D01*
X118615000Y-101805210D01*
X102500500Y-101805210D01*
X102500500Y-100074500D01*
X102522174Y-100022174D01*
X102574500Y-100000500D01*
X147425500Y-100000500D01*
X147477826Y-100022174D01*
G37*
%TD.AperFunction*%
%TD*%
M02*
