%TF.GenerationSoftware,KiCad,Pcbnew,9.0.6*%
%TF.CreationDate,2026-01-01T11:49:18+08:00*%
%TF.ProjectId,soulcore,736f756c-636f-4726-952e-6b696361645f,rev?*%
%TF.SameCoordinates,Original*%
%TF.FileFunction,Legend,Bot*%
%TF.FilePolarity,Positive*%
%FSLAX46Y46*%
G04 Gerber Fmt 4.6, Leading zero omitted, Abs format (unit mm)*
G04 Created by KiCad (PCBNEW 9.0.6) date 2026-01-01 11:49:18*
%MOMM*%
%LPD*%
G01*
G04 APERTURE LIST*
%ADD10C,0.150000*%
%ADD11C,0.120000*%
%ADD12C,4.400000*%
%ADD13R,1.350000X1.350000*%
%ADD14C,1.350000*%
%ADD15R,2.400000X0.740000*%
%ADD16R,0.740000X2.400000*%
G04 APERTURE END LIST*
D10*
X142833333Y-111994819D02*
X142833333Y-112709104D01*
X142833333Y-112709104D02*
X142880952Y-112851961D01*
X142880952Y-112851961D02*
X142976190Y-112947200D01*
X142976190Y-112947200D02*
X143119047Y-112994819D01*
X143119047Y-112994819D02*
X143214285Y-112994819D01*
X142452380Y-111994819D02*
X141833333Y-111994819D01*
X141833333Y-111994819D02*
X142166666Y-112375771D01*
X142166666Y-112375771D02*
X142023809Y-112375771D01*
X142023809Y-112375771D02*
X141928571Y-112423390D01*
X141928571Y-112423390D02*
X141880952Y-112471009D01*
X141880952Y-112471009D02*
X141833333Y-112566247D01*
X141833333Y-112566247D02*
X141833333Y-112804342D01*
X141833333Y-112804342D02*
X141880952Y-112899580D01*
X141880952Y-112899580D02*
X141928571Y-112947200D01*
X141928571Y-112947200D02*
X142023809Y-112994819D01*
X142023809Y-112994819D02*
X142309523Y-112994819D01*
X142309523Y-112994819D02*
X142404761Y-112947200D01*
X142404761Y-112947200D02*
X142452380Y-112899580D01*
X107833333Y-111994819D02*
X107833333Y-112709104D01*
X107833333Y-112709104D02*
X107880952Y-112851961D01*
X107880952Y-112851961D02*
X107976190Y-112947200D01*
X107976190Y-112947200D02*
X108119047Y-112994819D01*
X108119047Y-112994819D02*
X108214285Y-112994819D01*
X106833333Y-112994819D02*
X107404761Y-112994819D01*
X107119047Y-112994819D02*
X107119047Y-111994819D01*
X107119047Y-111994819D02*
X107214285Y-112137676D01*
X107214285Y-112137676D02*
X107309523Y-112232914D01*
X107309523Y-112232914D02*
X107404761Y-112280533D01*
X130444819Y-108776666D02*
X131159104Y-108776666D01*
X131159104Y-108776666D02*
X131301961Y-108729047D01*
X131301961Y-108729047D02*
X131397200Y-108633809D01*
X131397200Y-108633809D02*
X131444819Y-108490952D01*
X131444819Y-108490952D02*
X131444819Y-108395714D01*
X130778152Y-109681428D02*
X131444819Y-109681428D01*
X130397200Y-109443333D02*
X131111485Y-109205238D01*
X131111485Y-109205238D02*
X131111485Y-109824285D01*
D11*
%TO.C,J3*%
X140685000Y-113540000D02*
X140685000Y-113605000D01*
X140685000Y-126395000D02*
X140685000Y-126460000D01*
X144315000Y-113540000D02*
X140685000Y-113540000D01*
X144315000Y-113540000D02*
X144315000Y-113605000D01*
X144315000Y-126395000D02*
X144315000Y-126460000D01*
X144315000Y-126460000D02*
X140685000Y-126460000D01*
X145590000Y-113605000D02*
X144315000Y-113605000D01*
%TO.C,J1*%
X105685000Y-113540000D02*
X105685000Y-113605000D01*
X105685000Y-126395000D02*
X105685000Y-126460000D01*
X109315000Y-113540000D02*
X105685000Y-113540000D01*
X109315000Y-113540000D02*
X109315000Y-113605000D01*
X109315000Y-126395000D02*
X109315000Y-126460000D01*
X109315000Y-126460000D02*
X105685000Y-126460000D01*
X110590000Y-113605000D02*
X109315000Y-113605000D01*
%TO.C,J4*%
X118540000Y-106815000D02*
X118540000Y-103185000D01*
X118605000Y-103185000D02*
X118540000Y-103185000D01*
X118605000Y-106815000D02*
X118540000Y-106815000D01*
X131395000Y-108090000D02*
X131395000Y-106815000D01*
X131460000Y-103185000D02*
X131395000Y-103185000D01*
X131460000Y-106815000D02*
X131395000Y-106815000D01*
X131460000Y-106815000D02*
X131460000Y-103185000D01*
%TD*%
%LPC*%
D12*
%TO.C,H4*%
X143500000Y-104000000D03*
%TD*%
%TO.C,H3*%
X143500000Y-136000000D03*
%TD*%
%TO.C,H2*%
X106500000Y-104000000D03*
%TD*%
D13*
%TO.C,J2*%
X145880000Y-131940000D03*
D14*
X143880000Y-131940000D03*
X141880000Y-131940000D03*
X139880000Y-131940000D03*
X137880000Y-131940000D03*
X135880000Y-131940000D03*
%TD*%
D12*
%TO.C,H1*%
X106500000Y-136000000D03*
%TD*%
D13*
%TO.C,J5*%
X130580000Y-135650000D03*
D14*
X132580000Y-135650000D03*
X134580000Y-135650000D03*
X136580000Y-135650000D03*
%TD*%
D15*
%TO.C,J3*%
X144450000Y-114285000D03*
X140550000Y-114285000D03*
X144450000Y-115555000D03*
X140550000Y-115555000D03*
X144450000Y-116825000D03*
X140550000Y-116825000D03*
X144450000Y-118095000D03*
X140550000Y-118095000D03*
X144450000Y-119365000D03*
X140550000Y-119365000D03*
X144450000Y-120635000D03*
X140550000Y-120635000D03*
X144450000Y-121905000D03*
X140550000Y-121905000D03*
X144450000Y-123175000D03*
X140550000Y-123175000D03*
X144450000Y-124445000D03*
X140550000Y-124445000D03*
X144450000Y-125715000D03*
X140550000Y-125715000D03*
%TD*%
%TO.C,J1*%
X109450000Y-114285000D03*
X105550000Y-114285000D03*
X109450000Y-115555000D03*
X105550000Y-115555000D03*
X109450000Y-116825000D03*
X105550000Y-116825000D03*
X109450000Y-118095000D03*
X105550000Y-118095000D03*
X109450000Y-119365000D03*
X105550000Y-119365000D03*
X109450000Y-120635000D03*
X105550000Y-120635000D03*
X109450000Y-121905000D03*
X105550000Y-121905000D03*
X109450000Y-123175000D03*
X105550000Y-123175000D03*
X109450000Y-124445000D03*
X105550000Y-124445000D03*
X109450000Y-125715000D03*
X105550000Y-125715000D03*
%TD*%
D16*
%TO.C,J4*%
X130715000Y-106950000D03*
X130715000Y-103050000D03*
X129445000Y-106950000D03*
X129445000Y-103050000D03*
X128175000Y-106950000D03*
X128175000Y-103050000D03*
X126905000Y-106950000D03*
X126905000Y-103050000D03*
X125635000Y-106950000D03*
X125635000Y-103050000D03*
X124365000Y-106950000D03*
X124365000Y-103050000D03*
X123095000Y-106950000D03*
X123095000Y-103050000D03*
X121825000Y-106950000D03*
X121825000Y-103050000D03*
X120555000Y-106950000D03*
X120555000Y-103050000D03*
X119285000Y-106950000D03*
X119285000Y-103050000D03*
%TD*%
%LPD*%
M02*
