M48
; DRILL file {KiCad 9.0.6} date 2026-01-01T11:49:18+0800
; FORMAT={-:-/ absolute / inch / decimal}
; #@! TF.CreationDate,2026-01-01T11:49:18+08:00
; #@! TF.GenerationSoftware,Kicad,Pcbnew,9.0.6
; #@! TF.FileFunction,Plated,1,4,PTH
FMAT,2
INCH
; #@! TA.AperFunction,Plated,PTH,ViaDrill
T1C0.0118
; #@! TA.AperFunction,Plated,PTH,ComponentDrill
T2C0.0315
; #@! TA.AperFunction,Plated,PTH,ComponentDrill
T3C0.0866
%
G90
G05
T1
X4.0748Y-4.5472
X4.1142Y-5.1476
X4.2138Y-4.8994
X4.2142Y-4.7992
X4.2146Y-4.8504
X4.2161Y-4.4994
X4.2173Y-4.7496
X4.2189Y-4.9464
X4.2311Y-4.6545
X4.2323Y-4.5472
X4.2352Y-4.6063
X4.2404Y-4.7069
X4.2457Y-4.4994
X4.2913Y-4.4488
X4.3012Y-4.3701
X4.335Y-4.4591
X4.3701Y-4.5748
X4.378Y-4.622
X4.378Y-4.6772
X4.3886Y-4.8736
X4.3898Y-4.4685
X4.435Y-4.8039
X4.4559Y-4.8598
X4.4685Y-4.5472
X4.474Y-4.7831
X4.4803Y-4.622
X4.498Y-4.7638
X4.5177Y-5.0098
X4.521Y-4.7547
X4.5276Y-4.6457
X4.5374Y-4.498
X4.5571Y-5.0591
X4.576Y-4.8299
X4.5866Y-5.2953
X4.5902Y-4.4083
X4.5916Y-4.981
X4.6051Y-5.4504
X4.6106Y-4.7681
X4.6295Y-4.8524
X4.6323Y-4.6642
X4.6421Y-4.7492
X4.6457Y-4.0551
X4.6457Y-4.2126
X4.6457Y-5.0787
X4.6547Y-4.515
X4.6654Y-4.2913
X4.6654Y-5.1181
X4.6654Y-5.1673
X4.6655Y-5.0147
X4.6949Y-3.9764
X4.6949Y-4.4783
X4.6963Y-4.1315
X4.6982Y-5.0022
X4.7035Y-5.3445
X4.7035Y-5.3925
X4.7039Y-5.2941
X4.7205Y-4.3094
X4.7343Y-5.0787
X4.7398Y-5.1445
X4.7441Y-5.4331
X4.7463Y-4.2717
X4.7469Y-4.1331
X4.7638Y-4.4094
X4.7697Y-4.3228
X4.7736Y-4.7146
X4.7736Y-4.8228
X4.7736Y-4.9311
X4.7736Y-5.0394
X4.7776Y-4.6378
X4.7835Y-5.3543
X4.7835Y-5.3937
X4.7835Y-5.4331
X4.7963Y-4.2955
X4.8146Y-5.1335
X4.822Y-4.3185
X4.8228Y-5.3937
X4.8228Y-5.4331
X4.8491Y-4.2902
X4.8522Y-5.099
X4.8614Y-5.1228
X4.8622Y-5.4331
X4.8701Y-5.1591
X4.872Y-5.2756
X4.874Y-4.3197
X4.8819Y-4.9311
X4.8819Y-5.0354
X4.8823Y-4.8224
X4.8917Y-4.7146
X4.8917Y-5.1969
X4.8917Y-5.2362
X4.8957Y-4.2917
X4.9016Y-5.1181
X4.9201Y-4.3193
X4.9409Y-5.1181
X4.9409Y-5.1575
X4.9409Y-5.1969
X4.9409Y-5.2362
X4.9463Y-4.2945
X4.9539Y-4.361
X4.9539Y-4.561
X4.9717Y-4.3154
X4.9803Y-5.1181
X4.9803Y-5.1575
X4.9803Y-5.1969
X4.9882Y-5.0354
X4.9894Y-4.8228
X4.9902Y-4.7146
X4.9902Y-4.9311
X4.9961Y-4.2913
X5.0Y-5.2953
X5.0163Y-4.623
X5.0197Y-4.3197
X5.0197Y-5.1181
X5.0197Y-5.1575
X5.0378Y-4.452
X5.0386Y-4.4969
X5.0465Y-4.2969
X5.0528Y-4.4071
X5.0724Y-4.3882
X5.0728Y-4.3193
X5.0917Y-4.3681
X5.0945Y-5.0315
X5.0972Y-4.2831
X5.0984Y-4.9311
X5.1146Y-4.3496
X5.1193Y-5.2031
X5.1378Y-4.4094
X5.1463Y-4.1213
X5.1463Y-4.1465
X5.1469Y-5.0819
X5.1565Y-4.5541
X5.1575Y-5.1171
X5.1594Y-4.9242
X5.1654Y-4.8921
X5.1669Y-5.0441
X5.1756Y-4.624
X5.1843Y-4.5541
X5.1854Y-4.8465
X5.189Y-4.0581
X5.1945Y-4.4941
X5.198Y-4.4283
X5.2075Y-5.0098
X5.2089Y-4.814
X5.213Y-4.5541
X5.2175Y-4.0581
X5.224Y-4.8996
X5.2264Y-5.2461
X5.2287Y-4.8465
X5.2382Y-4.6406
X5.2417Y-5.137
X5.2602Y-5.0177
X5.2697Y-4.8063
X5.2756Y-4.4291
X5.2756Y-4.4685
X5.2819Y-5.0843
X5.2913Y-4.0079
X5.2992Y-4.1024
X5.3039Y-4.9969
X5.3071Y-4.5596
X5.3165Y-4.6933
X5.3236Y-4.8776
X5.3323Y-4.7783
X5.3335Y-4.5596
X5.3335Y-4.9724
X5.3386Y-4.0551
X5.3469Y-4.6654
X5.3543Y-5.2657
X5.3567Y-4.5596
X5.3661Y-4.8858
X5.3701Y-4.9244
X5.3705Y-5.078
X5.3706Y-4.7991
X5.3823Y-4.5596
X5.3921Y-4.6512
X5.402Y-4.6909
X5.4067Y-4.5596
X5.4126Y-4.7142
X5.4213Y-4.5982
X5.4382Y-5.0622
X5.4626Y-4.9508
X5.4685Y-4.5512
X5.4728Y-4.7075
X5.4728Y-4.848
X5.4732Y-4.7654
X5.4736Y-4.8067
X5.5315Y-4.9902
X5.5413Y-5.2362
X5.5976Y-4.6492
X5.6075Y-4.5994
X5.6091Y-4.4996
X5.6094Y-4.4776
X5.6272Y-4.7494
X5.6287Y-4.5504
X5.6325Y-4.8191
X5.6457Y-4.4094
X5.687Y-5.072
X5.689Y-5.0
X5.6929Y-4.4488
X5.7677Y-4.9016
X5.7677Y-4.9508
X5.7717Y-4.7008
T2
X5.1409Y-5.3406
X5.2197Y-5.3406
X5.2984Y-5.3406
X5.3496Y-5.1945
X5.3772Y-5.3406
X5.4283Y-5.1945
X5.5071Y-5.1945
X5.5858Y-5.1945
X5.6646Y-5.1945
X5.7433Y-5.1945
T3
X4.1929Y-4.0945
X4.1929Y-5.3543
X5.6496Y-4.0945
X5.6496Y-5.3543
M30
