%TF.GenerationSoftware,KiCad,Pcbnew,9.0.6*%
%TF.CreationDate,2026-01-01T11:49:18+08:00*%
%TF.ProjectId,soulcore,736f756c-636f-4726-952e-6b696361645f,rev?*%
%TF.SameCoordinates,Original*%
%TF.FileFunction,Soldermask,Bot*%
%TF.FilePolarity,Negative*%
%FSLAX46Y46*%
G04 Gerber Fmt 4.6, Leading zero omitted, Abs format (unit mm)*
G04 Created by KiCad (PCBNEW 9.0.6) date 2026-01-01 11:49:18*
%MOMM*%
%LPD*%
G01*
G04 APERTURE LIST*
%ADD10C,4.400000*%
%ADD11R,1.350000X1.350000*%
%ADD12C,1.350000*%
%ADD13R,2.400000X0.740000*%
%ADD14R,0.740000X2.400000*%
G04 APERTURE END LIST*
D10*
%TO.C,H4*%
X143500000Y-104000000D03*
%TD*%
%TO.C,H3*%
X143500000Y-136000000D03*
%TD*%
%TO.C,H2*%
X106500000Y-104000000D03*
%TD*%
D11*
%TO.C,J2*%
X145880000Y-131940000D03*
D12*
X143880000Y-131940000D03*
X141880000Y-131940000D03*
X139880000Y-131940000D03*
X137880000Y-131940000D03*
X135880000Y-131940000D03*
%TD*%
D10*
%TO.C,H1*%
X106500000Y-136000000D03*
%TD*%
D11*
%TO.C,J5*%
X130580000Y-135650000D03*
D12*
X132580000Y-135650000D03*
X134580000Y-135650000D03*
X136580000Y-135650000D03*
%TD*%
D13*
%TO.C,J3*%
X144450000Y-114285000D03*
X140550000Y-114285000D03*
X144450000Y-115555000D03*
X140550000Y-115555000D03*
X144450000Y-116825000D03*
X140550000Y-116825000D03*
X144450000Y-118095000D03*
X140550000Y-118095000D03*
X144450000Y-119365000D03*
X140550000Y-119365000D03*
X144450000Y-120635000D03*
X140550000Y-120635000D03*
X144450000Y-121905000D03*
X140550000Y-121905000D03*
X144450000Y-123175000D03*
X140550000Y-123175000D03*
X144450000Y-124445000D03*
X140550000Y-124445000D03*
X144450000Y-125715000D03*
X140550000Y-125715000D03*
%TD*%
%TO.C,J1*%
X109450000Y-114285000D03*
X105550000Y-114285000D03*
X109450000Y-115555000D03*
X105550000Y-115555000D03*
X109450000Y-116825000D03*
X105550000Y-116825000D03*
X109450000Y-118095000D03*
X105550000Y-118095000D03*
X109450000Y-119365000D03*
X105550000Y-119365000D03*
X109450000Y-120635000D03*
X105550000Y-120635000D03*
X109450000Y-121905000D03*
X105550000Y-121905000D03*
X109450000Y-123175000D03*
X105550000Y-123175000D03*
X109450000Y-124445000D03*
X105550000Y-124445000D03*
X109450000Y-125715000D03*
X105550000Y-125715000D03*
%TD*%
D14*
%TO.C,J4*%
X130715000Y-106950000D03*
X130715000Y-103050000D03*
X129445000Y-106950000D03*
X129445000Y-103050000D03*
X128175000Y-106950000D03*
X128175000Y-103050000D03*
X126905000Y-106950000D03*
X126905000Y-103050000D03*
X125635000Y-106950000D03*
X125635000Y-103050000D03*
X124365000Y-106950000D03*
X124365000Y-103050000D03*
X123095000Y-106950000D03*
X123095000Y-103050000D03*
X121825000Y-106950000D03*
X121825000Y-103050000D03*
X120555000Y-106950000D03*
X120555000Y-103050000D03*
X119285000Y-106950000D03*
X119285000Y-103050000D03*
%TD*%
M02*
