%TF.GenerationSoftware,KiCad,Pcbnew,9.0.6*%
%TF.CreationDate,2026-01-01T11:49:18+08:00*%
%TF.ProjectId,soulcore,736f756c-636f-4726-952e-6b696361645f,rev?*%
%TF.SameCoordinates,Original*%
%TF.FileFunction,Copper,L2,Inr*%
%TF.FilePolarity,Positive*%
%FSLAX46Y46*%
G04 Gerber Fmt 4.6, Leading zero omitted, Abs format (unit mm)*
G04 Created by KiCad (PCBNEW 9.0.6) date 2026-01-01 11:49:18*
%MOMM*%
%LPD*%
G01*
G04 APERTURE LIST*
%TA.AperFunction,ComponentPad*%
%ADD10C,4.400000*%
%TD*%
%TA.AperFunction,ComponentPad*%
%ADD11R,1.350000X1.350000*%
%TD*%
%TA.AperFunction,ComponentPad*%
%ADD12C,1.350000*%
%TD*%
%TA.AperFunction,ViaPad*%
%ADD13C,0.500000*%
%TD*%
%TA.AperFunction,Conductor*%
%ADD14C,0.127500*%
%TD*%
%TA.AperFunction,Conductor*%
%ADD15C,0.138000*%
%TD*%
G04 APERTURE END LIST*
D10*
%TO.N,GND*%
%TO.C,H4*%
X143500000Y-104000000D03*
%TD*%
%TO.N,GND*%
%TO.C,H3*%
X143500000Y-136000000D03*
%TD*%
%TO.N,GND*%
%TO.C,H2*%
X106500000Y-104000000D03*
%TD*%
D11*
%TO.N,+3V3*%
%TO.C,J2*%
X145880000Y-131940000D03*
D12*
%TO.N,IO37{slash}U0TXD*%
X143880000Y-131940000D03*
%TO.N,IO38{slash}U0RXD*%
X141880000Y-131940000D03*
%TO.N,CHIP_PU*%
X139880000Y-131940000D03*
%TO.N,IO35{slash}BOOT*%
X137880000Y-131940000D03*
%TO.N,GND*%
X135880000Y-131940000D03*
%TD*%
D10*
%TO.N,GND*%
%TO.C,H1*%
X106500000Y-136000000D03*
%TD*%
D11*
%TO.N,+3V3*%
%TO.C,J5*%
X130580000Y-135650000D03*
D12*
%TO.N,JTAG_D-*%
X132580000Y-135650000D03*
%TO.N,JTAG_D+*%
X134580000Y-135650000D03*
%TO.N,GND*%
X136580000Y-135650000D03*
%TD*%
D13*
%TO.N,GND*%
X136410000Y-128980000D03*
X130030000Y-132160000D03*
X136300000Y-124100000D03*
X129400000Y-127800000D03*
X126700000Y-127900000D03*
X124000000Y-127900000D03*
%TO.N,+3V3*%
X131800000Y-103075000D03*
%TO.N,GND*%
X134400000Y-101800000D03*
X134600000Y-104200000D03*
X135600000Y-103000000D03*
X118000000Y-103000000D03*
X146600000Y-119400000D03*
X143400000Y-112000000D03*
X144600000Y-113000000D03*
%TO.N,+3V3*%
X142480000Y-113730000D03*
%TO.N,GND*%
X111000000Y-116200000D03*
X111200000Y-117400000D03*
X111200000Y-118800000D03*
X113800000Y-117400000D03*
X115000000Y-118000000D03*
X113500000Y-115500000D03*
X115250000Y-114250000D03*
X121000000Y-112000000D03*
X119250000Y-113750000D03*
X121250000Y-128000000D03*
X121250000Y-125250000D03*
X121250000Y-122500000D03*
X121250000Y-119750000D03*
X126750000Y-119750000D03*
X124250000Y-119750000D03*
X129500000Y-125250000D03*
X126750000Y-125250000D03*
X124000000Y-125250000D03*
X118000000Y-129000000D03*
X120250000Y-129000000D03*
X118500000Y-130000000D03*
X118500000Y-131250000D03*
X123750000Y-134000000D03*
X126500000Y-132000000D03*
X125500000Y-132000000D03*
X125500000Y-131000000D03*
X126500000Y-131000000D03*
X127500000Y-131000000D03*
X127500000Y-130000000D03*
X126500000Y-130000000D03*
X125500000Y-130000000D03*
X124250000Y-133000000D03*
X124250000Y-132000000D03*
X124500000Y-130000000D03*
X115750000Y-128500000D03*
X114750000Y-127250000D03*
X104500000Y-130750000D03*
X132750000Y-133250000D03*
X136000000Y-133750000D03*
X140750000Y-133000000D03*
X138750000Y-125750000D03*
X140500000Y-126750000D03*
X146500000Y-125750000D03*
X144500000Y-127000000D03*
X146500000Y-124500000D03*
X119250000Y-101000000D03*
X118500000Y-109000000D03*
X118000000Y-107000000D03*
X109250000Y-111000000D03*
X109000000Y-113000000D03*
X111500000Y-113500000D03*
X103500000Y-115500000D03*
X107500000Y-115500000D03*
X121500000Y-136000000D03*
X123500000Y-138000000D03*
X120500000Y-138000000D03*
X116500000Y-134500000D03*
X122500000Y-138000000D03*
X121500000Y-138000000D03*
X122500000Y-137000000D03*
X127000000Y-134500000D03*
X125500000Y-133000000D03*
X121500000Y-137000000D03*
X130500000Y-112000000D03*
X134000000Y-112500000D03*
X134000000Y-113500000D03*
X137330000Y-115815000D03*
X136710000Y-115815000D03*
X136060000Y-115815000D03*
X135470000Y-115815000D03*
X134800000Y-115815000D03*
%TO.N,IO35{slash}BOOT*%
X135220000Y-123890000D03*
%TO.N,VDDO_FLASH*%
X133850000Y-122080000D03*
X116970000Y-138440000D03*
%TO.N,GND*%
X138130000Y-128580000D03*
X144450000Y-128830000D03*
%TO.N,+3V3*%
X132525000Y-103075000D03*
%TO.N,GND*%
X135040000Y-119210000D03*
X133050000Y-117870000D03*
%TO.N,+3V3*%
X131460000Y-117450000D03*
%TO.N,GND*%
X126730000Y-122500000D03*
X124010000Y-122490000D03*
%TO.N,+3V3*%
X131050000Y-125075000D03*
%TO.N,JTAG_D+*%
X139010000Y-119570000D03*
%TO.N,GND*%
X132690000Y-124450000D03*
%TO.N,+3V3*%
X131000000Y-129975000D03*
%TO.N,GND*%
X133140000Y-130480000D03*
X134160000Y-129140000D03*
X125830000Y-110770000D03*
X127980000Y-114220000D03*
%TO.N,+1V2*%
X125830000Y-115850000D03*
%TO.N,+3V3*%
X116230000Y-122680000D03*
X117660000Y-118470000D03*
%TO.N,GND*%
X120570000Y-104980000D03*
X119285000Y-104940000D03*
%TO.N,+3V3*%
X130715000Y-105320000D03*
X130715000Y-104680000D03*
%TO.N,+1V2*%
X137700000Y-116795000D03*
%TO.N,IO28*%
X138900000Y-115600000D03*
%TO.N,+3V3*%
X142470000Y-114290000D03*
X136413200Y-121896800D03*
%TO.N,VDDO_FLASH*%
X120390000Y-130670000D03*
X122290000Y-130390000D03*
%TO.N,FLASH_HD*%
X123700000Y-131040000D03*
%TO.N,FLASH_CK*%
X123480000Y-130120000D03*
%TO.N,FLASH_D*%
X123245000Y-129515000D03*
%TO.N,IO35{slash}BOOT*%
X142180000Y-118090000D03*
%TO.N,CHIP_PU*%
X142430000Y-116825000D03*
%TO.N,IO29*%
X142970000Y-115580000D03*
%TO.N,IO26*%
X133610000Y-127450000D03*
%TO.N,IO27*%
X132270000Y-127250000D03*
%TO.N,IO29*%
X135470000Y-126300000D03*
%TO.N,IO28*%
X134720000Y-126920000D03*
%TO.N,FLASH_HD*%
X119470000Y-136970000D03*
%TO.N,FLASH_CK*%
X119470000Y-135750000D03*
%TO.N,FLASH_D*%
X119480000Y-134470000D03*
%TO.N,+3V3*%
X136400000Y-125080000D03*
%TO.N,JTAG_D-*%
X130730000Y-129080000D03*
%TO.N,JTAG_D+*%
X131240000Y-128120000D03*
%TO.N,IO38{slash}U0RXD*%
X132305000Y-122275000D03*
%TO.N,Net-(U1-GPIO36)*%
X135440000Y-121370000D03*
%TO.N,IO37{slash}U0TXD*%
X132810000Y-123100000D03*
%TO.N,Net-(U1-GPIO36)*%
X131710000Y-123100000D03*
%TO.N,JTAG_D-*%
X139020000Y-121040000D03*
%TO.N,USB_D-*%
X139010000Y-123140000D03*
%TO.N,USB_D+*%
X139030000Y-122090000D03*
%TO.N,IO38{slash}U0RXD*%
X142930000Y-120635000D03*
%TO.N,IO37{slash}U0TXD*%
X143065000Y-122405000D03*
%TO.N,IO35{slash}BOOT*%
X131200000Y-124260000D03*
%TO.N,GND*%
X132410000Y-115675000D03*
X131680000Y-115675000D03*
X130975000Y-115675000D03*
%TO.N,+3V3*%
X131940000Y-114150000D03*
X132030000Y-112480000D03*
%TO.N,IO35{slash}BOOT*%
X137480000Y-119740000D03*
%TO.N,IO26*%
X137210000Y-119150000D03*
%TO.N,IO27*%
X136960000Y-118140000D03*
%TO.N,CHIP_PU*%
X135810000Y-118500000D03*
X121350000Y-117800000D03*
%TO.N,IO39{slash}SDDAT0*%
X129910000Y-110480000D03*
%TO.N,IO40{slash}SDDAT1*%
X129330000Y-110950000D03*
%TO.N,IO41{slash}SDDAT2*%
X128840000Y-111460000D03*
%TO.N,IO42{slash}SDDAT3*%
X128340000Y-111940000D03*
%TO.N,IO43{slash}SDCLK*%
X127960000Y-113080000D03*
%TO.N,IO44{slash}SDCMD*%
X127415000Y-117425000D03*
%TO.N,IO45{slash}SDDET*%
X129470000Y-108790000D03*
%TO.N,IO46*%
X128850000Y-109710000D03*
%TO.N,IO47*%
X127500000Y-109720000D03*
%TO.N,IO48*%
X126280000Y-109610000D03*
%TO.N,IO49*%
X124970000Y-109710000D03*
%TO.N,IO50*%
X123800000Y-109720000D03*
%TO.N,IO51*%
X122480000Y-109690000D03*
%TO.N,IO52*%
X121150000Y-109800000D03*
%TO.N,IO53*%
X119900000Y-109460000D03*
%TO.N,GND*%
X116627500Y-126517500D03*
X112650000Y-122020000D03*
%TO.N,IO4{slash}TRST*%
X117910000Y-120630000D03*
%TO.N,IO5{slash}TDI*%
X117110000Y-121110000D03*
%TO.N,IO6{slash}SWDIO*%
X114832847Y-120768871D03*
%TO.N,IO7{slash}SWCLK*%
X114250000Y-121000000D03*
%TO.N,IO8{slash}BOOT*%
X113640000Y-121490000D03*
%TO.N,IO9{slash}nRST*%
X117590000Y-123250000D03*
%TO.N,IO10{slash}TDO*%
X113180000Y-123440000D03*
%TO.N,IO11{slash}nRST*%
X111470000Y-123790000D03*
%TO.N,+3V3*%
X119335000Y-127055000D03*
%TO.N,+1V2*%
X118502500Y-127372500D03*
%TO.N,IO17*%
X107161000Y-125639000D03*
%TO.N,IO16*%
X107030000Y-124445000D03*
%TO.N,IO15{slash}UART_RX*%
X107050000Y-123200000D03*
%TO.N,IO14{slash}UART_TX*%
X107040000Y-121900000D03*
%TO.N,IO13*%
X107120000Y-120640000D03*
%TO.N,IO12*%
X107705000Y-119555000D03*
%TO.N,IO3*%
X107470000Y-118225000D03*
%TO.N,IO2*%
X107575000Y-117000000D03*
%TO.N,+3V3*%
X116590000Y-111970000D03*
%TO.N,GND*%
X120555000Y-108500000D03*
%TO.N,IO42{slash}SDDAT3*%
X124350000Y-109010000D03*
%TO.N,IO41{slash}SDDAT2*%
X125635000Y-109080000D03*
%TO.N,IO40{slash}SDDAT1*%
X126900000Y-109000000D03*
%TO.N,IO39{slash}SDDAT0*%
X128180000Y-109140000D03*
%TO.N,IO43{slash}SDCLK*%
X123166397Y-108970000D03*
%TO.N,IO44{slash}SDCMD*%
X121825000Y-109105000D03*
%TO.N,+3V3*%
X107840000Y-114285000D03*
X107090000Y-114285000D03*
X110110000Y-113260000D03*
%TO.N,CHIP_PU*%
X118230000Y-114680000D03*
%TD*%
D14*
%TO.N,IO26*%
X137210000Y-119150000D02*
X137050000Y-119150000D01*
X137050000Y-119150000D02*
X136825000Y-119375000D01*
X136825000Y-119375000D02*
X136284006Y-119375000D01*
X134730000Y-120929006D02*
X134730000Y-126058889D01*
X136284006Y-119375000D02*
X134730000Y-120929006D01*
X134730000Y-126058889D02*
X133610000Y-127178889D01*
X133610000Y-127178889D02*
X133610000Y-127450000D01*
D15*
%TO.N,IO35{slash}BOOT*%
X135280000Y-123890000D02*
X137500000Y-121670000D01*
X135220000Y-123890000D02*
X135280000Y-123890000D01*
X137500000Y-119760000D02*
X137480000Y-119740000D01*
X137500000Y-121670000D02*
X137500000Y-119760000D01*
X135220000Y-123890000D02*
X135140000Y-123890000D01*
D14*
%TO.N,IO27*%
X136960000Y-118140000D02*
X136960000Y-118390000D01*
X134511500Y-125778500D02*
X133040000Y-127250000D01*
X136960000Y-118390000D02*
X134511500Y-120838500D01*
X134511500Y-120838500D02*
X134511500Y-125778500D01*
X133040000Y-127250000D02*
X132270000Y-127250000D01*
%TO.N,IO43{slash}SDCLK*%
X127960000Y-113080000D02*
X126330000Y-113080000D01*
X126330000Y-113080000D02*
X123166397Y-109916397D01*
X123166397Y-109916397D02*
X123166397Y-108970000D01*
%TO.N,IO42{slash}SDDAT3*%
X128340000Y-111940000D02*
X126050000Y-111940000D01*
X126050000Y-111940000D02*
X124350000Y-110240000D01*
X124350000Y-110240000D02*
X124350000Y-109010000D01*
%TO.N,IO41{slash}SDDAT2*%
X128840000Y-111460000D02*
X128810000Y-111430000D01*
X125635000Y-109725000D02*
X125635000Y-109080000D01*
X128810000Y-111430000D02*
X127340000Y-111430000D01*
X127340000Y-111430000D02*
X125635000Y-109725000D01*
%TO.N,IO40{slash}SDDAT1*%
X129330000Y-110950000D02*
X129320000Y-110940000D01*
X129320000Y-110940000D02*
X127830000Y-110940000D01*
X127830000Y-110940000D02*
X126900000Y-110010000D01*
X126900000Y-110010000D02*
X126900000Y-109000000D01*
%TO.N,IO39{slash}SDDAT0*%
X129910000Y-110480000D02*
X128800000Y-110480000D01*
X128180000Y-109860000D02*
X128180000Y-109140000D01*
X128800000Y-110480000D02*
X128180000Y-109860000D01*
D15*
%TO.N,IO29*%
X135470000Y-126300000D02*
X136514681Y-126300000D01*
X136514681Y-126300000D02*
X139710000Y-123104681D01*
X139710000Y-123104681D02*
X139710000Y-118903603D01*
D14*
X142970000Y-115580000D02*
X139710000Y-118840000D01*
X139710000Y-118840000D02*
X139710000Y-118903603D01*
D15*
%TO.N,IO28*%
X138900000Y-115600000D02*
X138900000Y-115900000D01*
X138450000Y-116350000D02*
X138450000Y-123850000D01*
X134720000Y-126385319D02*
X134720000Y-126920000D01*
X136520000Y-125780000D02*
X135325319Y-125780000D01*
X138900000Y-115900000D02*
X138450000Y-116350000D01*
X138450000Y-123850000D02*
X136520000Y-125780000D01*
X135325319Y-125780000D02*
X134720000Y-126385319D01*
X134720000Y-126920000D02*
X134880000Y-126920000D01*
D14*
%TO.N,CHIP_PU*%
X121350000Y-117800000D02*
X122050000Y-118500000D01*
X118230000Y-114680000D02*
X121350000Y-117800000D01*
%TO.N,IO44{slash}SDCMD*%
X121825000Y-109105000D02*
X121825000Y-109925000D01*
X127415000Y-115515000D02*
X127415000Y-117425000D01*
X121825000Y-109925000D02*
X127415000Y-115515000D01*
D15*
%TO.N,IO39{slash}SDDAT0*%
X128150000Y-109170000D02*
X128180000Y-109140000D01*
%TO.N,IO43{slash}SDCLK*%
X123166397Y-108970000D02*
X123166397Y-109130000D01*
%TO.N,IO40{slash}SDDAT1*%
X126900000Y-109140000D02*
X126900000Y-109000000D01*
%TO.N,IO41{slash}SDDAT2*%
X125650000Y-109150000D02*
X125650000Y-109050000D01*
D14*
%TO.N,CHIP_PU*%
X122050000Y-118500000D02*
X135810000Y-118500000D01*
%TD*%
%TA.AperFunction,Conductor*%
%TO.N,GND*%
G36*
X125453784Y-109921056D02*
G01*
X125469111Y-109932817D01*
X127085718Y-111549424D01*
X127107392Y-111601750D01*
X127085718Y-111654076D01*
X127033392Y-111675750D01*
X126190108Y-111675750D01*
X126137782Y-111654076D01*
X124741948Y-110258242D01*
X124720274Y-110205916D01*
X124741948Y-110153590D01*
X124794274Y-110131916D01*
X124813426Y-110134437D01*
X124910688Y-110160499D01*
X124910689Y-110160500D01*
X124910691Y-110160500D01*
X125029311Y-110160500D01*
X125029311Y-110160499D01*
X125143886Y-110129799D01*
X125246613Y-110070489D01*
X125330489Y-109986613D01*
X125352700Y-109948142D01*
X125397631Y-109913665D01*
X125453784Y-109921056D01*
G37*
%TD.AperFunction*%
%TA.AperFunction,Conductor*%
G36*
X147477826Y-100022174D02*
G01*
X147499500Y-100074500D01*
X147499500Y-139925500D01*
X147477826Y-139977826D01*
X147425500Y-139999500D01*
X102574500Y-139999500D01*
X102522174Y-139977826D01*
X102500500Y-139925500D01*
X102500500Y-138380688D01*
X116519500Y-138380688D01*
X116519500Y-138499311D01*
X116550199Y-138613882D01*
X116550201Y-138613887D01*
X116609508Y-138716609D01*
X116609509Y-138716610D01*
X116609511Y-138716613D01*
X116693387Y-138800489D01*
X116796114Y-138859799D01*
X116796115Y-138859799D01*
X116796117Y-138859800D01*
X116853402Y-138875149D01*
X116910688Y-138890499D01*
X116910689Y-138890500D01*
X116910691Y-138890500D01*
X117029311Y-138890500D01*
X117029311Y-138890499D01*
X117143886Y-138859799D01*
X117246613Y-138800489D01*
X117330489Y-138716613D01*
X117389799Y-138613886D01*
X117420499Y-138499311D01*
X117420500Y-138499311D01*
X117420500Y-138380689D01*
X117420499Y-138380688D01*
X117389800Y-138266117D01*
X117389798Y-138266112D01*
X117330491Y-138163390D01*
X117330490Y-138163389D01*
X117330489Y-138163387D01*
X117246613Y-138079511D01*
X117246610Y-138079509D01*
X117246609Y-138079508D01*
X117143887Y-138020201D01*
X117143882Y-138020199D01*
X117029311Y-137989500D01*
X117029309Y-137989500D01*
X116910691Y-137989500D01*
X116910689Y-137989500D01*
X116796117Y-138020199D01*
X116796112Y-138020201D01*
X116693390Y-138079508D01*
X116609508Y-138163390D01*
X116550201Y-138266112D01*
X116550199Y-138266117D01*
X116519500Y-138380688D01*
X102500500Y-138380688D01*
X102500500Y-136910688D01*
X119019500Y-136910688D01*
X119019500Y-137029311D01*
X119050199Y-137143882D01*
X119050201Y-137143887D01*
X119109508Y-137246609D01*
X119109509Y-137246610D01*
X119109511Y-137246613D01*
X119193387Y-137330489D01*
X119296114Y-137389799D01*
X119296115Y-137389799D01*
X119296117Y-137389800D01*
X119353402Y-137405149D01*
X119410688Y-137420499D01*
X119410689Y-137420500D01*
X119410691Y-137420500D01*
X119529311Y-137420500D01*
X119529311Y-137420499D01*
X119643886Y-137389799D01*
X119746613Y-137330489D01*
X119830489Y-137246613D01*
X119889799Y-137143886D01*
X119920499Y-137029311D01*
X119920500Y-137029311D01*
X119920500Y-136910689D01*
X119920499Y-136910688D01*
X119889800Y-136796117D01*
X119889798Y-136796112D01*
X119830491Y-136693390D01*
X119830490Y-136693389D01*
X119830489Y-136693387D01*
X119746613Y-136609511D01*
X119746610Y-136609509D01*
X119746609Y-136609508D01*
X119643887Y-136550201D01*
X119643882Y-136550199D01*
X119529311Y-136519500D01*
X119529309Y-136519500D01*
X119410691Y-136519500D01*
X119410689Y-136519500D01*
X119296117Y-136550199D01*
X119296112Y-136550201D01*
X119193390Y-136609508D01*
X119109508Y-136693390D01*
X119050201Y-136796112D01*
X119050199Y-136796117D01*
X119019500Y-136910688D01*
X102500500Y-136910688D01*
X102500500Y-135690688D01*
X119019500Y-135690688D01*
X119019500Y-135809311D01*
X119050199Y-135923882D01*
X119050201Y-135923887D01*
X119109508Y-136026609D01*
X119109509Y-136026610D01*
X119109511Y-136026613D01*
X119193387Y-136110489D01*
X119296114Y-136169799D01*
X119296115Y-136169799D01*
X119296117Y-136169800D01*
X119353402Y-136185149D01*
X119410688Y-136200499D01*
X119410689Y-136200500D01*
X119410691Y-136200500D01*
X119529311Y-136200500D01*
X119529311Y-136200499D01*
X119643886Y-136169799D01*
X119746613Y-136110489D01*
X119830489Y-136026613D01*
X119889799Y-135923886D01*
X119920499Y-135809311D01*
X119920500Y-135809311D01*
X119920500Y-135690689D01*
X119920499Y-135690688D01*
X119909596Y-135649999D01*
X119889799Y-135576114D01*
X119877015Y-135553971D01*
X119830491Y-135473390D01*
X119830490Y-135473389D01*
X119830489Y-135473387D01*
X119746613Y-135389511D01*
X119746610Y-135389509D01*
X119746609Y-135389508D01*
X119643887Y-135330201D01*
X119643882Y-135330199D01*
X119529311Y-135299500D01*
X119529309Y-135299500D01*
X119410691Y-135299500D01*
X119410689Y-135299500D01*
X119296117Y-135330199D01*
X119296112Y-135330201D01*
X119193390Y-135389508D01*
X119109508Y-135473390D01*
X119050201Y-135576112D01*
X119050199Y-135576117D01*
X119019500Y-135690688D01*
X102500500Y-135690688D01*
X102500500Y-134955252D01*
X129704500Y-134955252D01*
X129704500Y-136344748D01*
X129712255Y-136383736D01*
X129716133Y-136403232D01*
X129739300Y-136437903D01*
X129760448Y-136469552D01*
X129793826Y-136491855D01*
X129826767Y-136513866D01*
X129826768Y-136513866D01*
X129826769Y-136513867D01*
X129885252Y-136525500D01*
X129885254Y-136525500D01*
X131274746Y-136525500D01*
X131274748Y-136525500D01*
X131333231Y-136513867D01*
X131399552Y-136469552D01*
X131443867Y-136403231D01*
X131455500Y-136344748D01*
X131455500Y-135563771D01*
X131704500Y-135563771D01*
X131704500Y-135736228D01*
X131738143Y-135905367D01*
X131738146Y-135905378D01*
X131804140Y-136064702D01*
X131894877Y-136200500D01*
X131899955Y-136208099D01*
X132021901Y-136330045D01*
X132165295Y-136425858D01*
X132165296Y-136425858D01*
X132165297Y-136425859D01*
X132324621Y-136491853D01*
X132324626Y-136491855D01*
X132493771Y-136525500D01*
X132493772Y-136525500D01*
X132666228Y-136525500D01*
X132666229Y-136525500D01*
X132835374Y-136491855D01*
X132994705Y-136425858D01*
X133138099Y-136330045D01*
X133260045Y-136208099D01*
X133355858Y-136064705D01*
X133421855Y-135905374D01*
X133455500Y-135736229D01*
X133455500Y-135563771D01*
X133704500Y-135563771D01*
X133704500Y-135736228D01*
X133738143Y-135905367D01*
X133738146Y-135905378D01*
X133804140Y-136064702D01*
X133894877Y-136200500D01*
X133899955Y-136208099D01*
X134021901Y-136330045D01*
X134165295Y-136425858D01*
X134165296Y-136425858D01*
X134165297Y-136425859D01*
X134324621Y-136491853D01*
X134324626Y-136491855D01*
X134493771Y-136525500D01*
X134493772Y-136525500D01*
X134666228Y-136525500D01*
X134666229Y-136525500D01*
X134835374Y-136491855D01*
X134994705Y-136425858D01*
X135138099Y-136330045D01*
X135260045Y-136208099D01*
X135355858Y-136064705D01*
X135421855Y-135905374D01*
X135455500Y-135736229D01*
X135455500Y-135563771D01*
X135453551Y-135553971D01*
X135605000Y-135553971D01*
X135605000Y-135746028D01*
X135642466Y-135934390D01*
X135642468Y-135934397D01*
X135715966Y-136111836D01*
X135792094Y-136225770D01*
X136209532Y-135808332D01*
X136259920Y-135895606D01*
X136334394Y-135970080D01*
X136421665Y-136020465D01*
X136004227Y-136437903D01*
X136118167Y-136514035D01*
X136295602Y-136587531D01*
X136295609Y-136587533D01*
X136483972Y-136625000D01*
X136676028Y-136625000D01*
X136864390Y-136587533D01*
X136864397Y-136587531D01*
X137041835Y-136514034D01*
X137155771Y-136437904D01*
X137155771Y-136437903D01*
X136738334Y-136020466D01*
X136825606Y-135970080D01*
X136900080Y-135895606D01*
X136950466Y-135808334D01*
X137367903Y-136225771D01*
X137367904Y-136225771D01*
X137444034Y-136111835D01*
X137517531Y-135934397D01*
X137517533Y-135934390D01*
X137555000Y-135746028D01*
X137555000Y-135553971D01*
X137517533Y-135365609D01*
X137517531Y-135365602D01*
X137444035Y-135188167D01*
X137367903Y-135074227D01*
X136950465Y-135491665D01*
X136900080Y-135404394D01*
X136825606Y-135329920D01*
X136738332Y-135279533D01*
X137155771Y-134862094D01*
X137041836Y-134785966D01*
X136864397Y-134712468D01*
X136864390Y-134712466D01*
X136676028Y-134675000D01*
X136483972Y-134675000D01*
X136295609Y-134712466D01*
X136295602Y-134712468D01*
X136118163Y-134785966D01*
X136004227Y-134862094D01*
X136421666Y-135279533D01*
X136334394Y-135329920D01*
X136259920Y-135404394D01*
X136209533Y-135491666D01*
X135792094Y-135074227D01*
X135715966Y-135188163D01*
X135642468Y-135365602D01*
X135642466Y-135365609D01*
X135605000Y-135553971D01*
X135453551Y-135553971D01*
X135421855Y-135394626D01*
X135395169Y-135330201D01*
X135355859Y-135235297D01*
X135260047Y-135091904D01*
X135260045Y-135091901D01*
X135138099Y-134969955D01*
X135138095Y-134969952D01*
X135138093Y-134969950D01*
X135110031Y-134951200D01*
X134994702Y-134874140D01*
X134835378Y-134808146D01*
X134835367Y-134808143D01*
X134707942Y-134782797D01*
X134666229Y-134774500D01*
X134493771Y-134774500D01*
X134460309Y-134781155D01*
X134324632Y-134808143D01*
X134324621Y-134808146D01*
X134165297Y-134874140D01*
X134021904Y-134969952D01*
X133899952Y-135091904D01*
X133804140Y-135235297D01*
X133738146Y-135394621D01*
X133738143Y-135394632D01*
X133704500Y-135563771D01*
X133455500Y-135563771D01*
X133421855Y-135394626D01*
X133395169Y-135330201D01*
X133355859Y-135235297D01*
X133260047Y-135091904D01*
X133260045Y-135091901D01*
X133138099Y-134969955D01*
X133116094Y-134955252D01*
X132994702Y-134874140D01*
X132835378Y-134808146D01*
X132835367Y-134808143D01*
X132707942Y-134782797D01*
X132666229Y-134774500D01*
X132493771Y-134774500D01*
X132460309Y-134781155D01*
X132324632Y-134808143D01*
X132324621Y-134808146D01*
X132165297Y-134874140D01*
X132021904Y-134969952D01*
X131899952Y-135091904D01*
X131804140Y-135235297D01*
X131738146Y-135394621D01*
X131738143Y-135394632D01*
X131704500Y-135563771D01*
X131455500Y-135563771D01*
X131455500Y-134955252D01*
X131443867Y-134896769D01*
X131439210Y-134889800D01*
X131428747Y-134874140D01*
X131399552Y-134830448D01*
X131366171Y-134808143D01*
X131333232Y-134786133D01*
X131333233Y-134786133D01*
X131303989Y-134780316D01*
X131274748Y-134774500D01*
X129885252Y-134774500D01*
X129856010Y-134780316D01*
X129826767Y-134786133D01*
X129760449Y-134830447D01*
X129760447Y-134830449D01*
X129716133Y-134896767D01*
X129708377Y-134935757D01*
X129704500Y-134955252D01*
X102500500Y-134955252D01*
X102500500Y-134410688D01*
X119029500Y-134410688D01*
X119029500Y-134529311D01*
X119060199Y-134643882D01*
X119060201Y-134643887D01*
X119119508Y-134746609D01*
X119119509Y-134746610D01*
X119119511Y-134746613D01*
X119203387Y-134830489D01*
X119203389Y-134830490D01*
X119203390Y-134830491D01*
X119302187Y-134887532D01*
X119306114Y-134889799D01*
X119306115Y-134889799D01*
X119306117Y-134889800D01*
X119332126Y-134896769D01*
X119420688Y-134920499D01*
X119420689Y-134920500D01*
X119420691Y-134920500D01*
X119539311Y-134920500D01*
X119539311Y-134920499D01*
X119653886Y-134889799D01*
X119756613Y-134830489D01*
X119840489Y-134746613D01*
X119899799Y-134643886D01*
X119930499Y-134529311D01*
X119930500Y-134529311D01*
X119930500Y-134410689D01*
X119930499Y-134410688D01*
X119899800Y-134296117D01*
X119899798Y-134296112D01*
X119840491Y-134193390D01*
X119840490Y-134193389D01*
X119840489Y-134193387D01*
X119756613Y-134109511D01*
X119756610Y-134109509D01*
X119756609Y-134109508D01*
X119653887Y-134050201D01*
X119653882Y-134050199D01*
X119539311Y-134019500D01*
X119539309Y-134019500D01*
X119420691Y-134019500D01*
X119420689Y-134019500D01*
X119306117Y-134050199D01*
X119306112Y-134050201D01*
X119203390Y-134109508D01*
X119119508Y-134193390D01*
X119060201Y-134296112D01*
X119060199Y-134296117D01*
X119029500Y-134410688D01*
X102500500Y-134410688D01*
X102500500Y-131843971D01*
X134905000Y-131843971D01*
X134905000Y-132036028D01*
X134942466Y-132224390D01*
X134942468Y-132224397D01*
X135015966Y-132401836D01*
X135092094Y-132515770D01*
X135509532Y-132098332D01*
X135559920Y-132185606D01*
X135634394Y-132260080D01*
X135721665Y-132310465D01*
X135304227Y-132727903D01*
X135418167Y-132804035D01*
X135595602Y-132877531D01*
X135595609Y-132877533D01*
X135783972Y-132915000D01*
X135976028Y-132915000D01*
X136164390Y-132877533D01*
X136164397Y-132877531D01*
X136341835Y-132804034D01*
X136455771Y-132727904D01*
X136455771Y-132727903D01*
X136038334Y-132310466D01*
X136125606Y-132260080D01*
X136200080Y-132185606D01*
X136250466Y-132098334D01*
X136667903Y-132515771D01*
X136667904Y-132515771D01*
X136744034Y-132401835D01*
X136817531Y-132224397D01*
X136817533Y-132224390D01*
X136855000Y-132036028D01*
X136855000Y-131853771D01*
X137004500Y-131853771D01*
X137004500Y-132026228D01*
X137038143Y-132195367D01*
X137038146Y-132195378D01*
X137104140Y-132354702D01*
X137104141Y-132354704D01*
X137104142Y-132354705D01*
X137199955Y-132498099D01*
X137321901Y-132620045D01*
X137465295Y-132715858D01*
X137465296Y-132715858D01*
X137465297Y-132715859D01*
X137624621Y-132781853D01*
X137624626Y-132781855D01*
X137793771Y-132815500D01*
X137793772Y-132815500D01*
X137966228Y-132815500D01*
X137966229Y-132815500D01*
X138135374Y-132781855D01*
X138294705Y-132715858D01*
X138438099Y-132620045D01*
X138560045Y-132498099D01*
X138655858Y-132354705D01*
X138721855Y-132195374D01*
X138755500Y-132026229D01*
X138755500Y-131853771D01*
X139004500Y-131853771D01*
X139004500Y-132026228D01*
X139038143Y-132195367D01*
X139038146Y-132195378D01*
X139104140Y-132354702D01*
X139104141Y-132354704D01*
X139104142Y-132354705D01*
X139199955Y-132498099D01*
X139321901Y-132620045D01*
X139465295Y-132715858D01*
X139465296Y-132715858D01*
X139465297Y-132715859D01*
X139624621Y-132781853D01*
X139624626Y-132781855D01*
X139793771Y-132815500D01*
X139793772Y-132815500D01*
X139966228Y-132815500D01*
X139966229Y-132815500D01*
X140135374Y-132781855D01*
X140294705Y-132715858D01*
X140438099Y-132620045D01*
X140560045Y-132498099D01*
X140655858Y-132354705D01*
X140721855Y-132195374D01*
X140755500Y-132026229D01*
X140755500Y-131853771D01*
X141004500Y-131853771D01*
X141004500Y-132026228D01*
X141038143Y-132195367D01*
X141038146Y-132195378D01*
X141104140Y-132354702D01*
X141104141Y-132354704D01*
X141104142Y-132354705D01*
X141199955Y-132498099D01*
X141321901Y-132620045D01*
X141465295Y-132715858D01*
X141465296Y-132715858D01*
X141465297Y-132715859D01*
X141624621Y-132781853D01*
X141624626Y-132781855D01*
X141793771Y-132815500D01*
X141793772Y-132815500D01*
X141966228Y-132815500D01*
X141966229Y-132815500D01*
X142135374Y-132781855D01*
X142294705Y-132715858D01*
X142438099Y-132620045D01*
X142560045Y-132498099D01*
X142655858Y-132354705D01*
X142721855Y-132195374D01*
X142755500Y-132026229D01*
X142755500Y-131853771D01*
X143004500Y-131853771D01*
X143004500Y-132026228D01*
X143038143Y-132195367D01*
X143038146Y-132195378D01*
X143104140Y-132354702D01*
X143104141Y-132354704D01*
X143104142Y-132354705D01*
X143199955Y-132498099D01*
X143321901Y-132620045D01*
X143465295Y-132715858D01*
X143465296Y-132715858D01*
X143465297Y-132715859D01*
X143624621Y-132781853D01*
X143624626Y-132781855D01*
X143793771Y-132815500D01*
X143793772Y-132815500D01*
X143966228Y-132815500D01*
X143966229Y-132815500D01*
X144135374Y-132781855D01*
X144294705Y-132715858D01*
X144438099Y-132620045D01*
X144560045Y-132498099D01*
X144655858Y-132354705D01*
X144721855Y-132195374D01*
X144755500Y-132026229D01*
X144755500Y-131853771D01*
X144721855Y-131684626D01*
X144655858Y-131525295D01*
X144560045Y-131381901D01*
X144438099Y-131259955D01*
X144416095Y-131245253D01*
X145004500Y-131245253D01*
X145004500Y-132634746D01*
X145016133Y-132693232D01*
X145039300Y-132727903D01*
X145060448Y-132759552D01*
X145093826Y-132781855D01*
X145126767Y-132803866D01*
X145126768Y-132803866D01*
X145126769Y-132803867D01*
X145185252Y-132815500D01*
X145185254Y-132815500D01*
X146574746Y-132815500D01*
X146574748Y-132815500D01*
X146633231Y-132803867D01*
X146699552Y-132759552D01*
X146743867Y-132693231D01*
X146755500Y-132634748D01*
X146755500Y-131245252D01*
X146743867Y-131186769D01*
X146699552Y-131120448D01*
X146653685Y-131089800D01*
X146633232Y-131076133D01*
X146633233Y-131076133D01*
X146603989Y-131070316D01*
X146574748Y-131064500D01*
X145185252Y-131064500D01*
X145156010Y-131070316D01*
X145126767Y-131076133D01*
X145060449Y-131120447D01*
X145060447Y-131120449D01*
X145016133Y-131186767D01*
X145004500Y-131245253D01*
X144416095Y-131245253D01*
X144416094Y-131245252D01*
X144294702Y-131164140D01*
X144135378Y-131098146D01*
X144135367Y-131098143D01*
X144007942Y-131072797D01*
X143966229Y-131064500D01*
X143793771Y-131064500D01*
X143760309Y-131071155D01*
X143624632Y-131098143D01*
X143624621Y-131098146D01*
X143465297Y-131164140D01*
X143321904Y-131259952D01*
X143199952Y-131381904D01*
X143104140Y-131525297D01*
X143038146Y-131684621D01*
X143038143Y-131684632D01*
X143004500Y-131853771D01*
X142755500Y-131853771D01*
X142721855Y-131684626D01*
X142655858Y-131525295D01*
X142560045Y-131381901D01*
X142438099Y-131259955D01*
X142416094Y-131245252D01*
X142294702Y-131164140D01*
X142135378Y-131098146D01*
X142135367Y-131098143D01*
X142007942Y-131072797D01*
X141966229Y-131064500D01*
X141793771Y-131064500D01*
X141760309Y-131071155D01*
X141624632Y-131098143D01*
X141624621Y-131098146D01*
X141465297Y-131164140D01*
X141321904Y-131259952D01*
X141199952Y-131381904D01*
X141104140Y-131525297D01*
X141038146Y-131684621D01*
X141038143Y-131684632D01*
X141004500Y-131853771D01*
X140755500Y-131853771D01*
X140721855Y-131684626D01*
X140655858Y-131525295D01*
X140560045Y-131381901D01*
X140438099Y-131259955D01*
X140416094Y-131245252D01*
X140294702Y-131164140D01*
X140135378Y-131098146D01*
X140135367Y-131098143D01*
X140007942Y-131072797D01*
X139966229Y-131064500D01*
X139793771Y-131064500D01*
X139760309Y-131071155D01*
X139624632Y-131098143D01*
X139624621Y-131098146D01*
X139465297Y-131164140D01*
X139321904Y-131259952D01*
X139199952Y-131381904D01*
X139104140Y-131525297D01*
X139038146Y-131684621D01*
X139038143Y-131684632D01*
X139004500Y-131853771D01*
X138755500Y-131853771D01*
X138721855Y-131684626D01*
X138655858Y-131525295D01*
X138560045Y-131381901D01*
X138438099Y-131259955D01*
X138416094Y-131245252D01*
X138294702Y-131164140D01*
X138135378Y-131098146D01*
X138135367Y-131098143D01*
X138007942Y-131072797D01*
X137966229Y-131064500D01*
X137793771Y-131064500D01*
X137760309Y-131071155D01*
X137624632Y-131098143D01*
X137624621Y-131098146D01*
X137465297Y-131164140D01*
X137321904Y-131259952D01*
X137199952Y-131381904D01*
X137104140Y-131525297D01*
X137038146Y-131684621D01*
X137038143Y-131684632D01*
X137004500Y-131853771D01*
X136855000Y-131853771D01*
X136855000Y-131843971D01*
X136817533Y-131655609D01*
X136817531Y-131655602D01*
X136744035Y-131478167D01*
X136667903Y-131364227D01*
X136250465Y-131781665D01*
X136200080Y-131694394D01*
X136125606Y-131619920D01*
X136038332Y-131569533D01*
X136455771Y-131152094D01*
X136341836Y-131075966D01*
X136164397Y-131002468D01*
X136164390Y-131002466D01*
X135976028Y-130965000D01*
X135783972Y-130965000D01*
X135595609Y-131002466D01*
X135595602Y-131002468D01*
X135418163Y-131075966D01*
X135304227Y-131152094D01*
X135721666Y-131569533D01*
X135634394Y-131619920D01*
X135559920Y-131694394D01*
X135509533Y-131781666D01*
X135092094Y-131364227D01*
X135015966Y-131478163D01*
X134942468Y-131655602D01*
X134942466Y-131655609D01*
X134905000Y-131843971D01*
X102500500Y-131843971D01*
X102500500Y-130610688D01*
X119939500Y-130610688D01*
X119939500Y-130729311D01*
X119970199Y-130843882D01*
X119970201Y-130843887D01*
X120029508Y-130946609D01*
X120029509Y-130946610D01*
X120029511Y-130946613D01*
X120113387Y-131030489D01*
X120113389Y-131030490D01*
X120113390Y-131030491D01*
X120192444Y-131076133D01*
X120216114Y-131089799D01*
X120216115Y-131089799D01*
X120216117Y-131089800D01*
X120251613Y-131099311D01*
X120330688Y-131120499D01*
X120330689Y-131120500D01*
X120330691Y-131120500D01*
X120449311Y-131120500D01*
X120449311Y-131120499D01*
X120563886Y-131089799D01*
X120666613Y-131030489D01*
X120750489Y-130946613D01*
X120809799Y-130843886D01*
X120840499Y-130729311D01*
X120840500Y-130729311D01*
X120840500Y-130610689D01*
X120840499Y-130610688D01*
X120809800Y-130496117D01*
X120809798Y-130496112D01*
X120750491Y-130393390D01*
X120750490Y-130393389D01*
X120750489Y-130393387D01*
X120687790Y-130330688D01*
X121839500Y-130330688D01*
X121839500Y-130449311D01*
X121870199Y-130563882D01*
X121870201Y-130563887D01*
X121929508Y-130666609D01*
X121929509Y-130666610D01*
X121929511Y-130666613D01*
X122013387Y-130750489D01*
X122013389Y-130750490D01*
X122013390Y-130750491D01*
X122035732Y-130763390D01*
X122116114Y-130809799D01*
X122116115Y-130809799D01*
X122116117Y-130809800D01*
X122173402Y-130825149D01*
X122230688Y-130840499D01*
X122230689Y-130840500D01*
X122230691Y-130840500D01*
X122349311Y-130840500D01*
X122349311Y-130840499D01*
X122463886Y-130809799D01*
X122566613Y-130750489D01*
X122650489Y-130666613D01*
X122709799Y-130563886D01*
X122740499Y-130449311D01*
X122740500Y-130449311D01*
X122740500Y-130330689D01*
X122740499Y-130330688D01*
X122709800Y-130216117D01*
X122709798Y-130216112D01*
X122650491Y-130113390D01*
X122650490Y-130113389D01*
X122650489Y-130113387D01*
X122566613Y-130029511D01*
X122566610Y-130029509D01*
X122566609Y-130029508D01*
X122463887Y-129970201D01*
X122463882Y-129970199D01*
X122349311Y-129939500D01*
X122349309Y-129939500D01*
X122230691Y-129939500D01*
X122230689Y-129939500D01*
X122116117Y-129970199D01*
X122116112Y-129970201D01*
X122013390Y-130029508D01*
X121929508Y-130113390D01*
X121870201Y-130216112D01*
X121870199Y-130216117D01*
X121839500Y-130330688D01*
X120687790Y-130330688D01*
X120666613Y-130309511D01*
X120666610Y-130309509D01*
X120666609Y-130309508D01*
X120563887Y-130250201D01*
X120563882Y-130250199D01*
X120449311Y-130219500D01*
X120449309Y-130219500D01*
X120330691Y-130219500D01*
X120330689Y-130219500D01*
X120216117Y-130250199D01*
X120216112Y-130250201D01*
X120113390Y-130309508D01*
X120029508Y-130393390D01*
X119970201Y-130496112D01*
X119970199Y-130496117D01*
X119939500Y-130610688D01*
X102500500Y-130610688D01*
X102500500Y-129455688D01*
X122794500Y-129455688D01*
X122794500Y-129574311D01*
X122825199Y-129688882D01*
X122825201Y-129688887D01*
X122884508Y-129791609D01*
X122884509Y-129791610D01*
X122884511Y-129791613D01*
X122968387Y-129875489D01*
X122968389Y-129875490D01*
X122968390Y-129875491D01*
X123015113Y-129902467D01*
X123049592Y-129947401D01*
X123049592Y-129985705D01*
X123029500Y-130060691D01*
X123029500Y-130179311D01*
X123060199Y-130293882D01*
X123060201Y-130293887D01*
X123119508Y-130396609D01*
X123119509Y-130396610D01*
X123119511Y-130396613D01*
X123203387Y-130480489D01*
X123203389Y-130480490D01*
X123203390Y-130480491D01*
X123230450Y-130496114D01*
X123306114Y-130539799D01*
X123384989Y-130560933D01*
X123429921Y-130595411D01*
X123437314Y-130651563D01*
X123418161Y-130684737D01*
X123339508Y-130763390D01*
X123280201Y-130866112D01*
X123280199Y-130866117D01*
X123249500Y-130980688D01*
X123249500Y-131099311D01*
X123280199Y-131213882D01*
X123280201Y-131213887D01*
X123339508Y-131316609D01*
X123339509Y-131316610D01*
X123339511Y-131316613D01*
X123423387Y-131400489D01*
X123526114Y-131459799D01*
X123526115Y-131459799D01*
X123526117Y-131459800D01*
X123583402Y-131475149D01*
X123640688Y-131490499D01*
X123640689Y-131490500D01*
X123640691Y-131490500D01*
X123759311Y-131490500D01*
X123759311Y-131490499D01*
X123873886Y-131459799D01*
X123976613Y-131400489D01*
X124060489Y-131316613D01*
X124119799Y-131213886D01*
X124150499Y-131099311D01*
X124150500Y-131099311D01*
X124150500Y-130980689D01*
X124150499Y-130980688D01*
X124146295Y-130965000D01*
X124119799Y-130866114D01*
X124060489Y-130763387D01*
X123976613Y-130679511D01*
X123976610Y-130679509D01*
X123976609Y-130679508D01*
X123873887Y-130620201D01*
X123873882Y-130620199D01*
X123795011Y-130599066D01*
X123750078Y-130564588D01*
X123742686Y-130508435D01*
X123761835Y-130475266D01*
X123840489Y-130396613D01*
X123899799Y-130293886D01*
X123930499Y-130179311D01*
X123930500Y-130179311D01*
X123930500Y-130060689D01*
X123930499Y-130060688D01*
X123899800Y-129946117D01*
X123899798Y-129946112D01*
X123840491Y-129843390D01*
X123840490Y-129843389D01*
X123840489Y-129843387D01*
X123756613Y-129759511D01*
X123744966Y-129752786D01*
X123709884Y-129732531D01*
X123675407Y-129687597D01*
X123675408Y-129649293D01*
X123676378Y-129645669D01*
X123695499Y-129574311D01*
X123695500Y-129574311D01*
X123695500Y-129455689D01*
X123695499Y-129455688D01*
X123691426Y-129440489D01*
X123664799Y-129341114D01*
X123614438Y-129253887D01*
X123605491Y-129238390D01*
X123605490Y-129238389D01*
X123605489Y-129238387D01*
X123521613Y-129154511D01*
X123521610Y-129154509D01*
X123521609Y-129154508D01*
X123418887Y-129095201D01*
X123418882Y-129095199D01*
X123389472Y-129087319D01*
X123304311Y-129064500D01*
X123304309Y-129064500D01*
X123185691Y-129064500D01*
X123185689Y-129064500D01*
X123071117Y-129095199D01*
X123071112Y-129095201D01*
X122968390Y-129154508D01*
X122884508Y-129238390D01*
X122825201Y-129341112D01*
X122825199Y-129341117D01*
X122794500Y-129455688D01*
X102500500Y-129455688D01*
X102500500Y-129020688D01*
X130279500Y-129020688D01*
X130279500Y-129139311D01*
X130310199Y-129253882D01*
X130310201Y-129253887D01*
X130369508Y-129356609D01*
X130369509Y-129356610D01*
X130369511Y-129356613D01*
X130453387Y-129440489D01*
X130453389Y-129440490D01*
X130453390Y-129440491D01*
X130556112Y-129499798D01*
X130556114Y-129499799D01*
X130556115Y-129499799D01*
X130556117Y-129499800D01*
X130654704Y-129526217D01*
X130699637Y-129560695D01*
X130707029Y-129616848D01*
X130687877Y-129650020D01*
X130639511Y-129698386D01*
X130639509Y-129698389D01*
X130580201Y-129801112D01*
X130580199Y-129801117D01*
X130549500Y-129915688D01*
X130549500Y-130034311D01*
X130580199Y-130148882D01*
X130580201Y-130148887D01*
X130639508Y-130251609D01*
X130639509Y-130251610D01*
X130639511Y-130251613D01*
X130723387Y-130335489D01*
X130723389Y-130335490D01*
X130723390Y-130335491D01*
X130826112Y-130394798D01*
X130826114Y-130394799D01*
X130826115Y-130394799D01*
X130826117Y-130394800D01*
X130883402Y-130410149D01*
X130940688Y-130425499D01*
X130940689Y-130425500D01*
X130940691Y-130425500D01*
X131059311Y-130425500D01*
X131059311Y-130425499D01*
X131173886Y-130394799D01*
X131276613Y-130335489D01*
X131360489Y-130251613D01*
X131419799Y-130148886D01*
X131450499Y-130034311D01*
X131450500Y-130034311D01*
X131450500Y-129915689D01*
X131450499Y-129915688D01*
X131446956Y-129902467D01*
X131419799Y-129801114D01*
X131360489Y-129698387D01*
X131276613Y-129614511D01*
X131276610Y-129614509D01*
X131276609Y-129614508D01*
X131173887Y-129555201D01*
X131173882Y-129555199D01*
X131075295Y-129528782D01*
X131030362Y-129494303D01*
X131022970Y-129438151D01*
X131042121Y-129404980D01*
X131090489Y-129356613D01*
X131149799Y-129253886D01*
X131180499Y-129139311D01*
X131180500Y-129139311D01*
X131180500Y-129020689D01*
X131180499Y-129020688D01*
X131149800Y-128906117D01*
X131149798Y-128906112D01*
X131090491Y-128803390D01*
X131090490Y-128803389D01*
X131090489Y-128803387D01*
X131006613Y-128719511D01*
X131006610Y-128719509D01*
X131006609Y-128719508D01*
X130903887Y-128660201D01*
X130903882Y-128660199D01*
X130789311Y-128629500D01*
X130789309Y-128629500D01*
X130670691Y-128629500D01*
X130670689Y-128629500D01*
X130556117Y-128660199D01*
X130556112Y-128660201D01*
X130453390Y-128719508D01*
X130369508Y-128803390D01*
X130310201Y-128906112D01*
X130310199Y-128906117D01*
X130279500Y-129020688D01*
X102500500Y-129020688D01*
X102500500Y-128060688D01*
X130789500Y-128060688D01*
X130789500Y-128179311D01*
X130820199Y-128293882D01*
X130820201Y-128293887D01*
X130879508Y-128396609D01*
X130879509Y-128396610D01*
X130879511Y-128396613D01*
X130963387Y-128480489D01*
X131066114Y-128539799D01*
X131066115Y-128539799D01*
X131066117Y-128539800D01*
X131123402Y-128555149D01*
X131180688Y-128570499D01*
X131180689Y-128570500D01*
X131180691Y-128570500D01*
X131299311Y-128570500D01*
X131299311Y-128570499D01*
X131413886Y-128539799D01*
X131516613Y-128480489D01*
X131600489Y-128396613D01*
X131659799Y-128293886D01*
X131690499Y-128179311D01*
X131690500Y-128179311D01*
X131690500Y-128060689D01*
X131690499Y-128060688D01*
X131659800Y-127946117D01*
X131659798Y-127946112D01*
X131600491Y-127843390D01*
X131600490Y-127843389D01*
X131600489Y-127843387D01*
X131516613Y-127759511D01*
X131516610Y-127759509D01*
X131516609Y-127759508D01*
X131413887Y-127700201D01*
X131413882Y-127700199D01*
X131299311Y-127669500D01*
X131299309Y-127669500D01*
X131180691Y-127669500D01*
X131180689Y-127669500D01*
X131066117Y-127700199D01*
X131066112Y-127700201D01*
X130963390Y-127759508D01*
X130879508Y-127843390D01*
X130820201Y-127946112D01*
X130820199Y-127946117D01*
X130789500Y-128060688D01*
X102500500Y-128060688D01*
X102500500Y-127313188D01*
X118052000Y-127313188D01*
X118052000Y-127431811D01*
X118082699Y-127546382D01*
X118082701Y-127546387D01*
X118142008Y-127649109D01*
X118142009Y-127649110D01*
X118142011Y-127649113D01*
X118225887Y-127732989D01*
X118225889Y-127732990D01*
X118225890Y-127732991D01*
X118271824Y-127759511D01*
X118328614Y-127792299D01*
X118328615Y-127792299D01*
X118328617Y-127792300D01*
X118385902Y-127807649D01*
X118443188Y-127822999D01*
X118443189Y-127823000D01*
X118443191Y-127823000D01*
X118561811Y-127823000D01*
X118561811Y-127822999D01*
X118676386Y-127792299D01*
X118779113Y-127732989D01*
X118862989Y-127649113D01*
X118922299Y-127546386D01*
X118945946Y-127458133D01*
X118980424Y-127413201D01*
X119036576Y-127405808D01*
X119054424Y-127413201D01*
X119072932Y-127423887D01*
X119161114Y-127474799D01*
X119161115Y-127474799D01*
X119161117Y-127474800D01*
X119204868Y-127486523D01*
X119275688Y-127505499D01*
X119275689Y-127505500D01*
X119275691Y-127505500D01*
X119394311Y-127505500D01*
X119394311Y-127505499D01*
X119508886Y-127474799D01*
X119611613Y-127415489D01*
X119695489Y-127331613D01*
X119754799Y-127228886D01*
X119785499Y-127114311D01*
X119785500Y-127114311D01*
X119785500Y-126995689D01*
X119785499Y-126995688D01*
X119754800Y-126881117D01*
X119754798Y-126881112D01*
X119695491Y-126778390D01*
X119695490Y-126778389D01*
X119695489Y-126778387D01*
X119611613Y-126694511D01*
X119611610Y-126694509D01*
X119611609Y-126694508D01*
X119508887Y-126635201D01*
X119508882Y-126635199D01*
X119394311Y-126604500D01*
X119394309Y-126604500D01*
X119275691Y-126604500D01*
X119275689Y-126604500D01*
X119161117Y-126635199D01*
X119161112Y-126635201D01*
X119058390Y-126694508D01*
X118974508Y-126778390D01*
X118915201Y-126881112D01*
X118915199Y-126881117D01*
X118891553Y-126969365D01*
X118857074Y-127014298D01*
X118800922Y-127021690D01*
X118783075Y-127014298D01*
X118676387Y-126952701D01*
X118676382Y-126952699D01*
X118561811Y-126922000D01*
X118561809Y-126922000D01*
X118443191Y-126922000D01*
X118443189Y-126922000D01*
X118328617Y-126952699D01*
X118328612Y-126952701D01*
X118225890Y-127012008D01*
X118142008Y-127095890D01*
X118082701Y-127198612D01*
X118082699Y-127198617D01*
X118052000Y-127313188D01*
X102500500Y-127313188D01*
X102500500Y-125579688D01*
X106710500Y-125579688D01*
X106710500Y-125698311D01*
X106741199Y-125812882D01*
X106741201Y-125812887D01*
X106800508Y-125915609D01*
X106800509Y-125915610D01*
X106800511Y-125915613D01*
X106884387Y-125999489D01*
X106987114Y-126058799D01*
X106987115Y-126058799D01*
X106987117Y-126058800D01*
X107044402Y-126074149D01*
X107101688Y-126089499D01*
X107101689Y-126089500D01*
X107101691Y-126089500D01*
X107220311Y-126089500D01*
X107220311Y-126089499D01*
X107334886Y-126058799D01*
X107437613Y-125999489D01*
X107521489Y-125915613D01*
X107580799Y-125812886D01*
X107611499Y-125698311D01*
X107611500Y-125698311D01*
X107611500Y-125579689D01*
X107611499Y-125579688D01*
X107580800Y-125465117D01*
X107580798Y-125465112D01*
X107521491Y-125362390D01*
X107521490Y-125362389D01*
X107521489Y-125362387D01*
X107437613Y-125278511D01*
X107437610Y-125278509D01*
X107437609Y-125278508D01*
X107334887Y-125219201D01*
X107334882Y-125219199D01*
X107220311Y-125188500D01*
X107220309Y-125188500D01*
X107101691Y-125188500D01*
X107101689Y-125188500D01*
X106987117Y-125219199D01*
X106987112Y-125219201D01*
X106884390Y-125278508D01*
X106800508Y-125362390D01*
X106741201Y-125465112D01*
X106741199Y-125465117D01*
X106710500Y-125579688D01*
X102500500Y-125579688D01*
X102500500Y-125015688D01*
X130599500Y-125015688D01*
X130599500Y-125134311D01*
X130630199Y-125248882D01*
X130630201Y-125248887D01*
X130689508Y-125351609D01*
X130689509Y-125351610D01*
X130689511Y-125351613D01*
X130773387Y-125435489D01*
X130773389Y-125435490D01*
X130773390Y-125435491D01*
X130876112Y-125494798D01*
X130876114Y-125494799D01*
X130876115Y-125494799D01*
X130876117Y-125494800D01*
X130894774Y-125499799D01*
X130990688Y-125525499D01*
X130990689Y-125525500D01*
X130990691Y-125525500D01*
X131109311Y-125525500D01*
X131109311Y-125525499D01*
X131223886Y-125494799D01*
X131326613Y-125435489D01*
X131410489Y-125351613D01*
X131469799Y-125248886D01*
X131500499Y-125134311D01*
X131500500Y-125134311D01*
X131500500Y-125015689D01*
X131500499Y-125015688D01*
X131469800Y-124901117D01*
X131469798Y-124901112D01*
X131410491Y-124798390D01*
X131410490Y-124798389D01*
X131410489Y-124798387D01*
X131390100Y-124777998D01*
X131368427Y-124725674D01*
X131390101Y-124673348D01*
X131405423Y-124661590D01*
X131476613Y-124620489D01*
X131560489Y-124536613D01*
X131619799Y-124433886D01*
X131650499Y-124319311D01*
X131650500Y-124319311D01*
X131650500Y-124200689D01*
X131650499Y-124200688D01*
X131619800Y-124086117D01*
X131619798Y-124086112D01*
X131560491Y-123983390D01*
X131560490Y-123983389D01*
X131560489Y-123983387D01*
X131476613Y-123899511D01*
X131476610Y-123899509D01*
X131476609Y-123899508D01*
X131373887Y-123840201D01*
X131373882Y-123840199D01*
X131259311Y-123809500D01*
X131259309Y-123809500D01*
X131140691Y-123809500D01*
X131140689Y-123809500D01*
X131026117Y-123840199D01*
X131026112Y-123840201D01*
X130923390Y-123899508D01*
X130839508Y-123983390D01*
X130780201Y-124086112D01*
X130780199Y-124086117D01*
X130749500Y-124200688D01*
X130749500Y-124319311D01*
X130780199Y-124433882D01*
X130780201Y-124433887D01*
X130839508Y-124536609D01*
X130839509Y-124536610D01*
X130839511Y-124536613D01*
X130859898Y-124557000D01*
X130881572Y-124609325D01*
X130859898Y-124661651D01*
X130844573Y-124673411D01*
X130773389Y-124714509D01*
X130689508Y-124798390D01*
X130630201Y-124901112D01*
X130630199Y-124901117D01*
X130599500Y-125015688D01*
X102500500Y-125015688D01*
X102500500Y-124385688D01*
X106579500Y-124385688D01*
X106579500Y-124504311D01*
X106610199Y-124618882D01*
X106610201Y-124618887D01*
X106669508Y-124721609D01*
X106669509Y-124721610D01*
X106669511Y-124721613D01*
X106753387Y-124805489D01*
X106856114Y-124864799D01*
X106856115Y-124864799D01*
X106856117Y-124864800D01*
X106913402Y-124880149D01*
X106970688Y-124895499D01*
X106970689Y-124895500D01*
X106970691Y-124895500D01*
X107089311Y-124895500D01*
X107089311Y-124895499D01*
X107203886Y-124864799D01*
X107306613Y-124805489D01*
X107390489Y-124721613D01*
X107449799Y-124618886D01*
X107480499Y-124504311D01*
X107480500Y-124504311D01*
X107480500Y-124385689D01*
X107480499Y-124385688D01*
X107449800Y-124271117D01*
X107449798Y-124271112D01*
X107390491Y-124168390D01*
X107390490Y-124168389D01*
X107390489Y-124168387D01*
X107306613Y-124084511D01*
X107306610Y-124084509D01*
X107306609Y-124084508D01*
X107203887Y-124025201D01*
X107203882Y-124025199D01*
X107089311Y-123994500D01*
X107089309Y-123994500D01*
X106970691Y-123994500D01*
X106970689Y-123994500D01*
X106856117Y-124025199D01*
X106856112Y-124025201D01*
X106753390Y-124084508D01*
X106669508Y-124168390D01*
X106610201Y-124271112D01*
X106610199Y-124271117D01*
X106579500Y-124385688D01*
X102500500Y-124385688D01*
X102500500Y-123730688D01*
X111019500Y-123730688D01*
X111019500Y-123849311D01*
X111050199Y-123963882D01*
X111050201Y-123963887D01*
X111109508Y-124066609D01*
X111109509Y-124066610D01*
X111109511Y-124066613D01*
X111193387Y-124150489D01*
X111193389Y-124150490D01*
X111193390Y-124150491D01*
X111296112Y-124209798D01*
X111296114Y-124209799D01*
X111296115Y-124209799D01*
X111296117Y-124209800D01*
X111353402Y-124225149D01*
X111410688Y-124240499D01*
X111410689Y-124240500D01*
X111410691Y-124240500D01*
X111529311Y-124240500D01*
X111529311Y-124240499D01*
X111643886Y-124209799D01*
X111746613Y-124150489D01*
X111830489Y-124066613D01*
X111889799Y-123963886D01*
X111920499Y-123849311D01*
X111920500Y-123849311D01*
X111920500Y-123730689D01*
X111920499Y-123730688D01*
X111889800Y-123616117D01*
X111889798Y-123616112D01*
X111830491Y-123513390D01*
X111830490Y-123513389D01*
X111830489Y-123513387D01*
X111746613Y-123429511D01*
X111746610Y-123429509D01*
X111746609Y-123429508D01*
X111662051Y-123380688D01*
X112729500Y-123380688D01*
X112729500Y-123499311D01*
X112760199Y-123613882D01*
X112760201Y-123613887D01*
X112819508Y-123716609D01*
X112819509Y-123716610D01*
X112819511Y-123716613D01*
X112903387Y-123800489D01*
X112903389Y-123800490D01*
X112903390Y-123800491D01*
X112987945Y-123849309D01*
X113006114Y-123859799D01*
X113006115Y-123859799D01*
X113006117Y-123859800D01*
X113063402Y-123875149D01*
X113120688Y-123890499D01*
X113120689Y-123890500D01*
X113120691Y-123890500D01*
X113239311Y-123890500D01*
X113239311Y-123890499D01*
X113353886Y-123859799D01*
X113456613Y-123800489D01*
X113540489Y-123716613D01*
X113599799Y-123613886D01*
X113630499Y-123499311D01*
X113630500Y-123499311D01*
X113630500Y-123380689D01*
X113630499Y-123380688D01*
X113628676Y-123373886D01*
X113601882Y-123273886D01*
X113599800Y-123266117D01*
X113599798Y-123266112D01*
X113556252Y-123190688D01*
X117139500Y-123190688D01*
X117139500Y-123309311D01*
X117170199Y-123423882D01*
X117170201Y-123423887D01*
X117229508Y-123526609D01*
X117229509Y-123526610D01*
X117229511Y-123526613D01*
X117313387Y-123610489D01*
X117313389Y-123610490D01*
X117313390Y-123610491D01*
X117382687Y-123650500D01*
X117416114Y-123669799D01*
X117416115Y-123669799D01*
X117416117Y-123669800D01*
X117473402Y-123685149D01*
X117530688Y-123700499D01*
X117530689Y-123700500D01*
X117530691Y-123700500D01*
X117649311Y-123700500D01*
X117649311Y-123700499D01*
X117763886Y-123669799D01*
X117866613Y-123610489D01*
X117950489Y-123526613D01*
X118009799Y-123423886D01*
X118040499Y-123309311D01*
X118040500Y-123309311D01*
X118040500Y-123190689D01*
X118040499Y-123190688D01*
X118009800Y-123076117D01*
X118009798Y-123076112D01*
X118007911Y-123072844D01*
X118007910Y-123072843D01*
X118007909Y-123072841D01*
X117995342Y-123051075D01*
X117989345Y-123040688D01*
X131259500Y-123040688D01*
X131259500Y-123159311D01*
X131290199Y-123273882D01*
X131290201Y-123273887D01*
X131349508Y-123376609D01*
X131349509Y-123376610D01*
X131349511Y-123376613D01*
X131433387Y-123460489D01*
X131433389Y-123460490D01*
X131433390Y-123460491D01*
X131500628Y-123499311D01*
X131536114Y-123519799D01*
X131536115Y-123519799D01*
X131536117Y-123519800D01*
X131561529Y-123526609D01*
X131650688Y-123550499D01*
X131650689Y-123550500D01*
X131650691Y-123550500D01*
X131769311Y-123550500D01*
X131769311Y-123550499D01*
X131883886Y-123519799D01*
X131986613Y-123460489D01*
X132070489Y-123376613D01*
X132129799Y-123273886D01*
X132160499Y-123159311D01*
X132160500Y-123159311D01*
X132160500Y-123040689D01*
X132160499Y-123040688D01*
X132156593Y-123026112D01*
X132129799Y-122926114D01*
X132108666Y-122889511D01*
X132070491Y-122823390D01*
X132070490Y-122823389D01*
X132070489Y-122823387D01*
X132067924Y-122820822D01*
X132046251Y-122768498D01*
X132067925Y-122716172D01*
X132120251Y-122694498D01*
X132139401Y-122697019D01*
X132245688Y-122725499D01*
X132245689Y-122725500D01*
X132245691Y-122725500D01*
X132364305Y-122725500D01*
X132364309Y-122725500D01*
X132364312Y-122725498D01*
X132368907Y-122724894D01*
X132423615Y-122739552D01*
X132451935Y-122788600D01*
X132442654Y-122835261D01*
X132390202Y-122926111D01*
X132390199Y-122926117D01*
X132359500Y-123040688D01*
X132359500Y-123159311D01*
X132390199Y-123273882D01*
X132390201Y-123273887D01*
X132449508Y-123376609D01*
X132449509Y-123376610D01*
X132449511Y-123376613D01*
X132533387Y-123460489D01*
X132533389Y-123460490D01*
X132533390Y-123460491D01*
X132600628Y-123499311D01*
X132636114Y-123519799D01*
X132636115Y-123519799D01*
X132636117Y-123519800D01*
X132661529Y-123526609D01*
X132750688Y-123550499D01*
X132750689Y-123550500D01*
X132750691Y-123550500D01*
X132869311Y-123550500D01*
X132869311Y-123550499D01*
X132983886Y-123519799D01*
X133086613Y-123460489D01*
X133170489Y-123376613D01*
X133229799Y-123273886D01*
X133260499Y-123159311D01*
X133260500Y-123159311D01*
X133260500Y-123040689D01*
X133260499Y-123040688D01*
X133256593Y-123026112D01*
X133229799Y-122926114D01*
X133208666Y-122889511D01*
X133170491Y-122823390D01*
X133170490Y-122823389D01*
X133170489Y-122823387D01*
X133086613Y-122739511D01*
X133086610Y-122739509D01*
X133086609Y-122739508D01*
X132983887Y-122680201D01*
X132983882Y-122680199D01*
X132869311Y-122649500D01*
X132869309Y-122649500D01*
X132750691Y-122649500D01*
X132750689Y-122649500D01*
X132746083Y-122650106D01*
X132691377Y-122635442D01*
X132663063Y-122586390D01*
X132672345Y-122539738D01*
X132689630Y-122509800D01*
X132724799Y-122448886D01*
X132755499Y-122334311D01*
X132755500Y-122334311D01*
X132755500Y-122215689D01*
X132755499Y-122215688D01*
X132744170Y-122173409D01*
X132724799Y-122101114D01*
X132724798Y-122101112D01*
X132665491Y-121998390D01*
X132665490Y-121998389D01*
X132665489Y-121998387D01*
X132581613Y-121914511D01*
X132581610Y-121914509D01*
X132581609Y-121914508D01*
X132478887Y-121855201D01*
X132478882Y-121855199D01*
X132364311Y-121824500D01*
X132364309Y-121824500D01*
X132245691Y-121824500D01*
X132245689Y-121824500D01*
X132131117Y-121855199D01*
X132131112Y-121855201D01*
X132028390Y-121914508D01*
X131944508Y-121998390D01*
X131885201Y-122101112D01*
X131885199Y-122101117D01*
X131854500Y-122215688D01*
X131854500Y-122334311D01*
X131885199Y-122448882D01*
X131885201Y-122448887D01*
X131944508Y-122551609D01*
X131944509Y-122551610D01*
X131944511Y-122551613D01*
X131947074Y-122554176D01*
X131968748Y-122606501D01*
X131947074Y-122658827D01*
X131894748Y-122680501D01*
X131875595Y-122677979D01*
X131769311Y-122649500D01*
X131769309Y-122649500D01*
X131650691Y-122649500D01*
X131650689Y-122649500D01*
X131536117Y-122680199D01*
X131536112Y-122680201D01*
X131433390Y-122739508D01*
X131349508Y-122823390D01*
X131290201Y-122926112D01*
X131290199Y-122926117D01*
X131259500Y-123040688D01*
X117989345Y-123040688D01*
X117950489Y-122973387D01*
X117866613Y-122889511D01*
X117866610Y-122889509D01*
X117866609Y-122889508D01*
X117763887Y-122830201D01*
X117763882Y-122830199D01*
X117649311Y-122799500D01*
X117649309Y-122799500D01*
X117530691Y-122799500D01*
X117530689Y-122799500D01*
X117416117Y-122830199D01*
X117416112Y-122830201D01*
X117313390Y-122889508D01*
X117229508Y-122973390D01*
X117170201Y-123076112D01*
X117170199Y-123076117D01*
X117139500Y-123190688D01*
X113556252Y-123190688D01*
X113540491Y-123163390D01*
X113540490Y-123163389D01*
X113540489Y-123163387D01*
X113456613Y-123079511D01*
X113456610Y-123079509D01*
X113456609Y-123079508D01*
X113353887Y-123020201D01*
X113353882Y-123020199D01*
X113239311Y-122989500D01*
X113239309Y-122989500D01*
X113120691Y-122989500D01*
X113120689Y-122989500D01*
X113006117Y-123020199D01*
X113006112Y-123020201D01*
X112903390Y-123079508D01*
X112819508Y-123163390D01*
X112760201Y-123266112D01*
X112760199Y-123266117D01*
X112729500Y-123380688D01*
X111662051Y-123380688D01*
X111643887Y-123370201D01*
X111643882Y-123370199D01*
X111529311Y-123339500D01*
X111529309Y-123339500D01*
X111410691Y-123339500D01*
X111410689Y-123339500D01*
X111296117Y-123370199D01*
X111296112Y-123370201D01*
X111193390Y-123429508D01*
X111109508Y-123513390D01*
X111050201Y-123616112D01*
X111050199Y-123616117D01*
X111019500Y-123730688D01*
X102500500Y-123730688D01*
X102500500Y-123140688D01*
X106599500Y-123140688D01*
X106599500Y-123259311D01*
X106630199Y-123373882D01*
X106630201Y-123373887D01*
X106689508Y-123476609D01*
X106689509Y-123476610D01*
X106689511Y-123476613D01*
X106773387Y-123560489D01*
X106773389Y-123560490D01*
X106773390Y-123560491D01*
X106876112Y-123619798D01*
X106876114Y-123619799D01*
X106876115Y-123619799D01*
X106876117Y-123619800D01*
X106933402Y-123635149D01*
X106990688Y-123650499D01*
X106990689Y-123650500D01*
X106990691Y-123650500D01*
X107109311Y-123650500D01*
X107109311Y-123650499D01*
X107223886Y-123619799D01*
X107326613Y-123560489D01*
X107410489Y-123476613D01*
X107469799Y-123373886D01*
X107500499Y-123259311D01*
X107500500Y-123259311D01*
X107500500Y-123140689D01*
X107500499Y-123140688D01*
X107469800Y-123026117D01*
X107469798Y-123026112D01*
X107410491Y-122923390D01*
X107410490Y-122923389D01*
X107410489Y-122923387D01*
X107326613Y-122839511D01*
X107326610Y-122839509D01*
X107326609Y-122839508D01*
X107223887Y-122780201D01*
X107223882Y-122780199D01*
X107109311Y-122749500D01*
X107109309Y-122749500D01*
X106990691Y-122749500D01*
X106990689Y-122749500D01*
X106876117Y-122780199D01*
X106876112Y-122780201D01*
X106773390Y-122839508D01*
X106689508Y-122923390D01*
X106630201Y-123026112D01*
X106630199Y-123026117D01*
X106599500Y-123140688D01*
X102500500Y-123140688D01*
X102500500Y-122620688D01*
X115779500Y-122620688D01*
X115779500Y-122739311D01*
X115810199Y-122853882D01*
X115810201Y-122853887D01*
X115869508Y-122956609D01*
X115869509Y-122956610D01*
X115869511Y-122956613D01*
X115953387Y-123040489D01*
X115953389Y-123040490D01*
X115953390Y-123040491D01*
X116015096Y-123076117D01*
X116056114Y-123099799D01*
X116056115Y-123099799D01*
X116056117Y-123099800D01*
X116110467Y-123114363D01*
X116170688Y-123130499D01*
X116170689Y-123130500D01*
X116170691Y-123130500D01*
X116289311Y-123130500D01*
X116289311Y-123130499D01*
X116315442Y-123123497D01*
X116349535Y-123114363D01*
X116403882Y-123099800D01*
X116403881Y-123099800D01*
X116403886Y-123099799D01*
X116506613Y-123040489D01*
X116590489Y-122956613D01*
X116649799Y-122853886D01*
X116680499Y-122739311D01*
X116680500Y-122739311D01*
X116680500Y-122620689D01*
X116680499Y-122620688D01*
X116649800Y-122506117D01*
X116649798Y-122506112D01*
X116590491Y-122403390D01*
X116590490Y-122403389D01*
X116590489Y-122403387D01*
X116506613Y-122319511D01*
X116506610Y-122319509D01*
X116506609Y-122319508D01*
X116403887Y-122260201D01*
X116403882Y-122260199D01*
X116289311Y-122229500D01*
X116289309Y-122229500D01*
X116170691Y-122229500D01*
X116170689Y-122229500D01*
X116056117Y-122260199D01*
X116056112Y-122260201D01*
X115953390Y-122319508D01*
X115869508Y-122403390D01*
X115810201Y-122506112D01*
X115810199Y-122506117D01*
X115779500Y-122620688D01*
X102500500Y-122620688D01*
X102500500Y-121840688D01*
X106589500Y-121840688D01*
X106589500Y-121959311D01*
X106620199Y-122073882D01*
X106620201Y-122073887D01*
X106679508Y-122176609D01*
X106679509Y-122176610D01*
X106679511Y-122176613D01*
X106763387Y-122260489D01*
X106763389Y-122260490D01*
X106763390Y-122260491D01*
X106860571Y-122316599D01*
X106866114Y-122319799D01*
X106866115Y-122319799D01*
X106866117Y-122319800D01*
X106914089Y-122332654D01*
X106980688Y-122350499D01*
X106980689Y-122350500D01*
X106980691Y-122350500D01*
X107099311Y-122350500D01*
X107099311Y-122350499D01*
X107213886Y-122319799D01*
X107316613Y-122260489D01*
X107400489Y-122176613D01*
X107459799Y-122073886D01*
X107490499Y-121959311D01*
X107490500Y-121959311D01*
X107490500Y-121840689D01*
X107490499Y-121840688D01*
X107489642Y-121837491D01*
X107463521Y-121740003D01*
X107459800Y-121726117D01*
X107459798Y-121726112D01*
X107400491Y-121623390D01*
X107400490Y-121623389D01*
X107400489Y-121623387D01*
X107316613Y-121539511D01*
X107316610Y-121539509D01*
X107316609Y-121539508D01*
X107230732Y-121489927D01*
X107213887Y-121480201D01*
X107213882Y-121480199D01*
X107099311Y-121449500D01*
X107099309Y-121449500D01*
X106980691Y-121449500D01*
X106980689Y-121449500D01*
X106866117Y-121480199D01*
X106866112Y-121480201D01*
X106763390Y-121539508D01*
X106679508Y-121623390D01*
X106620201Y-121726112D01*
X106620199Y-121726117D01*
X106589500Y-121840688D01*
X102500500Y-121840688D01*
X102500500Y-121430688D01*
X113189500Y-121430688D01*
X113189500Y-121549311D01*
X113220199Y-121663882D01*
X113220201Y-121663887D01*
X113279508Y-121766609D01*
X113279509Y-121766610D01*
X113279511Y-121766613D01*
X113363387Y-121850489D01*
X113363389Y-121850490D01*
X113363390Y-121850491D01*
X113464515Y-121908876D01*
X113466114Y-121909799D01*
X113466115Y-121909799D01*
X113466117Y-121909800D01*
X113483688Y-121914508D01*
X113580688Y-121940499D01*
X113580689Y-121940500D01*
X113580691Y-121940500D01*
X113699311Y-121940500D01*
X113699311Y-121940499D01*
X113813886Y-121909799D01*
X113916613Y-121850489D01*
X114000489Y-121766613D01*
X114059799Y-121663886D01*
X114090499Y-121549311D01*
X114090500Y-121549311D01*
X114090500Y-121520092D01*
X114112174Y-121467766D01*
X114164500Y-121446092D01*
X114183655Y-121448614D01*
X114186794Y-121449455D01*
X114190690Y-121450500D01*
X114190691Y-121450500D01*
X114309311Y-121450500D01*
X114309311Y-121450499D01*
X114423886Y-121419799D01*
X114526613Y-121360489D01*
X114610489Y-121276613D01*
X114632563Y-121238378D01*
X114677495Y-121203900D01*
X114715800Y-121203900D01*
X114751206Y-121213387D01*
X114773537Y-121219371D01*
X114773538Y-121219371D01*
X114892158Y-121219371D01*
X114892158Y-121219370D01*
X115006733Y-121188670D01*
X115109460Y-121129360D01*
X115188132Y-121050688D01*
X116659500Y-121050688D01*
X116659500Y-121169311D01*
X116690199Y-121283882D01*
X116690201Y-121283887D01*
X116749508Y-121386609D01*
X116749509Y-121386610D01*
X116749511Y-121386613D01*
X116833387Y-121470489D01*
X116833389Y-121470490D01*
X116833390Y-121470491D01*
X116936112Y-121529798D01*
X116936114Y-121529799D01*
X116936115Y-121529799D01*
X116936117Y-121529800D01*
X116960417Y-121536311D01*
X117050688Y-121560499D01*
X117050689Y-121560500D01*
X117050691Y-121560500D01*
X117169311Y-121560500D01*
X117169311Y-121560499D01*
X117283886Y-121529799D01*
X117386613Y-121470489D01*
X117470489Y-121386613D01*
X117529799Y-121283886D01*
X117560499Y-121169311D01*
X117560500Y-121169311D01*
X117560500Y-121076580D01*
X117582174Y-121024254D01*
X117634500Y-121002580D01*
X117671500Y-121012494D01*
X117721542Y-121041386D01*
X117736114Y-121049799D01*
X117736115Y-121049799D01*
X117736117Y-121049800D01*
X117773434Y-121059799D01*
X117850688Y-121080499D01*
X117850689Y-121080500D01*
X117850691Y-121080500D01*
X117969311Y-121080500D01*
X117969311Y-121080499D01*
X118083886Y-121049799D01*
X118186613Y-120990489D01*
X118270489Y-120906613D01*
X118329799Y-120803886D01*
X118360499Y-120689311D01*
X118360500Y-120689311D01*
X118360500Y-120570689D01*
X118360499Y-120570688D01*
X118359009Y-120565129D01*
X118329799Y-120456114D01*
X118302239Y-120408379D01*
X118270491Y-120353390D01*
X118270490Y-120353389D01*
X118270489Y-120353387D01*
X118186613Y-120269511D01*
X118186610Y-120269509D01*
X118186609Y-120269508D01*
X118083887Y-120210201D01*
X118083882Y-120210199D01*
X117969311Y-120179500D01*
X117969309Y-120179500D01*
X117850691Y-120179500D01*
X117850689Y-120179500D01*
X117736117Y-120210199D01*
X117736112Y-120210201D01*
X117633390Y-120269508D01*
X117549508Y-120353390D01*
X117490201Y-120456112D01*
X117490199Y-120456117D01*
X117459500Y-120570688D01*
X117459500Y-120663419D01*
X117437826Y-120715745D01*
X117385500Y-120737419D01*
X117348501Y-120727505D01*
X117283891Y-120690203D01*
X117283882Y-120690199D01*
X117169311Y-120659500D01*
X117169309Y-120659500D01*
X117050691Y-120659500D01*
X117050689Y-120659500D01*
X116936117Y-120690199D01*
X116936112Y-120690201D01*
X116833390Y-120749508D01*
X116749508Y-120833390D01*
X116690201Y-120936112D01*
X116690199Y-120936117D01*
X116659500Y-121050688D01*
X115188132Y-121050688D01*
X115193336Y-121045484D01*
X115252646Y-120942757D01*
X115283346Y-120828182D01*
X115283347Y-120828182D01*
X115283347Y-120709560D01*
X115283346Y-120709559D01*
X115280000Y-120697073D01*
X115252646Y-120594985D01*
X115244392Y-120580688D01*
X115193338Y-120492261D01*
X115193337Y-120492260D01*
X115193336Y-120492258D01*
X115109460Y-120408382D01*
X115109457Y-120408380D01*
X115109456Y-120408379D01*
X115006734Y-120349072D01*
X115006729Y-120349070D01*
X114892158Y-120318371D01*
X114892156Y-120318371D01*
X114773538Y-120318371D01*
X114773536Y-120318371D01*
X114658964Y-120349070D01*
X114658959Y-120349072D01*
X114556237Y-120408379D01*
X114472354Y-120492262D01*
X114450282Y-120530492D01*
X114405349Y-120564970D01*
X114367045Y-120564970D01*
X114309309Y-120549500D01*
X114190691Y-120549500D01*
X114190689Y-120549500D01*
X114076117Y-120580199D01*
X114076112Y-120580201D01*
X113973390Y-120639508D01*
X113889508Y-120723390D01*
X113830201Y-120826112D01*
X113830199Y-120826117D01*
X113799500Y-120940688D01*
X113799500Y-120969907D01*
X113777826Y-121022233D01*
X113725500Y-121043907D01*
X113706348Y-121041386D01*
X113699309Y-121039500D01*
X113580691Y-121039500D01*
X113580689Y-121039500D01*
X113466117Y-121070199D01*
X113466112Y-121070201D01*
X113363390Y-121129508D01*
X113279508Y-121213390D01*
X113220201Y-121316112D01*
X113220199Y-121316117D01*
X113189500Y-121430688D01*
X102500500Y-121430688D01*
X102500500Y-120580688D01*
X106669500Y-120580688D01*
X106669500Y-120699311D01*
X106700199Y-120813882D01*
X106700201Y-120813887D01*
X106759508Y-120916609D01*
X106759509Y-120916610D01*
X106759511Y-120916613D01*
X106843387Y-121000489D01*
X106843389Y-121000490D01*
X106843390Y-121000491D01*
X106945265Y-121059309D01*
X106946114Y-121059799D01*
X106946115Y-121059799D01*
X106946117Y-121059800D01*
X107003402Y-121075149D01*
X107060688Y-121090499D01*
X107060689Y-121090500D01*
X107060691Y-121090500D01*
X107179311Y-121090500D01*
X107179311Y-121090499D01*
X107293886Y-121059799D01*
X107396613Y-121000489D01*
X107480489Y-120916613D01*
X107539799Y-120813886D01*
X107570499Y-120699311D01*
X107570500Y-120699311D01*
X107570500Y-120580689D01*
X107570499Y-120580688D01*
X107566287Y-120564970D01*
X107539799Y-120466114D01*
X107534027Y-120456117D01*
X107480491Y-120363390D01*
X107480490Y-120363389D01*
X107480489Y-120363387D01*
X107396613Y-120279511D01*
X107396610Y-120279509D01*
X107396609Y-120279508D01*
X107293887Y-120220201D01*
X107293882Y-120220199D01*
X107179311Y-120189500D01*
X107179309Y-120189500D01*
X107060691Y-120189500D01*
X107060689Y-120189500D01*
X106946117Y-120220199D01*
X106946112Y-120220201D01*
X106843390Y-120279508D01*
X106759508Y-120363390D01*
X106700201Y-120466112D01*
X106700199Y-120466117D01*
X106669500Y-120580688D01*
X102500500Y-120580688D01*
X102500500Y-119495688D01*
X107254500Y-119495688D01*
X107254500Y-119614311D01*
X107285199Y-119728882D01*
X107285201Y-119728887D01*
X107344508Y-119831609D01*
X107344509Y-119831610D01*
X107344511Y-119831613D01*
X107428387Y-119915489D01*
X107428389Y-119915490D01*
X107428390Y-119915491D01*
X107531112Y-119974798D01*
X107531114Y-119974799D01*
X107531115Y-119974799D01*
X107531117Y-119974800D01*
X107575006Y-119986560D01*
X107645688Y-120005499D01*
X107645689Y-120005500D01*
X107645691Y-120005500D01*
X107764311Y-120005500D01*
X107764311Y-120005499D01*
X107878886Y-119974799D01*
X107981613Y-119915489D01*
X108065489Y-119831613D01*
X108124799Y-119728886D01*
X108155499Y-119614311D01*
X108155500Y-119614311D01*
X108155500Y-119495689D01*
X108155499Y-119495688D01*
X108124800Y-119381117D01*
X108124798Y-119381112D01*
X108065491Y-119278390D01*
X108065490Y-119278389D01*
X108065489Y-119278387D01*
X107981613Y-119194511D01*
X107981610Y-119194509D01*
X107981609Y-119194508D01*
X107878887Y-119135201D01*
X107878882Y-119135199D01*
X107764311Y-119104500D01*
X107764309Y-119104500D01*
X107645691Y-119104500D01*
X107645689Y-119104500D01*
X107531117Y-119135199D01*
X107531112Y-119135201D01*
X107428390Y-119194508D01*
X107344508Y-119278390D01*
X107285201Y-119381112D01*
X107285199Y-119381117D01*
X107254500Y-119495688D01*
X102500500Y-119495688D01*
X102500500Y-118165688D01*
X107019500Y-118165688D01*
X107019500Y-118284311D01*
X107050199Y-118398882D01*
X107050201Y-118398887D01*
X107109508Y-118501609D01*
X107109509Y-118501610D01*
X107109511Y-118501613D01*
X107193387Y-118585489D01*
X107193389Y-118585490D01*
X107193390Y-118585491D01*
X107294534Y-118643887D01*
X107296114Y-118644799D01*
X107296115Y-118644799D01*
X107296117Y-118644800D01*
X107353402Y-118660149D01*
X107410688Y-118675499D01*
X107410689Y-118675500D01*
X107410691Y-118675500D01*
X107529311Y-118675500D01*
X107529311Y-118675499D01*
X107643886Y-118644799D01*
X107746613Y-118585489D01*
X107830489Y-118501613D01*
X107882985Y-118410688D01*
X117209500Y-118410688D01*
X117209500Y-118529311D01*
X117240199Y-118643882D01*
X117240201Y-118643887D01*
X117299508Y-118746609D01*
X117299509Y-118746610D01*
X117299511Y-118746613D01*
X117383387Y-118830489D01*
X117383389Y-118830490D01*
X117383390Y-118830491D01*
X117486112Y-118889798D01*
X117486114Y-118889799D01*
X117486115Y-118889799D01*
X117486117Y-118889800D01*
X117543402Y-118905149D01*
X117600688Y-118920499D01*
X117600689Y-118920500D01*
X117600691Y-118920500D01*
X117719311Y-118920500D01*
X117719311Y-118920499D01*
X117833886Y-118889799D01*
X117936613Y-118830489D01*
X118020489Y-118746613D01*
X118079799Y-118643886D01*
X118110499Y-118529311D01*
X118110500Y-118529311D01*
X118110500Y-118410689D01*
X118110499Y-118410688D01*
X118105320Y-118391361D01*
X118079799Y-118296114D01*
X118079798Y-118296112D01*
X118020491Y-118193390D01*
X118020490Y-118193389D01*
X118020489Y-118193387D01*
X117936613Y-118109511D01*
X117936610Y-118109509D01*
X117936609Y-118109508D01*
X117833887Y-118050201D01*
X117833882Y-118050199D01*
X117719311Y-118019500D01*
X117719309Y-118019500D01*
X117600691Y-118019500D01*
X117600689Y-118019500D01*
X117486117Y-118050199D01*
X117486112Y-118050201D01*
X117383390Y-118109508D01*
X117299508Y-118193390D01*
X117240201Y-118296112D01*
X117240199Y-118296117D01*
X117209500Y-118410688D01*
X107882985Y-118410688D01*
X107889799Y-118398886D01*
X107890186Y-118397441D01*
X107893068Y-118386688D01*
X107907769Y-118331818D01*
X107920499Y-118284311D01*
X107920500Y-118284311D01*
X107920500Y-118165689D01*
X107920499Y-118165688D01*
X107919106Y-118160491D01*
X107897592Y-118080199D01*
X107889800Y-118051117D01*
X107889798Y-118051112D01*
X107830491Y-117948390D01*
X107830490Y-117948389D01*
X107830489Y-117948387D01*
X107746613Y-117864511D01*
X107746610Y-117864509D01*
X107746609Y-117864508D01*
X107643887Y-117805201D01*
X107643882Y-117805199D01*
X107529311Y-117774500D01*
X107529309Y-117774500D01*
X107410691Y-117774500D01*
X107410689Y-117774500D01*
X107296117Y-117805199D01*
X107296112Y-117805201D01*
X107193390Y-117864508D01*
X107109508Y-117948390D01*
X107050201Y-118051112D01*
X107050199Y-118051117D01*
X107019500Y-118165688D01*
X102500500Y-118165688D01*
X102500500Y-116940688D01*
X107124500Y-116940688D01*
X107124500Y-117059311D01*
X107155199Y-117173882D01*
X107155201Y-117173887D01*
X107214508Y-117276609D01*
X107214509Y-117276610D01*
X107214511Y-117276613D01*
X107298387Y-117360489D01*
X107298389Y-117360490D01*
X107298390Y-117360491D01*
X107350694Y-117390689D01*
X107401114Y-117419799D01*
X107401115Y-117419799D01*
X107401117Y-117419800D01*
X107458402Y-117435149D01*
X107515688Y-117450499D01*
X107515689Y-117450500D01*
X107515691Y-117450500D01*
X107634311Y-117450500D01*
X107634311Y-117450499D01*
X107748886Y-117419799D01*
X107851613Y-117360489D01*
X107935489Y-117276613D01*
X107994799Y-117173886D01*
X108025499Y-117059311D01*
X108025500Y-117059311D01*
X108025500Y-116940689D01*
X108025499Y-116940688D01*
X107994800Y-116826117D01*
X107994798Y-116826112D01*
X107935491Y-116723390D01*
X107935490Y-116723389D01*
X107935489Y-116723387D01*
X107851613Y-116639511D01*
X107851610Y-116639509D01*
X107851609Y-116639508D01*
X107748887Y-116580201D01*
X107748882Y-116580199D01*
X107634311Y-116549500D01*
X107634309Y-116549500D01*
X107515691Y-116549500D01*
X107515689Y-116549500D01*
X107401117Y-116580199D01*
X107401112Y-116580201D01*
X107298390Y-116639508D01*
X107214508Y-116723390D01*
X107155201Y-116826112D01*
X107155199Y-116826117D01*
X107124500Y-116940688D01*
X102500500Y-116940688D01*
X102500500Y-114225688D01*
X106639500Y-114225688D01*
X106639500Y-114344311D01*
X106670199Y-114458882D01*
X106670201Y-114458887D01*
X106729508Y-114561609D01*
X106729509Y-114561610D01*
X106729511Y-114561613D01*
X106813387Y-114645489D01*
X106813389Y-114645490D01*
X106813390Y-114645491D01*
X106916112Y-114704798D01*
X106916114Y-114704799D01*
X106916115Y-114704799D01*
X106916117Y-114704800D01*
X106973402Y-114720149D01*
X107030688Y-114735499D01*
X107030689Y-114735500D01*
X107030691Y-114735500D01*
X107149311Y-114735500D01*
X107149311Y-114735499D01*
X107263886Y-114704799D01*
X107366613Y-114645489D01*
X107412675Y-114599426D01*
X107465000Y-114577753D01*
X107517324Y-114599426D01*
X107563387Y-114645489D01*
X107563389Y-114645490D01*
X107563390Y-114645491D01*
X107666112Y-114704798D01*
X107666114Y-114704799D01*
X107666115Y-114704799D01*
X107666117Y-114704800D01*
X107723402Y-114720149D01*
X107780688Y-114735499D01*
X107780689Y-114735500D01*
X107780691Y-114735500D01*
X107899311Y-114735500D01*
X107899311Y-114735499D01*
X108013886Y-114704799D01*
X108116613Y-114645489D01*
X108141414Y-114620688D01*
X117779500Y-114620688D01*
X117779500Y-114739311D01*
X117810199Y-114853882D01*
X117810201Y-114853887D01*
X117869508Y-114956609D01*
X117869509Y-114956610D01*
X117869511Y-114956613D01*
X117953387Y-115040489D01*
X118056114Y-115099799D01*
X118056115Y-115099799D01*
X118056117Y-115099800D01*
X118113402Y-115115149D01*
X118170688Y-115130499D01*
X118170689Y-115130500D01*
X118276142Y-115130500D01*
X118328468Y-115152174D01*
X120877826Y-117701532D01*
X120899500Y-117753858D01*
X120899500Y-117859311D01*
X120930199Y-117973882D01*
X120930201Y-117973887D01*
X120989508Y-118076609D01*
X120989509Y-118076610D01*
X120989511Y-118076613D01*
X121073387Y-118160489D01*
X121073389Y-118160490D01*
X121073390Y-118160491D01*
X121176112Y-118219798D01*
X121176114Y-118219799D01*
X121176115Y-118219799D01*
X121176117Y-118219800D01*
X121233402Y-118235149D01*
X121290688Y-118250499D01*
X121290689Y-118250500D01*
X121396142Y-118250500D01*
X121448468Y-118272174D01*
X121825980Y-118649686D01*
X121900314Y-118724020D01*
X121997437Y-118764250D01*
X121997438Y-118764250D01*
X122102562Y-118764250D01*
X135406497Y-118764250D01*
X135458821Y-118785923D01*
X135533387Y-118860489D01*
X135533389Y-118860490D01*
X135533390Y-118860491D01*
X135636112Y-118919798D01*
X135636114Y-118919799D01*
X135636115Y-118919799D01*
X135636117Y-118919800D01*
X135646306Y-118922530D01*
X135750688Y-118950499D01*
X135750689Y-118950500D01*
X135847141Y-118950500D01*
X135899467Y-118972174D01*
X135921141Y-119024500D01*
X135899467Y-119076826D01*
X134287480Y-120688813D01*
X134287477Y-120688817D01*
X134273159Y-120723386D01*
X134247250Y-120785935D01*
X134247250Y-121662022D01*
X134225576Y-121714348D01*
X134173250Y-121736022D01*
X134130969Y-121721667D01*
X134130814Y-121721936D01*
X134129463Y-121721156D01*
X134128196Y-121720726D01*
X134126610Y-121719508D01*
X134023887Y-121660201D01*
X134023882Y-121660199D01*
X133909311Y-121629500D01*
X133909309Y-121629500D01*
X133790691Y-121629500D01*
X133790689Y-121629500D01*
X133676117Y-121660199D01*
X133676112Y-121660201D01*
X133573390Y-121719508D01*
X133489508Y-121803390D01*
X133430201Y-121906112D01*
X133430199Y-121906117D01*
X133399500Y-122020688D01*
X133399500Y-122139311D01*
X133430199Y-122253882D01*
X133430201Y-122253887D01*
X133489508Y-122356609D01*
X133489509Y-122356610D01*
X133489511Y-122356613D01*
X133573387Y-122440489D01*
X133573389Y-122440490D01*
X133573390Y-122440491D01*
X133650648Y-122485096D01*
X133676114Y-122499799D01*
X133676115Y-122499799D01*
X133676117Y-122499800D01*
X133713434Y-122509799D01*
X133790688Y-122530499D01*
X133790689Y-122530500D01*
X133790691Y-122530500D01*
X133909311Y-122530500D01*
X133909311Y-122530499D01*
X134023886Y-122499799D01*
X134126613Y-122440489D01*
X134126621Y-122440480D01*
X134128189Y-122439278D01*
X134129164Y-122439016D01*
X134130814Y-122438064D01*
X134131069Y-122438505D01*
X134182894Y-122424608D01*
X134231949Y-122452916D01*
X134247250Y-122497977D01*
X134247250Y-125638392D01*
X134225576Y-125690718D01*
X132952218Y-126964076D01*
X132899892Y-126985750D01*
X132673503Y-126985750D01*
X132621178Y-126964076D01*
X132546613Y-126889511D01*
X132546610Y-126889509D01*
X132546609Y-126889508D01*
X132443887Y-126830201D01*
X132443882Y-126830199D01*
X132329311Y-126799500D01*
X132329309Y-126799500D01*
X132210691Y-126799500D01*
X132210689Y-126799500D01*
X132096117Y-126830199D01*
X132096112Y-126830201D01*
X131993390Y-126889508D01*
X131909508Y-126973390D01*
X131850201Y-127076112D01*
X131850199Y-127076117D01*
X131819500Y-127190688D01*
X131819500Y-127309311D01*
X131850199Y-127423882D01*
X131850201Y-127423887D01*
X131909508Y-127526609D01*
X131909509Y-127526610D01*
X131909511Y-127526613D01*
X131993387Y-127610489D01*
X131993389Y-127610490D01*
X131993390Y-127610491D01*
X132060278Y-127649109D01*
X132096114Y-127669799D01*
X132096115Y-127669799D01*
X132096117Y-127669800D01*
X132153402Y-127685149D01*
X132210688Y-127700499D01*
X132210689Y-127700500D01*
X132210691Y-127700500D01*
X132329311Y-127700500D01*
X132329311Y-127700499D01*
X132443886Y-127669799D01*
X132546613Y-127610489D01*
X132621178Y-127535923D01*
X132673503Y-127514250D01*
X133099851Y-127514250D01*
X133099851Y-127516963D01*
X133144930Y-127525922D01*
X133175307Y-127568305D01*
X133190199Y-127623882D01*
X133190201Y-127623887D01*
X133249508Y-127726609D01*
X133249509Y-127726610D01*
X133249511Y-127726613D01*
X133333387Y-127810489D01*
X133333389Y-127810490D01*
X133333390Y-127810491D01*
X133436112Y-127869798D01*
X133436114Y-127869799D01*
X133436115Y-127869799D01*
X133436117Y-127869800D01*
X133493402Y-127885149D01*
X133550688Y-127900499D01*
X133550689Y-127900500D01*
X133550691Y-127900500D01*
X133669311Y-127900500D01*
X133669311Y-127900499D01*
X133783886Y-127869799D01*
X133886613Y-127810489D01*
X133970489Y-127726613D01*
X134029799Y-127623886D01*
X134060499Y-127509311D01*
X134060500Y-127509311D01*
X134060500Y-127390689D01*
X134060499Y-127390688D01*
X134055089Y-127370499D01*
X134029799Y-127276114D01*
X134029798Y-127276113D01*
X134029797Y-127276109D01*
X134005732Y-127234429D01*
X133998338Y-127178276D01*
X134017489Y-127145104D01*
X134160650Y-127001943D01*
X134212975Y-126980270D01*
X134265301Y-127001944D01*
X134284453Y-127035117D01*
X134300199Y-127093882D01*
X134300201Y-127093887D01*
X134359508Y-127196609D01*
X134359509Y-127196610D01*
X134359511Y-127196613D01*
X134443387Y-127280489D01*
X134443389Y-127280490D01*
X134443390Y-127280491D01*
X134546112Y-127339798D01*
X134546114Y-127339799D01*
X134546115Y-127339799D01*
X134546117Y-127339800D01*
X134603402Y-127355149D01*
X134660688Y-127370499D01*
X134660689Y-127370500D01*
X134660691Y-127370500D01*
X134779311Y-127370500D01*
X134779311Y-127370499D01*
X134893886Y-127339799D01*
X134996613Y-127280489D01*
X135080489Y-127196613D01*
X135139799Y-127093886D01*
X135170499Y-126979311D01*
X135170500Y-126979311D01*
X135170500Y-126860689D01*
X135170499Y-126860688D01*
X135149089Y-126780782D01*
X135156481Y-126724629D01*
X135201414Y-126690151D01*
X135257565Y-126697542D01*
X135257568Y-126697544D01*
X135296110Y-126719797D01*
X135296112Y-126719797D01*
X135296114Y-126719799D01*
X135296115Y-126719799D01*
X135296117Y-126719800D01*
X135353402Y-126735149D01*
X135410688Y-126750499D01*
X135410689Y-126750500D01*
X135410691Y-126750500D01*
X135529311Y-126750500D01*
X135529311Y-126750499D01*
X135643886Y-126719799D01*
X135746613Y-126660489D01*
X135815928Y-126591174D01*
X135868254Y-126569500D01*
X136568287Y-126569500D01*
X136568288Y-126569500D01*
X136667341Y-126528471D01*
X136743152Y-126452660D01*
X136743152Y-126452659D01*
X136753557Y-126442254D01*
X136753558Y-126442251D01*
X139938471Y-123257341D01*
X139979500Y-123158288D01*
X139979500Y-123051075D01*
X139979500Y-122345688D01*
X142614500Y-122345688D01*
X142614500Y-122464311D01*
X142645199Y-122578882D01*
X142645201Y-122578887D01*
X142704508Y-122681609D01*
X142704509Y-122681610D01*
X142704511Y-122681613D01*
X142788387Y-122765489D01*
X142788389Y-122765490D01*
X142788390Y-122765491D01*
X142891112Y-122824798D01*
X142891114Y-122824799D01*
X142891115Y-122824799D01*
X142891117Y-122824800D01*
X142911274Y-122830201D01*
X143005688Y-122855499D01*
X143005689Y-122855500D01*
X143005691Y-122855500D01*
X143124311Y-122855500D01*
X143124311Y-122855499D01*
X143238886Y-122824799D01*
X143341613Y-122765489D01*
X143425489Y-122681613D01*
X143484799Y-122578886D01*
X143515499Y-122464311D01*
X143515500Y-122464311D01*
X143515500Y-122345689D01*
X143515499Y-122345688D01*
X143507704Y-122316598D01*
X143484799Y-122231114D01*
X143483867Y-122229500D01*
X143425491Y-122128390D01*
X143425490Y-122128389D01*
X143425489Y-122128387D01*
X143341613Y-122044511D01*
X143341610Y-122044509D01*
X143341609Y-122044508D01*
X143238887Y-121985201D01*
X143238882Y-121985199D01*
X143124311Y-121954500D01*
X143124309Y-121954500D01*
X143005691Y-121954500D01*
X143005689Y-121954500D01*
X142891117Y-121985199D01*
X142891112Y-121985201D01*
X142788390Y-122044508D01*
X142704508Y-122128390D01*
X142645201Y-122231112D01*
X142645199Y-122231117D01*
X142614500Y-122345688D01*
X139979500Y-122345688D01*
X139979500Y-120575688D01*
X142479500Y-120575688D01*
X142479500Y-120694311D01*
X142510199Y-120808882D01*
X142510201Y-120808887D01*
X142569508Y-120911609D01*
X142569509Y-120911610D01*
X142569511Y-120911613D01*
X142653387Y-120995489D01*
X142653389Y-120995490D01*
X142653390Y-120995491D01*
X142748999Y-121050691D01*
X142756114Y-121054799D01*
X142756115Y-121054799D01*
X142756117Y-121054800D01*
X142801238Y-121066890D01*
X142870688Y-121085499D01*
X142870689Y-121085500D01*
X142870691Y-121085500D01*
X142989311Y-121085500D01*
X142989311Y-121085499D01*
X143103886Y-121054799D01*
X143206613Y-120995489D01*
X143290489Y-120911613D01*
X143349799Y-120808886D01*
X143380499Y-120694311D01*
X143380500Y-120694311D01*
X143380500Y-120575689D01*
X143380499Y-120575688D01*
X143349800Y-120461117D01*
X143349798Y-120461112D01*
X143290491Y-120358390D01*
X143290490Y-120358389D01*
X143290489Y-120358387D01*
X143206613Y-120274511D01*
X143206610Y-120274509D01*
X143206609Y-120274508D01*
X143103887Y-120215201D01*
X143103882Y-120215199D01*
X142989311Y-120184500D01*
X142989309Y-120184500D01*
X142870691Y-120184500D01*
X142870689Y-120184500D01*
X142756117Y-120215199D01*
X142756112Y-120215201D01*
X142653390Y-120274508D01*
X142569508Y-120358390D01*
X142510201Y-120461112D01*
X142510199Y-120461117D01*
X142479500Y-120575688D01*
X139979500Y-120575688D01*
X139979500Y-118974856D01*
X140001173Y-118922531D01*
X140893016Y-118030688D01*
X141729500Y-118030688D01*
X141729500Y-118149311D01*
X141760199Y-118263882D01*
X141760201Y-118263887D01*
X141819508Y-118366609D01*
X141819509Y-118366610D01*
X141819511Y-118366613D01*
X141903387Y-118450489D01*
X141903389Y-118450490D01*
X141903390Y-118450491D01*
X142006112Y-118509798D01*
X142006114Y-118509799D01*
X142006115Y-118509799D01*
X142006117Y-118509800D01*
X142031779Y-118516676D01*
X142120688Y-118540499D01*
X142120689Y-118540500D01*
X142120691Y-118540500D01*
X142239311Y-118540500D01*
X142239311Y-118540499D01*
X142353886Y-118509799D01*
X142456613Y-118450489D01*
X142540489Y-118366613D01*
X142599799Y-118263886D01*
X142630499Y-118149311D01*
X142630500Y-118149311D01*
X142630500Y-118030689D01*
X142630499Y-118030688D01*
X142599800Y-117916117D01*
X142599798Y-117916112D01*
X142540491Y-117813390D01*
X142540490Y-117813389D01*
X142540489Y-117813387D01*
X142456613Y-117729511D01*
X142456610Y-117729509D01*
X142456609Y-117729508D01*
X142353887Y-117670201D01*
X142353882Y-117670199D01*
X142239311Y-117639500D01*
X142239309Y-117639500D01*
X142120691Y-117639500D01*
X142120689Y-117639500D01*
X142006117Y-117670199D01*
X142006112Y-117670201D01*
X141903390Y-117729508D01*
X141819508Y-117813390D01*
X141760201Y-117916112D01*
X141760199Y-117916117D01*
X141729500Y-118030688D01*
X140893016Y-118030688D01*
X141910757Y-117012946D01*
X141963082Y-116991273D01*
X142015408Y-117012947D01*
X142027168Y-117028273D01*
X142069508Y-117101609D01*
X142069509Y-117101610D01*
X142069511Y-117101613D01*
X142153387Y-117185489D01*
X142153389Y-117185490D01*
X142153390Y-117185491D01*
X142256112Y-117244798D01*
X142256114Y-117244799D01*
X142256115Y-117244799D01*
X142256117Y-117244800D01*
X142279693Y-117251117D01*
X142370688Y-117275499D01*
X142370689Y-117275500D01*
X142370691Y-117275500D01*
X142489311Y-117275500D01*
X142489311Y-117275499D01*
X142603886Y-117244799D01*
X142706613Y-117185489D01*
X142790489Y-117101613D01*
X142849799Y-116998886D01*
X142880499Y-116884311D01*
X142880500Y-116884311D01*
X142880500Y-116765689D01*
X142880499Y-116765688D01*
X142849800Y-116651117D01*
X142849798Y-116651112D01*
X142790491Y-116548390D01*
X142790490Y-116548389D01*
X142790489Y-116548387D01*
X142706613Y-116464511D01*
X142706610Y-116464509D01*
X142706609Y-116464508D01*
X142633273Y-116422168D01*
X142598795Y-116377235D01*
X142606187Y-116321082D01*
X142617943Y-116305760D01*
X142871530Y-116052174D01*
X142923856Y-116030500D01*
X143029311Y-116030500D01*
X143029311Y-116030499D01*
X143143886Y-115999799D01*
X143246613Y-115940489D01*
X143330489Y-115856613D01*
X143389799Y-115753886D01*
X143420499Y-115639311D01*
X143420500Y-115639311D01*
X143420500Y-115520689D01*
X143420499Y-115520688D01*
X143389799Y-115406114D01*
X143389798Y-115406112D01*
X143330491Y-115303390D01*
X143330490Y-115303389D01*
X143330489Y-115303387D01*
X143246613Y-115219511D01*
X143246610Y-115219509D01*
X143246609Y-115219508D01*
X143143887Y-115160201D01*
X143143882Y-115160199D01*
X143029311Y-115129500D01*
X143029309Y-115129500D01*
X142910691Y-115129500D01*
X142910689Y-115129500D01*
X142796117Y-115160199D01*
X142796112Y-115160201D01*
X142693390Y-115219508D01*
X142609508Y-115303390D01*
X142550201Y-115406112D01*
X142550201Y-115406114D01*
X142519500Y-115520688D01*
X142519500Y-115626142D01*
X142497826Y-115678468D01*
X139485977Y-118690317D01*
X139482174Y-118699500D01*
X139472018Y-118724020D01*
X139445750Y-118787437D01*
X139445750Y-118831761D01*
X139443517Y-118840644D01*
X139441883Y-118842842D01*
X139441922Y-118842850D01*
X139440500Y-118849998D01*
X139440500Y-119184747D01*
X139418826Y-119237073D01*
X139366500Y-119258747D01*
X139314175Y-119237073D01*
X139286613Y-119209511D01*
X139286610Y-119209509D01*
X139286609Y-119209508D01*
X139183887Y-119150201D01*
X139183882Y-119150199D01*
X139069311Y-119119500D01*
X139069309Y-119119500D01*
X138950691Y-119119500D01*
X138950689Y-119119500D01*
X138836117Y-119150199D01*
X138836108Y-119150203D01*
X138830499Y-119153442D01*
X138774347Y-119160834D01*
X138729414Y-119126355D01*
X138719500Y-119089356D01*
X138719500Y-116492281D01*
X138741173Y-116439956D01*
X139042251Y-116138877D01*
X139042254Y-116138876D01*
X139052659Y-116128471D01*
X139052660Y-116128471D01*
X139128471Y-116052660D01*
X139154419Y-115990014D01*
X139173898Y-115964634D01*
X139173183Y-115963919D01*
X139176613Y-115960489D01*
X139260489Y-115876613D01*
X139319799Y-115773886D01*
X139350499Y-115659311D01*
X139350500Y-115659311D01*
X139350500Y-115540689D01*
X139350499Y-115540688D01*
X139319800Y-115426117D01*
X139319798Y-115426112D01*
X139260491Y-115323390D01*
X139260490Y-115323389D01*
X139260489Y-115323387D01*
X139176613Y-115239511D01*
X139176610Y-115239509D01*
X139176609Y-115239508D01*
X139073887Y-115180201D01*
X139073882Y-115180199D01*
X138959311Y-115149500D01*
X138959309Y-115149500D01*
X138840691Y-115149500D01*
X138840689Y-115149500D01*
X138726117Y-115180199D01*
X138726112Y-115180201D01*
X138623390Y-115239508D01*
X138539508Y-115323390D01*
X138480201Y-115426112D01*
X138480199Y-115426117D01*
X138449500Y-115540688D01*
X138449500Y-115659311D01*
X138480199Y-115773882D01*
X138480201Y-115773887D01*
X138512124Y-115829179D01*
X138519516Y-115885332D01*
X138500364Y-115918505D01*
X138221527Y-116197342D01*
X138180500Y-116296391D01*
X138180500Y-116459747D01*
X138158826Y-116512073D01*
X138106500Y-116533747D01*
X138054175Y-116512073D01*
X137976613Y-116434511D01*
X137976610Y-116434509D01*
X137976609Y-116434508D01*
X137873887Y-116375201D01*
X137873882Y-116375199D01*
X137759311Y-116344500D01*
X137759309Y-116344500D01*
X137640691Y-116344500D01*
X137640689Y-116344500D01*
X137526117Y-116375199D01*
X137526112Y-116375201D01*
X137423390Y-116434508D01*
X137339508Y-116518390D01*
X137280201Y-116621112D01*
X137280199Y-116621117D01*
X137249500Y-116735688D01*
X137249500Y-116854311D01*
X137280199Y-116968882D01*
X137280201Y-116968887D01*
X137339508Y-117071609D01*
X137339509Y-117071610D01*
X137339511Y-117071613D01*
X137423387Y-117155489D01*
X137423389Y-117155490D01*
X137423390Y-117155491D01*
X137526112Y-117214798D01*
X137526114Y-117214799D01*
X137526115Y-117214799D01*
X137526117Y-117214800D01*
X137583402Y-117230149D01*
X137640688Y-117245499D01*
X137640689Y-117245500D01*
X137640691Y-117245500D01*
X137759311Y-117245500D01*
X137759311Y-117245499D01*
X137873886Y-117214799D01*
X137976613Y-117155489D01*
X138054175Y-117077926D01*
X138106500Y-117056253D01*
X138158826Y-117077927D01*
X138180500Y-117130253D01*
X138180500Y-123707717D01*
X138158826Y-123760043D01*
X136951206Y-124967662D01*
X136898880Y-124989336D01*
X136846554Y-124967662D01*
X136827402Y-124934490D01*
X136819799Y-124906114D01*
X136813671Y-124895500D01*
X136760491Y-124803390D01*
X136760490Y-124803389D01*
X136760489Y-124803387D01*
X136676613Y-124719511D01*
X136676610Y-124719509D01*
X136676609Y-124719508D01*
X136573887Y-124660201D01*
X136573882Y-124660199D01*
X136459311Y-124629500D01*
X136459309Y-124629500D01*
X136340691Y-124629500D01*
X136340689Y-124629500D01*
X136226117Y-124660199D01*
X136226112Y-124660201D01*
X136123390Y-124719508D01*
X136039508Y-124803390D01*
X135980201Y-124906112D01*
X135980199Y-124906117D01*
X135949500Y-125020688D01*
X135949500Y-125139311D01*
X135980199Y-125253882D01*
X135980201Y-125253887D01*
X136039508Y-125356609D01*
X136039509Y-125356610D01*
X136039511Y-125356613D01*
X136067073Y-125384175D01*
X136088747Y-125436500D01*
X136067073Y-125488826D01*
X136014747Y-125510500D01*
X135271712Y-125510500D01*
X135172661Y-125551527D01*
X135120576Y-125603612D01*
X135068250Y-125625286D01*
X135015924Y-125603612D01*
X134994250Y-125551286D01*
X134994250Y-124392340D01*
X135015924Y-124340014D01*
X135068250Y-124318340D01*
X135087398Y-124320861D01*
X135140168Y-124335001D01*
X135160690Y-124340500D01*
X135160691Y-124340500D01*
X135279311Y-124340500D01*
X135279311Y-124340499D01*
X135393886Y-124309799D01*
X135496613Y-124250489D01*
X135580489Y-124166613D01*
X135639799Y-124063886D01*
X135670499Y-123949311D01*
X135670500Y-123949311D01*
X135670500Y-123911281D01*
X135692173Y-123858956D01*
X137642251Y-121908877D01*
X137642254Y-121908876D01*
X137652659Y-121898471D01*
X137652660Y-121898471D01*
X137728471Y-121822660D01*
X137769500Y-121723607D01*
X137769500Y-120118253D01*
X137791173Y-120065928D01*
X137840489Y-120016613D01*
X137899799Y-119913886D01*
X137930499Y-119799311D01*
X137930500Y-119799311D01*
X137930500Y-119680689D01*
X137930499Y-119680688D01*
X137899800Y-119566117D01*
X137899798Y-119566112D01*
X137840491Y-119463390D01*
X137840490Y-119463389D01*
X137840489Y-119463387D01*
X137756613Y-119379511D01*
X137756610Y-119379509D01*
X137756609Y-119379508D01*
X137683055Y-119337042D01*
X137648577Y-119292109D01*
X137648577Y-119253804D01*
X137660500Y-119209309D01*
X137660500Y-119090691D01*
X137660500Y-119090689D01*
X137660499Y-119090688D01*
X137629800Y-118976117D01*
X137629798Y-118976112D01*
X137570491Y-118873390D01*
X137570490Y-118873389D01*
X137570489Y-118873387D01*
X137486613Y-118789511D01*
X137486610Y-118789509D01*
X137486609Y-118789508D01*
X137383887Y-118730201D01*
X137383882Y-118730199D01*
X137269311Y-118699500D01*
X137269309Y-118699500D01*
X137202858Y-118699500D01*
X137177422Y-118688964D01*
X137151756Y-118679022D01*
X137151383Y-118678178D01*
X137150532Y-118677826D01*
X137139995Y-118652387D01*
X137128878Y-118627211D01*
X137129216Y-118626365D01*
X137128858Y-118625500D01*
X137149336Y-118574398D01*
X137149930Y-118573775D01*
X137184021Y-118539685D01*
X137185201Y-118536833D01*
X137192050Y-118529661D01*
X137197085Y-118527437D01*
X137208571Y-118516678D01*
X137236613Y-118500489D01*
X137320489Y-118416613D01*
X137379799Y-118313886D01*
X137410499Y-118199311D01*
X137410500Y-118199311D01*
X137410500Y-118080689D01*
X137410499Y-118080688D01*
X137379800Y-117966117D01*
X137379798Y-117966112D01*
X137320491Y-117863390D01*
X137320490Y-117863389D01*
X137320489Y-117863387D01*
X137236613Y-117779511D01*
X137236610Y-117779509D01*
X137236609Y-117779508D01*
X137133887Y-117720201D01*
X137133882Y-117720199D01*
X137019311Y-117689500D01*
X137019309Y-117689500D01*
X136900691Y-117689500D01*
X136900689Y-117689500D01*
X136786117Y-117720199D01*
X136786112Y-117720201D01*
X136683390Y-117779508D01*
X136599508Y-117863390D01*
X136540201Y-117966112D01*
X136540199Y-117966117D01*
X136509500Y-118080688D01*
X136509500Y-118199311D01*
X136540199Y-118313882D01*
X136540201Y-118313887D01*
X136556540Y-118342186D01*
X136563933Y-118398338D01*
X136544780Y-118431512D01*
X136386826Y-118589467D01*
X136334500Y-118611141D01*
X136282174Y-118589467D01*
X136260500Y-118537141D01*
X136260500Y-118440689D01*
X136260499Y-118440688D01*
X136229800Y-118326117D01*
X136229798Y-118326112D01*
X136170491Y-118223390D01*
X136170490Y-118223389D01*
X136170489Y-118223387D01*
X136086613Y-118139511D01*
X136086610Y-118139509D01*
X136086609Y-118139508D01*
X135983887Y-118080201D01*
X135983882Y-118080199D01*
X135869311Y-118049500D01*
X135869309Y-118049500D01*
X135750691Y-118049500D01*
X135750689Y-118049500D01*
X135636117Y-118080199D01*
X135636112Y-118080201D01*
X135533390Y-118139508D01*
X135533387Y-118139510D01*
X135533387Y-118139511D01*
X135458821Y-118214076D01*
X135406497Y-118235750D01*
X122190108Y-118235750D01*
X122137782Y-118214076D01*
X121822174Y-117898468D01*
X121800500Y-117846142D01*
X121800500Y-117740689D01*
X121800499Y-117740688D01*
X121797503Y-117729508D01*
X121769799Y-117626114D01*
X121768510Y-117623882D01*
X121710491Y-117523390D01*
X121710490Y-117523389D01*
X121710489Y-117523387D01*
X121626613Y-117439511D01*
X121626610Y-117439509D01*
X121626609Y-117439508D01*
X121523887Y-117380201D01*
X121523882Y-117380199D01*
X121409311Y-117349500D01*
X121409309Y-117349500D01*
X121303858Y-117349500D01*
X121251532Y-117327826D01*
X119714394Y-115790688D01*
X125379500Y-115790688D01*
X125379500Y-115909311D01*
X125410199Y-116023882D01*
X125410201Y-116023887D01*
X125469508Y-116126609D01*
X125469509Y-116126610D01*
X125469511Y-116126613D01*
X125553387Y-116210489D01*
X125656114Y-116269799D01*
X125656115Y-116269799D01*
X125656117Y-116269800D01*
X125713402Y-116285149D01*
X125770688Y-116300499D01*
X125770689Y-116300500D01*
X125770691Y-116300500D01*
X125889311Y-116300500D01*
X125889311Y-116300499D01*
X126003886Y-116269799D01*
X126106613Y-116210489D01*
X126190489Y-116126613D01*
X126249799Y-116023886D01*
X126280499Y-115909311D01*
X126280500Y-115909311D01*
X126280500Y-115790689D01*
X126280499Y-115790688D01*
X126249800Y-115676117D01*
X126249798Y-115676112D01*
X126190491Y-115573390D01*
X126190490Y-115573389D01*
X126190489Y-115573387D01*
X126106613Y-115489511D01*
X126106610Y-115489509D01*
X126106609Y-115489508D01*
X126003887Y-115430201D01*
X126003882Y-115430199D01*
X125889311Y-115399500D01*
X125889309Y-115399500D01*
X125770691Y-115399500D01*
X125770689Y-115399500D01*
X125656117Y-115430199D01*
X125656112Y-115430201D01*
X125553390Y-115489508D01*
X125469508Y-115573390D01*
X125410201Y-115676112D01*
X125410199Y-115676117D01*
X125379500Y-115790688D01*
X119714394Y-115790688D01*
X118702174Y-114778468D01*
X118680500Y-114726142D01*
X118680500Y-114620689D01*
X118680499Y-114620688D01*
X118675089Y-114600499D01*
X118649799Y-114506114D01*
X118625419Y-114463887D01*
X118590491Y-114403390D01*
X118590490Y-114403389D01*
X118590489Y-114403387D01*
X118506613Y-114319511D01*
X118506610Y-114319509D01*
X118506609Y-114319508D01*
X118403887Y-114260201D01*
X118403882Y-114260199D01*
X118289311Y-114229500D01*
X118289309Y-114229500D01*
X118170691Y-114229500D01*
X118170689Y-114229500D01*
X118056117Y-114260199D01*
X118056112Y-114260201D01*
X117953390Y-114319508D01*
X117869508Y-114403390D01*
X117810201Y-114506112D01*
X117810199Y-114506117D01*
X117779500Y-114620688D01*
X108141414Y-114620688D01*
X108200489Y-114561613D01*
X108259799Y-114458886D01*
X108290499Y-114344311D01*
X108290500Y-114344311D01*
X108290500Y-114225689D01*
X108290499Y-114225688D01*
X108259800Y-114111117D01*
X108259798Y-114111112D01*
X108200491Y-114008390D01*
X108200490Y-114008389D01*
X108200489Y-114008387D01*
X108116613Y-113924511D01*
X108116610Y-113924509D01*
X108116609Y-113924508D01*
X108013887Y-113865201D01*
X108013882Y-113865199D01*
X107899311Y-113834500D01*
X107899309Y-113834500D01*
X107780691Y-113834500D01*
X107780689Y-113834500D01*
X107666117Y-113865199D01*
X107666112Y-113865201D01*
X107563390Y-113924508D01*
X107563387Y-113924510D01*
X107563387Y-113924511D01*
X107517324Y-113970573D01*
X107465000Y-113992247D01*
X107412675Y-113970573D01*
X107366613Y-113924511D01*
X107366610Y-113924509D01*
X107366609Y-113924508D01*
X107263887Y-113865201D01*
X107263882Y-113865199D01*
X107149311Y-113834500D01*
X107149309Y-113834500D01*
X107030691Y-113834500D01*
X107030689Y-113834500D01*
X106916117Y-113865199D01*
X106916112Y-113865201D01*
X106813390Y-113924508D01*
X106729508Y-114008390D01*
X106670201Y-114111112D01*
X106670199Y-114111117D01*
X106639500Y-114225688D01*
X102500500Y-114225688D01*
X102500500Y-113200688D01*
X109659500Y-113200688D01*
X109659500Y-113319311D01*
X109690199Y-113433882D01*
X109690201Y-113433887D01*
X109749508Y-113536609D01*
X109749509Y-113536610D01*
X109749511Y-113536613D01*
X109833387Y-113620489D01*
X109833389Y-113620490D01*
X109833390Y-113620491D01*
X109936112Y-113679798D01*
X109936114Y-113679799D01*
X109936115Y-113679799D01*
X109936117Y-113679800D01*
X109993402Y-113695149D01*
X110050688Y-113710499D01*
X110050689Y-113710500D01*
X110050691Y-113710500D01*
X110169311Y-113710500D01*
X110169311Y-113710499D01*
X110283886Y-113679799D01*
X110386613Y-113620489D01*
X110470489Y-113536613D01*
X110529799Y-113433886D01*
X110560499Y-113319311D01*
X110560500Y-113319311D01*
X110560500Y-113200689D01*
X110560499Y-113200688D01*
X110529800Y-113086117D01*
X110529798Y-113086112D01*
X110470491Y-112983390D01*
X110470490Y-112983389D01*
X110470489Y-112983387D01*
X110386613Y-112899511D01*
X110386610Y-112899509D01*
X110386609Y-112899508D01*
X110283887Y-112840201D01*
X110283882Y-112840199D01*
X110169311Y-112809500D01*
X110169309Y-112809500D01*
X110050691Y-112809500D01*
X110050689Y-112809500D01*
X109936117Y-112840199D01*
X109936112Y-112840201D01*
X109833390Y-112899508D01*
X109749508Y-112983390D01*
X109690201Y-113086112D01*
X109690199Y-113086117D01*
X109659500Y-113200688D01*
X102500500Y-113200688D01*
X102500500Y-111910688D01*
X116139500Y-111910688D01*
X116139500Y-112029311D01*
X116170199Y-112143882D01*
X116170201Y-112143887D01*
X116229508Y-112246609D01*
X116229509Y-112246610D01*
X116229511Y-112246613D01*
X116313387Y-112330489D01*
X116313389Y-112330490D01*
X116313390Y-112330491D01*
X116416112Y-112389798D01*
X116416114Y-112389799D01*
X116416115Y-112389799D01*
X116416117Y-112389800D01*
X116473402Y-112405149D01*
X116530688Y-112420499D01*
X116530689Y-112420500D01*
X116530691Y-112420500D01*
X116649311Y-112420500D01*
X116649311Y-112420499D01*
X116763886Y-112389799D01*
X116866613Y-112330489D01*
X116950489Y-112246613D01*
X117009799Y-112143886D01*
X117040499Y-112029311D01*
X117040500Y-112029311D01*
X117040500Y-111910689D01*
X117040499Y-111910688D01*
X117040448Y-111910499D01*
X117009799Y-111796114D01*
X116975446Y-111736613D01*
X116950491Y-111693390D01*
X116950490Y-111693389D01*
X116950489Y-111693387D01*
X116866613Y-111609511D01*
X116866610Y-111609509D01*
X116866609Y-111609508D01*
X116763887Y-111550201D01*
X116763882Y-111550199D01*
X116649311Y-111519500D01*
X116649309Y-111519500D01*
X116530691Y-111519500D01*
X116530689Y-111519500D01*
X116416117Y-111550199D01*
X116416112Y-111550201D01*
X116313390Y-111609508D01*
X116229508Y-111693390D01*
X116170201Y-111796112D01*
X116170199Y-111796117D01*
X116139500Y-111910688D01*
X102500500Y-111910688D01*
X102500500Y-109400688D01*
X119449500Y-109400688D01*
X119449500Y-109519311D01*
X119480199Y-109633882D01*
X119480201Y-109633887D01*
X119539508Y-109736609D01*
X119539509Y-109736610D01*
X119539511Y-109736613D01*
X119623387Y-109820489D01*
X119623389Y-109820490D01*
X119623390Y-109820491D01*
X119690628Y-109859311D01*
X119726114Y-109879799D01*
X119726115Y-109879799D01*
X119726117Y-109879800D01*
X119769230Y-109891352D01*
X119840688Y-109910499D01*
X119840689Y-109910500D01*
X119840691Y-109910500D01*
X119959311Y-109910500D01*
X119959311Y-109910499D01*
X120073886Y-109879799D01*
X120176613Y-109820489D01*
X120256414Y-109740688D01*
X120699500Y-109740688D01*
X120699500Y-109859311D01*
X120730199Y-109973882D01*
X120730201Y-109973887D01*
X120789508Y-110076609D01*
X120789509Y-110076610D01*
X120789511Y-110076613D01*
X120873387Y-110160489D01*
X120873389Y-110160490D01*
X120873390Y-110160491D01*
X120952068Y-110205916D01*
X120976114Y-110219799D01*
X120976115Y-110219799D01*
X120976117Y-110219800D01*
X121033402Y-110235149D01*
X121090688Y-110250499D01*
X121090689Y-110250500D01*
X121090691Y-110250500D01*
X121209311Y-110250500D01*
X121209311Y-110250499D01*
X121323886Y-110219799D01*
X121426613Y-110160489D01*
X121504374Y-110082727D01*
X121556697Y-110061055D01*
X121609023Y-110082729D01*
X127129076Y-115602782D01*
X127150750Y-115655108D01*
X127150750Y-117021497D01*
X127129076Y-117073821D01*
X127072645Y-117130253D01*
X127054508Y-117148390D01*
X126995201Y-117251112D01*
X126995199Y-117251117D01*
X126964500Y-117365688D01*
X126964500Y-117484311D01*
X126995199Y-117598882D01*
X126995201Y-117598887D01*
X127054508Y-117701609D01*
X127054509Y-117701610D01*
X127054511Y-117701613D01*
X127138387Y-117785489D01*
X127138389Y-117785490D01*
X127138390Y-117785491D01*
X127241112Y-117844798D01*
X127241114Y-117844799D01*
X127241115Y-117844799D01*
X127241117Y-117844800D01*
X127295266Y-117859309D01*
X127355688Y-117875499D01*
X127355689Y-117875500D01*
X127355691Y-117875500D01*
X127474311Y-117875500D01*
X127474311Y-117875499D01*
X127588886Y-117844799D01*
X127691613Y-117785489D01*
X127775489Y-117701613D01*
X127834799Y-117598886D01*
X127865499Y-117484311D01*
X127865500Y-117484311D01*
X127865500Y-117390688D01*
X131009500Y-117390688D01*
X131009500Y-117509311D01*
X131040199Y-117623882D01*
X131040201Y-117623887D01*
X131099508Y-117726609D01*
X131099509Y-117726610D01*
X131099511Y-117726613D01*
X131183387Y-117810489D01*
X131183389Y-117810490D01*
X131183390Y-117810491D01*
X131242811Y-117844798D01*
X131286114Y-117869799D01*
X131286115Y-117869799D01*
X131286117Y-117869800D01*
X131307390Y-117875500D01*
X131400688Y-117900499D01*
X131400689Y-117900500D01*
X131400691Y-117900500D01*
X131519311Y-117900500D01*
X131519311Y-117900499D01*
X131633886Y-117869799D01*
X131736613Y-117810489D01*
X131820489Y-117726613D01*
X131879799Y-117623886D01*
X131910499Y-117509311D01*
X131910500Y-117509311D01*
X131910500Y-117390689D01*
X131910499Y-117390688D01*
X131907688Y-117380199D01*
X131879799Y-117276114D01*
X131844399Y-117214800D01*
X131820491Y-117173390D01*
X131820490Y-117173389D01*
X131820489Y-117173387D01*
X131736613Y-117089511D01*
X131736610Y-117089509D01*
X131736609Y-117089508D01*
X131633887Y-117030201D01*
X131633882Y-117030199D01*
X131519311Y-116999500D01*
X131519309Y-116999500D01*
X131400691Y-116999500D01*
X131400689Y-116999500D01*
X131286117Y-117030199D01*
X131286112Y-117030201D01*
X131183390Y-117089508D01*
X131099508Y-117173390D01*
X131040201Y-117276112D01*
X131040199Y-117276117D01*
X131009500Y-117390688D01*
X127865500Y-117390688D01*
X127865500Y-117365689D01*
X127865499Y-117365688D01*
X127864106Y-117360491D01*
X127850149Y-117308402D01*
X127834800Y-117251117D01*
X127834798Y-117251112D01*
X127775491Y-117148390D01*
X127775490Y-117148389D01*
X127775489Y-117148387D01*
X127700923Y-117073821D01*
X127679250Y-117021497D01*
X127679250Y-115462437D01*
X127655920Y-115406114D01*
X127655920Y-115406113D01*
X127639022Y-115365317D01*
X127639020Y-115365314D01*
X126364394Y-114090688D01*
X131489500Y-114090688D01*
X131489500Y-114209311D01*
X131520199Y-114323882D01*
X131520201Y-114323887D01*
X131579508Y-114426609D01*
X131579509Y-114426610D01*
X131579511Y-114426613D01*
X131663387Y-114510489D01*
X131663389Y-114510490D01*
X131663390Y-114510491D01*
X131766112Y-114569798D01*
X131766114Y-114569799D01*
X131766115Y-114569799D01*
X131766117Y-114569800D01*
X131823402Y-114585149D01*
X131880688Y-114600499D01*
X131880689Y-114600500D01*
X131880691Y-114600500D01*
X131999311Y-114600500D01*
X131999311Y-114600499D01*
X132113886Y-114569799D01*
X132216613Y-114510489D01*
X132300489Y-114426613D01*
X132359799Y-114323886D01*
X132384771Y-114230688D01*
X142019500Y-114230688D01*
X142019500Y-114349311D01*
X142050199Y-114463882D01*
X142050201Y-114463887D01*
X142109508Y-114566609D01*
X142109509Y-114566610D01*
X142109511Y-114566613D01*
X142193387Y-114650489D01*
X142193389Y-114650490D01*
X142193390Y-114650491D01*
X142296112Y-114709798D01*
X142296114Y-114709799D01*
X142296115Y-114709799D01*
X142296117Y-114709800D01*
X142353402Y-114725149D01*
X142410688Y-114740499D01*
X142410689Y-114740500D01*
X142410691Y-114740500D01*
X142529311Y-114740500D01*
X142529311Y-114740499D01*
X142643886Y-114709799D01*
X142746613Y-114650489D01*
X142830489Y-114566613D01*
X142889799Y-114463886D01*
X142920499Y-114349311D01*
X142920500Y-114349311D01*
X142920500Y-114230689D01*
X142920499Y-114230688D01*
X142889800Y-114116117D01*
X142889797Y-114116109D01*
X142854896Y-114055661D01*
X142847502Y-113999508D01*
X142854896Y-113981659D01*
X142858098Y-113976114D01*
X142899799Y-113903886D01*
X142930499Y-113789311D01*
X142930500Y-113789311D01*
X142930500Y-113670689D01*
X142930499Y-113670688D01*
X142899800Y-113556117D01*
X142899798Y-113556112D01*
X142840491Y-113453390D01*
X142840490Y-113453389D01*
X142840489Y-113453387D01*
X142756613Y-113369511D01*
X142756610Y-113369509D01*
X142756609Y-113369508D01*
X142653887Y-113310201D01*
X142653882Y-113310199D01*
X142539311Y-113279500D01*
X142539309Y-113279500D01*
X142420691Y-113279500D01*
X142420689Y-113279500D01*
X142306117Y-113310199D01*
X142306112Y-113310201D01*
X142203390Y-113369508D01*
X142119508Y-113453390D01*
X142060201Y-113556112D01*
X142060199Y-113556117D01*
X142029500Y-113670688D01*
X142029500Y-113789311D01*
X142060199Y-113903882D01*
X142060201Y-113903887D01*
X142095104Y-113964339D01*
X142102497Y-114020491D01*
X142095104Y-114038339D01*
X142050201Y-114116112D01*
X142050199Y-114116117D01*
X142019500Y-114230688D01*
X132384771Y-114230688D01*
X132390499Y-114209311D01*
X132390500Y-114209311D01*
X132390500Y-114090689D01*
X132390499Y-114090688D01*
X132359800Y-113976117D01*
X132359798Y-113976112D01*
X132300491Y-113873390D01*
X132300490Y-113873389D01*
X132300489Y-113873387D01*
X132216613Y-113789511D01*
X132216610Y-113789509D01*
X132216609Y-113789508D01*
X132113887Y-113730201D01*
X132113882Y-113730199D01*
X131999311Y-113699500D01*
X131999309Y-113699500D01*
X131880691Y-113699500D01*
X131880689Y-113699500D01*
X131766117Y-113730199D01*
X131766112Y-113730201D01*
X131663390Y-113789508D01*
X131579508Y-113873390D01*
X131520201Y-113976112D01*
X131520199Y-113976117D01*
X131489500Y-114090688D01*
X126364394Y-114090688D01*
X122531274Y-110257568D01*
X122509600Y-110205242D01*
X122531274Y-110152916D01*
X122564444Y-110133764D01*
X122653886Y-110109799D01*
X122756613Y-110050489D01*
X122805089Y-110002012D01*
X122857413Y-109980338D01*
X122909739Y-110002012D01*
X122925781Y-110026019D01*
X122936945Y-110052971D01*
X122942376Y-110066082D01*
X126105980Y-113229686D01*
X126180314Y-113304020D01*
X126277437Y-113344250D01*
X126277438Y-113344250D01*
X126382562Y-113344250D01*
X127556497Y-113344250D01*
X127608821Y-113365923D01*
X127683387Y-113440489D01*
X127683389Y-113440490D01*
X127683390Y-113440491D01*
X127705732Y-113453390D01*
X127786114Y-113499799D01*
X127786115Y-113499799D01*
X127786117Y-113499800D01*
X127843402Y-113515149D01*
X127900688Y-113530499D01*
X127900689Y-113530500D01*
X127900691Y-113530500D01*
X128019311Y-113530500D01*
X128019311Y-113530499D01*
X128133886Y-113499799D01*
X128236613Y-113440489D01*
X128320489Y-113356613D01*
X128379799Y-113253886D01*
X128410499Y-113139311D01*
X128410500Y-113139311D01*
X128410500Y-113020689D01*
X128410499Y-113020688D01*
X128379800Y-112906117D01*
X128379798Y-112906112D01*
X128320491Y-112803390D01*
X128320490Y-112803389D01*
X128320489Y-112803387D01*
X128236613Y-112719511D01*
X128236610Y-112719509D01*
X128236609Y-112719508D01*
X128133887Y-112660201D01*
X128133882Y-112660199D01*
X128019311Y-112629500D01*
X128019309Y-112629500D01*
X127900691Y-112629500D01*
X127900689Y-112629500D01*
X127786117Y-112660199D01*
X127786112Y-112660201D01*
X127683390Y-112719508D01*
X127683387Y-112719510D01*
X127683387Y-112719511D01*
X127608821Y-112794076D01*
X127556497Y-112815750D01*
X126470108Y-112815750D01*
X126417782Y-112794076D01*
X126044394Y-112420688D01*
X131579500Y-112420688D01*
X131579500Y-112539311D01*
X131610199Y-112653882D01*
X131610201Y-112653887D01*
X131669508Y-112756609D01*
X131669509Y-112756610D01*
X131669511Y-112756613D01*
X131753387Y-112840489D01*
X131856114Y-112899799D01*
X131856115Y-112899799D01*
X131856117Y-112899800D01*
X131879693Y-112906117D01*
X131970688Y-112930499D01*
X131970689Y-112930500D01*
X131970691Y-112930500D01*
X132089311Y-112930500D01*
X132089311Y-112930499D01*
X132203886Y-112899799D01*
X132306613Y-112840489D01*
X132390489Y-112756613D01*
X132449799Y-112653886D01*
X132480499Y-112539311D01*
X132480500Y-112539311D01*
X132480500Y-112420689D01*
X132480499Y-112420688D01*
X132480448Y-112420499D01*
X132449799Y-112306114D01*
X132446553Y-112300491D01*
X132390491Y-112203390D01*
X132390490Y-112203389D01*
X132390489Y-112203387D01*
X132306613Y-112119511D01*
X132306610Y-112119509D01*
X132306609Y-112119508D01*
X132203887Y-112060201D01*
X132203882Y-112060199D01*
X132089311Y-112029500D01*
X132089309Y-112029500D01*
X131970691Y-112029500D01*
X131970689Y-112029500D01*
X131856117Y-112060199D01*
X131856112Y-112060201D01*
X131753390Y-112119508D01*
X131669508Y-112203390D01*
X131610201Y-112306112D01*
X131610199Y-112306117D01*
X131579500Y-112420688D01*
X126044394Y-112420688D01*
X125954282Y-112330576D01*
X125932608Y-112278250D01*
X125954282Y-112225924D01*
X126006608Y-112204250D01*
X126102562Y-112204250D01*
X127936497Y-112204250D01*
X127988821Y-112225923D01*
X128063387Y-112300489D01*
X128063389Y-112300490D01*
X128063390Y-112300491D01*
X128166112Y-112359798D01*
X128166114Y-112359799D01*
X128166115Y-112359799D01*
X128166117Y-112359800D01*
X128223402Y-112375149D01*
X128280688Y-112390499D01*
X128280689Y-112390500D01*
X128280691Y-112390500D01*
X128399311Y-112390500D01*
X128399311Y-112390499D01*
X128513886Y-112359799D01*
X128522098Y-112355057D01*
X128527819Y-112351755D01*
X128606870Y-112306114D01*
X128616613Y-112300489D01*
X128700489Y-112216613D01*
X128759799Y-112113886D01*
X128790499Y-111999311D01*
X128790500Y-111999311D01*
X128790500Y-111984500D01*
X128812174Y-111932174D01*
X128864500Y-111910500D01*
X128899311Y-111910500D01*
X128899311Y-111910499D01*
X129013886Y-111879799D01*
X129116613Y-111820489D01*
X129200489Y-111736613D01*
X129259799Y-111633886D01*
X129290499Y-111519311D01*
X129290500Y-111519311D01*
X129290500Y-111474500D01*
X129312174Y-111422174D01*
X129364500Y-111400500D01*
X129389311Y-111400500D01*
X129389311Y-111400499D01*
X129503886Y-111369799D01*
X129606613Y-111310489D01*
X129690489Y-111226613D01*
X129749799Y-111123886D01*
X129780499Y-111009311D01*
X129780500Y-111009311D01*
X129780500Y-111004500D01*
X129802174Y-110952174D01*
X129854500Y-110930500D01*
X129969311Y-110930500D01*
X129969311Y-110930499D01*
X130083886Y-110899799D01*
X130186613Y-110840489D01*
X130270489Y-110756613D01*
X130329799Y-110653886D01*
X130360499Y-110539311D01*
X130360500Y-110539311D01*
X130360500Y-110420689D01*
X130360499Y-110420688D01*
X130329800Y-110306117D01*
X130329798Y-110306112D01*
X130270491Y-110203390D01*
X130270490Y-110203389D01*
X130270489Y-110203387D01*
X130186613Y-110119511D01*
X130186610Y-110119509D01*
X130186609Y-110119508D01*
X130083887Y-110060201D01*
X130083882Y-110060199D01*
X129969311Y-110029500D01*
X129969309Y-110029500D01*
X129850691Y-110029500D01*
X129850689Y-110029500D01*
X129736117Y-110060199D01*
X129736112Y-110060201D01*
X129633390Y-110119508D01*
X129633387Y-110119510D01*
X129633387Y-110119511D01*
X129558821Y-110194076D01*
X129506497Y-110215750D01*
X129151186Y-110215750D01*
X129098860Y-110194076D01*
X129077186Y-110141750D01*
X129098860Y-110089424D01*
X129114187Y-110077664D01*
X129125118Y-110071352D01*
X129126613Y-110070489D01*
X129210489Y-109986613D01*
X129269799Y-109883886D01*
X129300499Y-109769311D01*
X129300500Y-109769311D01*
X129300500Y-109650689D01*
X129300499Y-109650688D01*
X129293914Y-109626114D01*
X129269799Y-109536114D01*
X129216263Y-109443387D01*
X129210491Y-109433390D01*
X129210490Y-109433389D01*
X129210489Y-109433387D01*
X129126613Y-109349511D01*
X129126610Y-109349509D01*
X129126609Y-109349508D01*
X129023887Y-109290201D01*
X129023882Y-109290199D01*
X128909311Y-109259500D01*
X128909309Y-109259500D01*
X128790691Y-109259500D01*
X128723403Y-109277530D01*
X128667250Y-109270137D01*
X128632771Y-109225204D01*
X128631397Y-109204159D01*
X128630500Y-109204159D01*
X128630500Y-109080689D01*
X128630499Y-109080688D01*
X128599800Y-108966117D01*
X128599798Y-108966112D01*
X128540491Y-108863390D01*
X128540490Y-108863389D01*
X128540489Y-108863387D01*
X128456613Y-108779511D01*
X128456610Y-108779509D01*
X128456609Y-108779508D01*
X128372051Y-108730688D01*
X129019500Y-108730688D01*
X129019500Y-108849311D01*
X129050199Y-108963882D01*
X129050201Y-108963887D01*
X129109508Y-109066609D01*
X129109509Y-109066610D01*
X129109511Y-109066613D01*
X129193387Y-109150489D01*
X129193389Y-109150490D01*
X129193390Y-109150491D01*
X129286345Y-109204159D01*
X129296114Y-109209799D01*
X129296115Y-109209799D01*
X129296117Y-109209800D01*
X129336121Y-109220519D01*
X129410688Y-109240499D01*
X129410689Y-109240500D01*
X129410691Y-109240500D01*
X129529311Y-109240500D01*
X129529311Y-109240499D01*
X129643886Y-109209799D01*
X129746613Y-109150489D01*
X129830489Y-109066613D01*
X129889799Y-108963886D01*
X129920499Y-108849311D01*
X129920500Y-108849311D01*
X129920500Y-108730689D01*
X129920499Y-108730688D01*
X129917688Y-108720199D01*
X129896068Y-108639511D01*
X129889800Y-108616117D01*
X129889798Y-108616112D01*
X129830491Y-108513390D01*
X129830490Y-108513389D01*
X129830489Y-108513387D01*
X129746613Y-108429511D01*
X129746610Y-108429509D01*
X129746609Y-108429508D01*
X129643887Y-108370201D01*
X129643882Y-108370199D01*
X129529311Y-108339500D01*
X129529309Y-108339500D01*
X129410691Y-108339500D01*
X129410689Y-108339500D01*
X129296117Y-108370199D01*
X129296112Y-108370201D01*
X129193390Y-108429508D01*
X129109508Y-108513390D01*
X129050201Y-108616112D01*
X129050199Y-108616117D01*
X129019500Y-108730688D01*
X128372051Y-108730688D01*
X128353887Y-108720201D01*
X128353882Y-108720199D01*
X128239311Y-108689500D01*
X128239309Y-108689500D01*
X128120691Y-108689500D01*
X128120689Y-108689500D01*
X128006117Y-108720199D01*
X128006112Y-108720201D01*
X127903390Y-108779508D01*
X127819508Y-108863390D01*
X127760201Y-108966112D01*
X127760199Y-108966117D01*
X127729500Y-109080688D01*
X127729500Y-109199314D01*
X127729754Y-109200261D01*
X127729689Y-109200750D01*
X127730133Y-109204120D01*
X127729229Y-109204238D01*
X127722356Y-109256413D01*
X127677420Y-109290887D01*
X127639121Y-109290885D01*
X127559311Y-109269500D01*
X127559309Y-109269500D01*
X127440691Y-109269500D01*
X127404932Y-109279081D01*
X127348779Y-109271687D01*
X127314301Y-109226754D01*
X127320530Y-109179441D01*
X127317942Y-109178369D01*
X127319796Y-109173890D01*
X127319799Y-109173886D01*
X127350499Y-109059311D01*
X127350500Y-109059311D01*
X127350500Y-108940689D01*
X127350499Y-108940688D01*
X127347934Y-108931117D01*
X127319799Y-108826114D01*
X127306679Y-108803390D01*
X127260491Y-108723390D01*
X127260490Y-108723389D01*
X127260489Y-108723387D01*
X127176613Y-108639511D01*
X127176610Y-108639509D01*
X127176609Y-108639508D01*
X127073887Y-108580201D01*
X127073882Y-108580199D01*
X126959311Y-108549500D01*
X126959309Y-108549500D01*
X126840691Y-108549500D01*
X126840689Y-108549500D01*
X126726117Y-108580199D01*
X126726112Y-108580201D01*
X126623390Y-108639508D01*
X126539508Y-108723390D01*
X126480201Y-108826112D01*
X126480199Y-108826117D01*
X126449500Y-108940688D01*
X126449500Y-109059311D01*
X126453772Y-109075257D01*
X126446378Y-109131409D01*
X126401443Y-109165886D01*
X126363140Y-109165885D01*
X126339311Y-109159500D01*
X126339309Y-109159500D01*
X126220691Y-109159500D01*
X126178652Y-109170764D01*
X126122500Y-109163371D01*
X126088021Y-109118437D01*
X126085500Y-109099285D01*
X126085500Y-109020689D01*
X126085499Y-109020688D01*
X126054800Y-108906117D01*
X126054798Y-108906112D01*
X125995491Y-108803390D01*
X125995490Y-108803389D01*
X125995489Y-108803387D01*
X125911613Y-108719511D01*
X125911610Y-108719509D01*
X125911609Y-108719508D01*
X125808887Y-108660201D01*
X125808882Y-108660199D01*
X125694311Y-108629500D01*
X125694309Y-108629500D01*
X125575691Y-108629500D01*
X125575689Y-108629500D01*
X125461117Y-108660199D01*
X125461112Y-108660201D01*
X125358390Y-108719508D01*
X125274508Y-108803390D01*
X125215201Y-108906112D01*
X125215199Y-108906117D01*
X125184500Y-109020688D01*
X125184500Y-109139311D01*
X125198026Y-109189791D01*
X125190634Y-109245944D01*
X125145701Y-109280422D01*
X125107396Y-109280423D01*
X125029309Y-109259500D01*
X124910691Y-109259500D01*
X124910690Y-109259500D01*
X124860875Y-109272847D01*
X124804723Y-109265453D01*
X124770245Y-109220519D01*
X124770245Y-109182217D01*
X124798906Y-109075257D01*
X124800500Y-109069310D01*
X124800500Y-108950689D01*
X124800499Y-108950688D01*
X124769800Y-108836117D01*
X124769798Y-108836112D01*
X124710491Y-108733390D01*
X124710490Y-108733389D01*
X124710489Y-108733387D01*
X124626613Y-108649511D01*
X124626610Y-108649509D01*
X124626609Y-108649508D01*
X124523887Y-108590201D01*
X124523882Y-108590199D01*
X124409311Y-108559500D01*
X124409309Y-108559500D01*
X124290691Y-108559500D01*
X124290689Y-108559500D01*
X124176117Y-108590199D01*
X124176112Y-108590201D01*
X124073390Y-108649508D01*
X123989508Y-108733390D01*
X123930201Y-108836112D01*
X123930199Y-108836117D01*
X123899500Y-108950688D01*
X123899500Y-109069311D01*
X123918257Y-109139311D01*
X123927521Y-109173886D01*
X123928181Y-109176347D01*
X123920789Y-109232500D01*
X123875856Y-109266978D01*
X123856703Y-109269500D01*
X123740689Y-109269500D01*
X123644690Y-109295223D01*
X123588537Y-109287831D01*
X123554059Y-109242898D01*
X123561451Y-109186745D01*
X123567454Y-109176347D01*
X123586196Y-109143886D01*
X123616896Y-109029311D01*
X123616897Y-109029311D01*
X123616897Y-108910689D01*
X123616896Y-108910688D01*
X123615670Y-108906114D01*
X123596914Y-108836114D01*
X123586197Y-108796117D01*
X123586195Y-108796112D01*
X123526888Y-108693390D01*
X123526887Y-108693389D01*
X123526886Y-108693387D01*
X123443010Y-108609511D01*
X123443007Y-108609509D01*
X123443006Y-108609508D01*
X123340284Y-108550201D01*
X123340279Y-108550199D01*
X123225708Y-108519500D01*
X123225706Y-108519500D01*
X123107088Y-108519500D01*
X123107086Y-108519500D01*
X122992514Y-108550199D01*
X122992509Y-108550201D01*
X122889787Y-108609508D01*
X122805905Y-108693390D01*
X122746598Y-108796112D01*
X122746596Y-108796117D01*
X122715897Y-108910688D01*
X122715897Y-109029311D01*
X122746596Y-109143882D01*
X122746600Y-109143891D01*
X122764259Y-109174478D01*
X122771651Y-109230631D01*
X122737172Y-109275563D01*
X122681019Y-109282955D01*
X122663172Y-109275562D01*
X122653889Y-109270202D01*
X122653882Y-109270199D01*
X122539311Y-109239500D01*
X122539309Y-109239500D01*
X122420691Y-109239500D01*
X122366367Y-109254056D01*
X122310215Y-109246663D01*
X122275736Y-109201729D01*
X122275739Y-109169234D01*
X122274867Y-109169120D01*
X122275500Y-109164311D01*
X122275500Y-109045689D01*
X122275499Y-109045688D01*
X122244800Y-108931117D01*
X122244798Y-108931112D01*
X122185491Y-108828390D01*
X122185490Y-108828389D01*
X122185489Y-108828387D01*
X122101613Y-108744511D01*
X122101610Y-108744509D01*
X122101609Y-108744508D01*
X121998887Y-108685201D01*
X121998882Y-108685199D01*
X121884311Y-108654500D01*
X121884309Y-108654500D01*
X121765691Y-108654500D01*
X121765689Y-108654500D01*
X121651117Y-108685199D01*
X121651112Y-108685201D01*
X121548390Y-108744508D01*
X121464508Y-108828390D01*
X121405201Y-108931112D01*
X121405199Y-108931117D01*
X121374500Y-109045688D01*
X121374500Y-109164311D01*
X121406456Y-109283571D01*
X121405133Y-109283925D01*
X121405132Y-109335362D01*
X121365082Y-109375409D01*
X121317614Y-109378520D01*
X121209309Y-109349500D01*
X121090691Y-109349500D01*
X121090689Y-109349500D01*
X120976117Y-109380199D01*
X120976112Y-109380201D01*
X120873390Y-109439508D01*
X120789508Y-109523390D01*
X120730201Y-109626112D01*
X120730199Y-109626117D01*
X120699500Y-109740688D01*
X120256414Y-109740688D01*
X120260489Y-109736613D01*
X120319799Y-109633886D01*
X120350499Y-109519311D01*
X120350500Y-109519311D01*
X120350500Y-109400689D01*
X120350499Y-109400688D01*
X120319800Y-109286117D01*
X120319798Y-109286112D01*
X120260491Y-109183390D01*
X120260490Y-109183389D01*
X120260489Y-109183387D01*
X120176613Y-109099511D01*
X120176610Y-109099509D01*
X120176609Y-109099508D01*
X120073887Y-109040201D01*
X120073882Y-109040199D01*
X119959311Y-109009500D01*
X119959309Y-109009500D01*
X119840691Y-109009500D01*
X119840689Y-109009500D01*
X119726117Y-109040199D01*
X119726112Y-109040201D01*
X119623390Y-109099508D01*
X119539508Y-109183390D01*
X119480201Y-109286112D01*
X119480199Y-109286117D01*
X119449500Y-109400688D01*
X102500500Y-109400688D01*
X102500500Y-104620688D01*
X130264500Y-104620688D01*
X130264500Y-104739311D01*
X130295199Y-104853882D01*
X130295201Y-104853887D01*
X130356936Y-104960814D01*
X130355093Y-104961877D01*
X130367893Y-105009667D01*
X130355910Y-105038594D01*
X130356936Y-105039186D01*
X130295201Y-105146112D01*
X130295199Y-105146117D01*
X130264500Y-105260688D01*
X130264500Y-105379311D01*
X130295199Y-105493882D01*
X130295201Y-105493887D01*
X130354508Y-105596609D01*
X130354509Y-105596610D01*
X130354511Y-105596613D01*
X130438387Y-105680489D01*
X130541114Y-105739799D01*
X130541115Y-105739799D01*
X130541117Y-105739800D01*
X130598402Y-105755149D01*
X130655688Y-105770499D01*
X130655689Y-105770500D01*
X130655691Y-105770500D01*
X130774311Y-105770500D01*
X130774311Y-105770499D01*
X130888886Y-105739799D01*
X130991613Y-105680489D01*
X131075489Y-105596613D01*
X131134799Y-105493886D01*
X131165499Y-105379311D01*
X131165500Y-105379311D01*
X131165500Y-105260689D01*
X131165499Y-105260688D01*
X131134800Y-105146117D01*
X131134798Y-105146112D01*
X131073064Y-105039186D01*
X131074911Y-105038119D01*
X131062103Y-104990354D01*
X131074093Y-104961408D01*
X131073064Y-104960814D01*
X131134798Y-104853887D01*
X131134799Y-104853886D01*
X131165499Y-104739311D01*
X131165500Y-104739311D01*
X131165500Y-104620689D01*
X131165499Y-104620688D01*
X131134800Y-104506117D01*
X131134798Y-104506112D01*
X131075491Y-104403390D01*
X131075490Y-104403389D01*
X131075489Y-104403387D01*
X130991613Y-104319511D01*
X130991610Y-104319509D01*
X130991609Y-104319508D01*
X130888887Y-104260201D01*
X130888882Y-104260199D01*
X130774311Y-104229500D01*
X130774309Y-104229500D01*
X130655691Y-104229500D01*
X130655689Y-104229500D01*
X130541117Y-104260199D01*
X130541112Y-104260201D01*
X130438390Y-104319508D01*
X130354508Y-104403390D01*
X130295201Y-104506112D01*
X130295199Y-104506117D01*
X130264500Y-104620688D01*
X102500500Y-104620688D01*
X102500500Y-103015688D01*
X131349500Y-103015688D01*
X131349500Y-103134311D01*
X131380199Y-103248882D01*
X131380201Y-103248887D01*
X131439508Y-103351609D01*
X131439509Y-103351610D01*
X131439511Y-103351613D01*
X131523387Y-103435489D01*
X131626114Y-103494799D01*
X131626115Y-103494799D01*
X131626117Y-103494800D01*
X131683402Y-103510149D01*
X131740688Y-103525499D01*
X131740689Y-103525500D01*
X131740691Y-103525500D01*
X131859311Y-103525500D01*
X131859311Y-103525499D01*
X131973886Y-103494799D01*
X132076613Y-103435489D01*
X132110175Y-103401926D01*
X132162500Y-103380253D01*
X132214824Y-103401926D01*
X132248387Y-103435489D01*
X132351114Y-103494799D01*
X132351115Y-103494799D01*
X132351117Y-103494800D01*
X132408402Y-103510149D01*
X132465688Y-103525499D01*
X132465689Y-103525500D01*
X132465691Y-103525500D01*
X132584311Y-103525500D01*
X132584311Y-103525499D01*
X132698886Y-103494799D01*
X132801613Y-103435489D01*
X132885489Y-103351613D01*
X132944799Y-103248886D01*
X132975499Y-103134311D01*
X132975500Y-103134311D01*
X132975500Y-103015689D01*
X132975499Y-103015688D01*
X132944800Y-102901117D01*
X132944798Y-102901112D01*
X132885491Y-102798390D01*
X132885490Y-102798389D01*
X132885489Y-102798387D01*
X132801613Y-102714511D01*
X132801610Y-102714509D01*
X132801609Y-102714508D01*
X132698887Y-102655201D01*
X132698882Y-102655199D01*
X132584311Y-102624500D01*
X132584309Y-102624500D01*
X132465691Y-102624500D01*
X132465689Y-102624500D01*
X132351117Y-102655199D01*
X132351112Y-102655201D01*
X132248390Y-102714508D01*
X132214825Y-102748073D01*
X132162499Y-102769746D01*
X132110175Y-102748073D01*
X132076613Y-102714511D01*
X132076610Y-102714509D01*
X132076609Y-102714508D01*
X131973887Y-102655201D01*
X131973882Y-102655199D01*
X131859311Y-102624500D01*
X131859309Y-102624500D01*
X131740691Y-102624500D01*
X131740689Y-102624500D01*
X131626117Y-102655199D01*
X131626112Y-102655201D01*
X131523390Y-102714508D01*
X131439508Y-102798390D01*
X131380201Y-102901112D01*
X131380199Y-102901117D01*
X131349500Y-103015688D01*
X102500500Y-103015688D01*
X102500500Y-100074500D01*
X102522174Y-100022174D01*
X102574500Y-100000500D01*
X147425500Y-100000500D01*
X147477826Y-100022174D01*
G37*
%TD.AperFunction*%
%TD*%
M02*
